<svg width="414" height="457" viewBox="0 0 414 457" fill="none" xmlns="http://www.w3.org/2000/svg">
<path d="M412.088 445.737L-0.220703 446.439V13.6965H413.779L412.088 445.737Z" fill="white"/>
<path d="M376.754 444.025C376.593 446.221 378.361 445.428 378.677 445.772C378.298 442.081 376.298 444.116 376.754 444.025Z" fill="white"/>
<path d="M372.86 407.649L373.575 408.295L371.828 402.927L372.86 407.649Z" fill="white"/>
<path d="M372.993 373.645C369.976 376.852 373.442 385.967 372.355 392.022L371.653 393.019L374.06 395.755C373.716 388.395 372.137 378.823 372.993 373.645Z" fill="white"/>
<path d="M379.547 355.534C378.375 356.65 378.55 351.605 379.168 359.744C379.253 359.484 379.351 359.229 379.463 358.98C379.448 358.257 379.456 357.246 379.547 355.534Z" fill="white"/>
<path d="M378.845 342.455L379.877 347.177C380.578 346.188 380.733 341.992 381.231 343.556C380.677 338.715 379.989 339.704 378.845 342.455Z" fill="white"/>
<path d="M376.663 337.978L377.098 340.42C377.393 339.992 377.512 339.346 376.663 337.978Z" fill="white"/>
<path d="M378.017 345.605L377.098 340.42C376.614 341.121 375.638 341.17 377.428 342.798C376.537 342.377 377.393 343.402 378.017 345.605Z" fill="white"/>
<path d="M377.547 348.538C376.887 351.184 376.466 354.601 375.442 349.865C375.828 358.888 377.94 357.569 377.547 348.538Z" fill="white"/>
<path d="M369.885 371.898L369 375.406L369.997 378.466C369.499 376.964 370.832 371.68 369.885 371.898Z" fill="white"/>
<path d="M380.487 313.075C379.848 312.78 378.775 314.653 377.961 315.004L378.663 318.513C379.126 316.681 379.54 313.306 380.487 313.075Z" fill="white"/>
<path d="M377.961 315.004L376.874 309.791C376.733 314.443 377.252 315.278 377.961 315.004Z" fill="white"/>
<path d="M373.33 337.122L375.61 345.696L373.302 335.473L373.33 337.122Z" fill="white"/>
<path d="M380.627 293.168L382.094 296.122L379.876 290.852L380.627 293.168Z" fill="white"/>
<path d="M380.403 279.955C381.624 282.151 382.508 276.965 383.21 279.253C382.916 276.037 382.179 272.878 381.02 269.864C381.568 272.797 381.42 275.92 380.403 279.955Z" fill="white"/>
<path d="M379.68 265.226C380.038 266.8 380.495 268.349 381.048 269.864C380.782 268.268 380.323 266.711 379.68 265.226Z" fill="white"/>
<path d="M377.217 300.907C377.61 300.507 378.621 299.735 379.056 296.809L377.252 298.858C377.245 299.483 377.231 300.191 377.217 300.907Z" fill="white"/>
<path d="M377.196 298.929L377.252 298.858C377.309 296.634 377.351 295.09 377.365 294.431C377.344 294.999 377.295 296.332 377.196 298.929Z" fill="white"/>
<path d="M377.21 301.427V300.907C377.042 301.104 376.986 301.244 377.21 301.427Z" fill="white"/>
<path d="M375 323.467C374.004 320.4 372.944 314.008 371.386 320.183C372.6 322.386 373.498 318.85 375 323.467Z" fill="white"/>
<path d="M374.95 303.967L374.522 309.503C375 309.391 375.694 308.394 376.192 309.917L374.95 303.967Z" fill="white"/>
<path d="M374.389 301.251L374.951 303.967L375.112 301.911L374.389 301.251Z" fill="white"/>
<path d="M377.968 274.706C377.196 272.313 377.133 269.696 377.021 266.742C376.651 269.912 376.461 273.1 376.452 276.292C377.014 276.734 378.024 278.088 377.968 274.706Z" fill="white"/>
<path d="M377.435 286.508C377.393 286.34 377.372 286.13 377.337 285.975C377.182 286.27 377.133 286.508 377.435 286.508Z" fill="white"/>
<path d="M377.119 237.649C377.021 237.811 376.894 237.951 376.789 238.113C376.894 238.144 376.997 238.181 377.098 238.225L377.119 237.649Z" fill="white"/>
<path d="M376.109 276.825C375.795 278.571 376.015 280.371 376.74 281.99C376.565 280.207 376.452 278.32 376.445 276.292C376.193 276.095 376.024 276.06 376.109 276.825Z" fill="white"/>
<path d="M378.866 257.107C378.487 258.349 378.165 259.753 377.863 261.233C378.438 260.019 379.329 257.549 378.866 257.107Z" fill="white"/>
<path d="M377.835 285.147C377.869 285.265 377.894 285.384 377.912 285.505C378.305 284.719 378.115 284.817 377.835 285.147Z" fill="white"/>
<path d="M377.835 285.147C377.573 284.063 377.209 283.005 376.747 281.99C376.857 283.32 377.054 284.642 377.336 285.947C377.465 285.659 377.633 285.39 377.835 285.147Z" fill="white"/>
<path d="M365.583 228.794C367.246 229.222 368.769 235.488 366.986 240.884C368.221 246.203 373.716 242.744 376.81 238.077C376.108 237.909 375.407 237.909 374.438 232.464C373.526 234.373 372.277 244.596 370.783 239.972C369.941 232.724 371.386 234.036 372.284 230.52C370.179 233.502 369.281 221.286 366.222 222.858L367.281 229.215C366.783 229.341 366.032 227.033 365.583 228.794Z" fill="white"/>
<path d="M376.585 248.54L376.789 250.792C377.084 248.224 377.757 246.386 379.069 243.01C378.27 239.263 377.666 238.484 377.098 238.225L376.81 249.319L376.585 248.54Z" fill="white"/>
<path d="M376.761 260.897C374.958 259.135 374.2 253.725 372.228 257.03C372.333 263.64 373.73 261.669 374.502 265.619C374.088 254.953 375.505 268.685 376.557 260.981C376.814 262.892 376.969 264.815 377.021 266.742C377.245 264.826 377.526 262.974 377.863 261.233C377.821 261.325 377.792 261.395 377.75 261.472V261.521C377.519 261.977 377.385 262.132 377.512 261.612C377.491 261.539 377.479 261.464 377.477 261.388C377.204 261.291 376.962 261.124 376.775 260.904C377.161 257.823 377.245 260.419 377.477 261.388C377.568 261.388 377.652 261.507 377.75 261.521V261.479L376.81 250.792C376.529 253.052 376.572 255.88 376.761 260.897Z" fill="white"/>
<path d="M367.506 314.471C367.667 314.141 367.793 314.155 367.927 314.134C367.688 313.44 367.555 313.173 367.506 314.471Z" fill="white"/>
<path d="M368.614 310.085C368.867 310.864 369.59 311.489 369.393 314.036C368.839 316.225 368.523 314.036 367.927 314.134C368.404 315.657 369.211 319.46 370.109 314.696L369.863 313.938C370.502 309.636 372.782 304.114 373.028 304.872C371.166 306.237 369.653 308.023 368.614 310.085Z" fill="white"/>
<path d="M372.228 285.182L371.365 276.285L369.793 280.811L370.74 280.586C370.34 285.638 371.505 284.551 372.228 285.182Z" fill="white"/>
<path d="M378.024 236.632L379.933 237.818L377.245 232.667L378.024 236.632Z" fill="white"/>
<path d="M377.828 225.075L379.491 225.503L378.494 222.451L377.828 225.075Z" fill="white"/>
<path d="M63.5103 140.359L63.9804 142.977C63.8974 142.093 63.7402 141.217 63.5103 140.359Z" fill="white"/>
<path d="M63.6227 121.442L62.8018 120.979C63.2579 121.849 63.5877 122.214 63.6227 121.442Z" fill="white"/>
<path d="M295.238 3.21315C291.435 1.65539 287.183 -0.758439 287.639 1.10807L288.811 2.93949C290.952 2.64564 293.129 2.73833 295.238 3.21315Z" fill="white"/>
<path d="M100.819 14.1176L101.935 14.6719L104.503 12.9247C103.402 13.3036 102.139 13.6965 100.819 14.1176Z" fill="white"/>
<path d="M98.1319 21.6748L93.1147 20.496C94.7482 21.0393 96.4274 21.4338 98.1319 21.6748Z" fill="white"/>
<path d="M65.4473 243.705L67.3068 246.75C67.2997 241.979 66.3595 244.077 65.4473 243.705Z" fill="white"/>
<path d="M377.512 106.685C378.13 103.992 378.508 101.249 378.642 98.4893C377.575 102.447 375.989 105.633 377.512 106.685Z" fill="white"/>
<path d="M44.1294 132.914C44.4592 134.514 44.8311 135.195 45.2381 135.153C44.9083 133.539 44.5715 132.571 44.1294 132.914Z" fill="white"/>
<path d="M378.656 89.0024C378.466 89.5848 378.375 90.1532 378.221 90.7426C378.581 93.2987 378.72 95.8813 378.635 98.4613C379.421 95.5703 379.912 92.2232 378.656 89.0024Z" fill="white"/>
<path d="M225.539 435.626C225.812 435.71 226.142 435.745 226.388 435.843C226.472 435.598 226.093 435.584 225.539 435.626Z" fill="white"/>
<path d="M334.771 453.814C333.698 453.933 331.965 453.94 330.288 453.968C331.783 454.091 333.288 454.039 334.771 453.814Z" fill="white"/>
<path d="M371.505 190.467C371.302 189.948 371.042 189.548 370.621 189.485C371.035 189.681 371.354 190.035 371.505 190.467Z" fill="white"/>
<path d="M367.358 64.5483V64.3378C366.986 65.0675 367.071 64.9412 367.358 64.5483Z" fill="white"/>
<path d="M377.919 182.251C378.171 181.221 378.356 180.175 378.473 179.121C378.228 180.153 378.043 181.198 377.919 182.251Z" fill="white"/>
<path d="M378.789 181.76C378.698 182.602 378.656 183.268 378.599 183.865C378.915 184.208 379.098 183.942 378.789 181.76Z" fill="white"/>
<path d="M378.677 175.15C378.689 176.476 378.621 177.803 378.473 179.121C378.599 178.637 378.705 178.419 378.761 178.567C378.733 177.851 378.705 176.834 378.677 175.15Z" fill="white"/>
<path d="M59.0477 417.676C58.9915 417.838 58.9494 418.027 58.8722 418.203C59.6441 420.673 59.5108 419.592 59.0477 417.676Z" fill="white"/>
<path d="M231.44 22.18C231.533 22.1571 231.624 22.129 231.714 22.0958L231.356 22.0256L231.44 22.18Z" fill="white"/>
<path d="M222.634 23.5413C226.381 21.2678 228.514 21.5485 231.356 22.0257L228.444 16.7629L222.634 23.5413Z" fill="white"/>
<path fill-rule="evenodd" clip-rule="evenodd" d="M19.8335 179.759L17.7905 185.943C17.7036 184.981 17.7229 184.079 17.7421 183.18C17.7731 181.732 17.8038 180.293 17.3889 178.629C14.5773 186.188 17.6574 193.327 19.5969 197.823C19.7413 198.157 19.8793 198.477 20.0081 198.782C19.6213 199.946 18.7718 199.893 17.9234 199.84C16.5122 199.752 15.1042 199.664 15.8349 205.183C16.6212 212.209 18.1574 210.575 19.5057 209.141C20.5525 208.027 21.4861 207.034 21.8677 210.307L18.1921 215.86C20.2278 222.766 19.4791 228.418 18.7311 234.065C18.443 236.24 18.1549 238.414 18.0262 240.659C18.3143 242.484 18.6985 243.383 19.1001 243.825C18.245 248.423 19.3356 253.259 20.3494 257.754C21.2298 261.658 22.0522 265.304 21.4923 268.316C21.0139 267.361 20.21 269.076 19.4622 270.671C19.0227 271.609 18.6026 272.506 18.2794 272.794L20.4996 284.188C19.6798 280.158 18.1275 279.601 16.4752 279.008C16.1246 278.882 15.7694 278.755 15.4158 278.592C15.542 280.703 15.9834 282.17 16.3874 283.513C16.6821 284.492 16.9568 285.406 17.0746 286.454C16.3587 284.938 15.5642 283.4 14.6126 285.331L18.1048 297.6C18.4718 296.52 18.6712 295.407 18.6985 294.287C18.703 295.081 18.797 296.114 18.9037 297.286C19.2089 300.639 19.6172 305.124 18.3231 308.375C17.9231 308.182 17.5359 307.719 17.1467 307.254L17.1466 307.254C16.7458 306.775 16.3429 306.293 15.9222 306.101C18.1545 302.572 16.4316 300.504 14.8938 298.659L14.8858 298.649C14.8205 298.57 14.7555 298.492 14.6911 298.415C14.898 303.306 14.685 303.25 14.1786 303.117C13.8087 303.019 13.2821 302.88 12.6482 304.599C12.7268 310.565 15.5642 313.015 17.3103 311.45C17.2406 312.035 17.1727 312.585 17.1084 313.107L17.1083 313.108L17.1072 313.117L17.1071 313.118C16.4314 318.6 16.1433 320.938 18.0873 327.215L15.215 325.91L16.088 332.227L12.5958 327.096C11.6515 333.036 12.8131 333.696 14.0552 334.402C15.3508 335.138 16.7338 335.924 15.9047 342.805H13.3728C13.7403 344.772 14.5824 346.25 15.321 347.546C16.5302 349.668 17.4624 351.303 15.5817 353.805C16.2516 356.012 17.019 354.627 17.7136 353.374C18.6031 351.768 19.3734 350.378 19.6676 357.02C18.358 359.104 17.4064 363.597 16.8913 366.994C17.9185 370.439 19.5414 365.205 19.5537 362.426C19.9842 370.677 17.9483 373.399 16.125 375.837C14.2042 378.405 12.5193 380.658 14.2022 388.726C14.9434 386.494 15.894 386.843 16.7542 387.159C18.0017 387.617 19.0593 388.005 19.0128 380.352C19.71 383.171 19.0163 385.948 18.3174 388.745C17.4847 392.078 16.6446 395.44 18.1397 398.939L14.9181 394.728C14.8629 396.561 15.5893 398.574 16.0895 399.96C16.2215 400.326 16.3378 400.648 16.4198 400.912L13.9316 400.385C16.0183 404.187 15.6352 407.735 15.2914 410.92C14.9159 414.397 14.5873 417.44 17.5722 419.906C15.0419 418.077 15.4425 420.197 15.9653 422.962C16.3715 425.111 16.8515 427.65 16.088 429.032C14.6111 425.998 14.5163 421.756 14.4319 417.985C14.3338 413.596 14.2499 409.845 12.0196 409.377C11.3863 410.912 11.5882 412.365 11.7883 413.804C11.9855 415.223 12.1809 416.629 11.5743 418.088C10.9545 416.032 9.89806 413.041 9.025 412.255C8.0311 416.377 8.20117 420.625 9.52264 424.687C9.95507 426.066 10.4432 427.365 10.9159 428.622L10.9169 428.625L10.9204 428.634C11.0379 428.947 11.1543 429.257 11.2688 429.565L11.4783 430.148L11.5743 430.435L11.6267 430.576L11.6791 430.667L12.0545 431.369C12.2773 431.808 12.4639 432.258 12.6133 432.717C12.5767 432.455 12.5396 432.214 12.5023 431.971L12.5023 431.971L12.5022 431.971L12.5022 431.97C12.3793 431.17 12.2536 430.352 12.1331 428.737L11.6529 423.346C13.7308 423.781 13.9054 424.995 13.9665 426.476C13.9692 427.267 14.051 428.055 14.211 428.835C14.3067 429.254 14.465 429.661 14.6824 430.049C14.7365 430.15 14.7977 430.249 14.8658 430.344C14.878 430.362 14.8909 430.383 14.9043 430.405C14.958 430.491 15.0194 430.59 15.0753 430.59C15.2442 430.693 15.4255 430.782 15.6166 430.857C15.118 431.428 14.8388 432.104 14.8134 432.801C14.7919 433.358 14.8924 433.914 15.1102 434.443C15.1644 434.597 15.2211 434.74 15.2757 434.878C15.5819 435.654 15.8264 436.274 15.2412 437.56C15.2542 437.276 15.165 437.192 15.0724 437.104C14.9824 437.019 14.8892 436.931 14.8835 436.654C14.8898 437.382 14.8049 438.109 14.63 438.824C15.5617 439.06 16.405 439.48 17.0833 440.045C17.5122 440.377 17.9209 440.738 18.3366 441.106L18.3377 441.107L18.3388 441.108L18.3398 441.109L18.3408 441.11C18.5922 441.332 18.8462 441.557 19.1088 441.779C20.497 442.951 22.1645 444.011 24.2861 444.053C25.0174 444.107 25.7521 444.126 26.4862 444.109C27.3592 444.095 28.2323 444.053 29.1053 443.983C30.7812 443.86 32.4442 443.642 34.0818 443.33C37.0065 442.74 38.7264 441.926 36.7708 441.224C38.2526 440.925 36.824 440.921 34.4651 440.915H34.4648H34.4645H34.4642H34.4639H34.4627C33.1111 440.911 31.4544 440.906 29.8649 440.845C28.7648 440.803 27.6997 440.74 26.7743 440.628C26.351 440.575 25.9314 440.504 25.5171 440.417C25.3563 440.386 25.2023 440.345 25.0609 440.306L25.002 440.291C24.9033 440.249 24.8122 440.197 24.7313 440.136C24.4311 439.917 24.3154 439.578 24.4345 439.266C24.5003 439.055 24.6001 438.852 24.7313 438.662C24.8029 438.531 24.9001 438.41 25.0194 438.304C25.2202 438.185 25.4472 438.051 25.7091 437.918C29.9542 440.456 34.3166 439.921 39.9704 439.226C45.433 438.555 52.1009 437.737 61.0331 439.399C56.8949 440.33 58.332 441.053 59.6621 441.721C60.8885 442.338 62.0238 442.908 58.6147 443.555C65.7779 443.212 67.2375 442.629 69.7065 441.644L69.7086 441.643C70.2242 441.437 70.7838 441.214 71.4487 440.971L74.0678 442.53C78.2315 441.235 79.6884 440.473 80.7226 439.932C82.4967 439.004 83.0269 438.727 93.8426 437.525C90.8239 438.185 92.8749 438.772 94.8678 439.342C96.6675 439.856 98.4198 440.358 96.3483 440.887C100.692 441.028 105.034 440.577 109.191 439.554L108.562 439.785C116.708 439.389 120.335 439.795 123.529 440.152C127.134 440.554 130.187 440.895 138.561 439.954L136.989 439.02C149.35 437.48 163.667 437.43 177.758 437.381H177.758H177.759H177.759H177.76C187.237 437.348 196.611 437.316 205.219 436.83L198.357 436.14C199.425 436.18 201.223 436.05 203.378 435.894L203.383 435.894L203.384 435.894H203.384H203.385C208.106 435.552 214.537 435.087 218.769 436.009C218.326 436.041 217.778 436.109 217.197 436.181L217.196 436.182C216.025 436.327 214.723 436.489 213.888 436.409C214.08 437.462 216.682 439.02 221.824 439.273L223.806 437.665L225.884 438.908C229.805 438.915 229.229 438.342 228.65 437.767C228.07 437.191 227.488 436.612 231.419 436.612C233.792 438.992 242.73 439.06 251.751 439.13C260.189 439.194 268.698 439.26 271.973 441.217C274.696 439.491 270.732 439.408 267.004 439.33C263.454 439.256 260.119 439.186 262.971 437.707C263.542 437.832 264.038 437.962 264.532 438.092L264.532 438.092L264.534 438.093C266.102 438.506 267.653 438.914 271.536 439.111L269.79 437.118C278.126 437.502 284.651 437.96 290.526 438.372L290.527 438.372L290.528 438.372L290.529 438.372L290.53 438.372C301.377 439.132 310.005 439.737 323.71 439.441L322.837 439.869C330.363 440.635 334.414 440.263 337.775 438.529C338.506 438.966 337.709 439.304 336.953 439.625C336.094 439.989 335.289 440.331 336.85 440.768C344.132 437.937 351.421 439.341 357.847 440.58C363.1 441.592 367.777 442.493 371.405 440.88C370.938 442.68 374.122 444.434 377.156 446.107C380.928 448.185 384.468 450.136 380.476 451.887L385.898 451.395C385.001 452.713 380.833 452.749 376.468 452.787C371.999 452.826 367.325 452.867 365.748 454.287L348.61 451.529C348.822 451.905 348.534 452.358 348.258 452.791C347.818 453.482 347.409 454.125 349.099 454.336C344.864 454.393 341.171 454.568 346.715 455.972C323.433 452.156 299.798 452.648 276.329 453.138C258.531 453.509 240.829 453.878 223.448 452.364C220.724 452.61 222.287 453.543 223.343 454.168C218.568 452.521 216.999 453.551 215.41 454.594C214.526 455.173 213.636 455.757 212.186 455.888L201.316 452.21C198.243 452.983 198.987 453.762 199.611 454.416C199.882 454.7 200.131 454.96 200.033 455.186C191.005 455.525 182.083 455.028 173.506 454.551H173.506H173.505H173.505H173.505H173.505H173.504H173.504H173.504C162.532 453.941 152.126 453.362 142.786 454.603C140.298 453.984 140.422 453.288 140.53 452.679C140.652 451.991 140.755 451.412 137.05 451.178C142.234 453.256 135.709 453.613 129.685 453.942C125.13 454.191 120.86 454.424 122.158 455.374C119.122 453.869 114.279 453.511 109.92 453.189H109.92C103.956 452.749 98.8966 452.375 100.609 449.219C92.2275 448.896 93.6767 451.634 96.0951 452.132C86.378 451.936 78.5379 451.922 70.6018 453.705C68.6784 453.239 62.4856 453.298 54.9123 453.371C51.8635 453.4 48.5909 453.431 45.2831 453.431C39.5209 453.431 33.654 453.347 28.695 452.989C27.4465 452.904 26.2679 452.799 25.1504 452.673L23.0376 452.469C22.3391 452.399 21.6843 452.322 21.0557 452.238C19.1649 452.049 17.3266 451.608 15.6166 450.932C17.1706 451.634 17.9564 452.055 18.1048 452.336C18.2532 452.617 17.6072 452.75 16.5071 452.827C15.8343 452.878 14.9962 452.911 14.0306 452.95L14.0277 452.95L14.0254 452.95L14.0238 452.95C11.7825 453.04 8.85574 453.157 5.71611 453.578C7.66509 454.468 9.66998 455.277 11.7227 456L-6.45433 455.789V454.498C-6.74244 451.465 -6.61148 450.434 -6.34083 450.286C-6.37426 449.506 -6.0222 448.747 -5.36317 448.176L-6 451.074C-5.62674 451.658 -5.27126 452.189 -5.1024 451.935C-4.93616 451.685 -4.95082 450.713 -5.30748 448.123C-4.79515 447.481 -4.20769 446.274 -3.83515 442.986C-3.75658 437.974 -4.12326 435.524 -4.70821 433.419C-5.00505 432.401 -5.34554 431.467 -5.72096 430.47C-6.15811 429.689 -6.54566 428.89 -6.88212 428.077L-7.33611 429.151L-7.61549 424.399C-7.58674 423.243 -7.25121 424.191 -6.76169 425.575C-5.76476 428.392 -4.12915 433.015 -3.14543 425.346C-3.93992 425.185 -7.93852 418.474 -5.76461 415.414C-5.92176 421.24 -3.80023 420.503 -2.92717 418.362L-2.70018 410.191L-6.5329 412.894C-6.43839 402.332 -5.83236 391.577 -5.21709 380.659C-4.46825 367.37 -3.70575 353.839 -3.83515 340.117C-2.32776 340.272 -2.14236 336.71 -1.9465 332.947C-1.70676 328.341 -1.45136 323.434 1.26351 324.674L0.792058 325.636C1.27224 331.778 4.6859 323.853 4.12714 318.862C3.46272 321.07 2.47682 319.736 1.50461 318.421C0.177325 316.624 -1.12443 314.863 -1.54774 322.196L-3.8788 312.369C-9.40445 309.182 -8.20037 300.773 -6.85328 291.366C-5.89529 284.676 -4.86498 277.48 -6.13129 271.299C-5.76461 272.345 -5.25824 272.618 -4.9614 272.752C-6.82319 264.625 -5.43382 255.286 -4.43673 248.584C-3.81135 244.38 -3.34028 241.214 -3.92246 240.034L-1.30328 238.855C-5.29316 227.554 -5.63365 226.213 -4.01849 212.729C-3.91035 212.771 -3.78586 212.89 -3.65152 213.018L-3.65141 213.018C-3.22177 213.427 -2.69135 213.933 -2.27238 212.329C-4.1931 209.086 -6.11383 205.822 -5.58127 196.591L-4.76932 196.971L-5.23204 182.56C-1.39367 182.61 -2.36167 176.926 -3.45323 170.517C-4.6384 163.558 -5.96923 155.744 -1.4517 153.485C-3.05305 151.547 -3.90455 145.955 -4.64018 141.123C-4.9754 138.922 -5.28656 136.878 -5.63365 135.41C-5.29316 135.375 -4.9352 135.081 -4.55979 134.301C-7.27133 130.801 -6.01677 125.342 -4.84586 120.248C-4.16188 117.272 -3.50645 114.42 -3.68673 112.155C-4.71694 108.154 -6.07891 109.881 -7.44961 111.629C-5.36496 106.785 -7.25653 99.6766 -8.7063 94.2281C-9.62448 90.7775 -10.3654 87.9928 -9.80687 86.8714C-9.59408 83.1481 -8.37919 83.3116 -7.07449 83.4873C-6.34506 83.5855 -5.58755 83.6874 -4.9614 83.1161C-5.31781 79.1173 -6.90303 79.1413 -8.1821 79.1607C-9.6602 79.1831 -10.7295 79.1994 -9.02112 72.9941C-8.9337 73.3315 -8.85011 73.7401 -8.76665 74.1481C-8.51671 75.3699 -8.26795 76.5859 -7.92106 75.865C-7.63946 74.0363 -5.90227 71.6123 -4.09235 69.0868C-1.5254 65.505 1.18785 61.719 0.102342 59.1378L-1.3382 62.114C-2.31137 58.3274 -0.926513 53.887 0.251343 50.1104C1.57785 45.8571 2.64182 42.4457 -0.22069 41.7578L-2.72637 42.5159C-1.06756 35.5737 -1.31201 34.0997 -1.60885 32.6045C-1.68743 32.2325 -1.75727 31.8535 -1.80966 31.3902C-1.87077 31.1585 -1.87077 30.9058 -1.87077 30.6251V29.4669C-1.72098 26.4562 -1.3654 23.4543 -0.805638 20.475L-0.395301 20.8471C-0.512847 18.837 -0.422319 16.8225 -0.124653 14.8244C0.133738 13.3896 0.279535 11.943 0.311876 10.4935C2.36356 10.4513 3.65569 10.0583 4.33667 8.81583L0.381721 8.3736C6.62409 8.24726 10.1949 8.24024 13.6871 8.28937L26.6433 8.52101C27.7696 8.21216 32.4317 7.70676 33.7849 8.4087C34.1694 6.04083 51.2487 6.88022 58.251 7.22437C59.1989 7.27095 59.9622 7.30847 60.4743 7.32772C53.7744 7.67247 55.7375 8.60036 57.7823 9.56679C58.069 9.70228 58.3572 9.83852 58.6234 9.97403C63.1284 7.76994 66.2365 7.54532 72.4614 9.1317C73.3607 5.77643 74.6004 2.19654 86.9018 2C86.4072 2.13014 85.8414 2.24539 85.2952 2.35664C83.7202 2.67746 82.308 2.96511 83.235 3.48109C84.4779 4.17294 87.3218 3.42458 88.2946 3.16859L88.3074 3.16522C88.8885 3.48098 88.3622 3.76568 87.7553 4.094C87.04 4.48094 86.2127 4.92847 86.9542 5.55883C91.8182 3.68154 95.9078 3.92456 100.877 4.21983C104.398 4.42911 108.362 4.66463 113.355 4.19005C110.594 4.91142 111.593 5.4538 112.869 6.14605C113.344 6.40358 113.857 6.68186 114.229 6.9978C114.695 5.09605 118.812 5.92165 122.242 6.60944C125.673 7.29759 128.416 7.8478 126.128 5.39036C137.618 6.8263 152.117 6.91507 165.031 6.99413C178.631 7.07739 190.472 7.14989 195.187 8.77371C196.731 9.63308 199.875 9.08474 203.018 8.5366C204.907 8.2072 206.795 7.87788 208.335 7.85417L207.777 9.52478C213.702 7.9646 215.893 7.71491 218.48 7.42021C220.909 7.14346 223.687 6.82701 230.232 5.34825C224.635 7.33473 226.975 8.24726 232.607 9.8196L241.887 6.35202L243.686 8.92814C247.457 7.92908 251.645 8.31521 255.848 8.71742C257.972 7.09405 263.66 6.48725 268.562 5.96428C272.178 5.57845 275.367 5.23824 276.382 4.5691C278.5 6.35123 281.352 6.08179 284.041 5.82783C286.615 5.58463 289.039 5.35563 290.525 6.95569C292.149 6.41288 293.837 6.00367 295.563 5.73431C293.572 4.21111 292.839 2.49838 296.576 3.24945C296.89 3.1933 297.134 3.1933 297.449 3.1933L299.072 5.21488C302.47 4.79814 305.896 4.54966 309.331 4.47082C307.999 4.23436 306.698 3.89589 305.446 3.46003C306.593 3.67107 307.677 3.91985 308.726 4.1608L308.727 4.16091C309.178 4.26454 309.623 4.36671 310.064 4.46381H311.435C311.167 4.53145 310.887 4.56462 310.606 4.56208C313.245 5.15117 316.034 5.15117 318.673 4.56208C324.927 6.01769 331.841 5.1696 338.938 4.29904C346.968 3.31405 355.232 2.30031 363.041 4.56208C360.833 4.12687 357.742 3.95841 356.869 4.66035C362.225 4.57484 367.568 5.07398 372.535 5.53803C373.276 5.60726 374.008 5.67572 374.732 5.74133C375.19 5.79486 376.131 5.84838 376.998 5.89764L376.998 5.89765L376.998 5.89767C377.154 5.90654 377.308 5.91527 377.456 5.92384L380.407 6.07826L380.596 6.08723C382.458 6.1754 384.262 6.26077 385.95 6.26077C389.324 6.33534 392.7 6.18508 396.043 5.81153C396.296 5.17978 396.532 4.55506 396.741 3.92331L408.964 3.27753C409.549 10.5637 409.89 17.4918 409.75 24.6867C410.623 24.7218 411.496 24.7779 412.369 24.8481C412.299 25.8238 412.23 26.9329 412.23 27.9647V30.8848C412.238 32.2114 412.299 33.6364 412.387 35.1315C412.449 36.2447 412.524 37.394 412.6 38.5601L412.6 38.5615L412.6 38.5631L412.601 38.5647L412.601 38.5666C412.729 40.5236 412.86 42.528 412.937 44.4884C413.172 50.8058 412.858 56.6319 410.108 59.2291C411.313 60.429 410.893 64.1623 410.458 68.0327C410.14 70.864 409.813 73.7686 410.108 75.8089L408.065 77.0302C407.561 81.6819 407.764 86.3654 408.667 90.9778C405.834 99.4135 406.674 107.437 407.479 115.127C407.894 119.095 408.3 122.975 408.187 126.777L407.594 126.882L409.008 138.211C408.311 137.069 408.331 137.122 408.593 137.813C409.016 138.931 410.074 141.722 409.75 143.827C410.754 147.435 410.213 153.282 408.877 157.536L408.746 164.752C407.889 159.67 406.937 161.25 405.758 163.208C405.076 164.342 404.316 165.602 403.455 165.769L405.271 170.353C404.729 171.228 404.289 170.588 403.919 170.052C403.515 169.466 403.196 169.003 402.923 170.781C403.411 171.988 403.692 174.119 403.998 176.437C404.475 180.049 405.012 184.116 406.485 185.852C407.293 184.989 407.848 183.991 408.109 182.932C407.96 182.546 407.995 182.567 408.152 182.812L408.21 182.663C408.196 182.727 408.196 182.79 408.196 182.89C408.44 183.337 408.75 183.759 409.121 184.146C408.699 188.627 409.202 188.329 409.945 187.888C410.154 187.764 410.382 187.629 410.614 187.586C408.904 190.599 408.523 192.999 408.174 195.202C407.809 197.5 407.479 199.582 405.71 201.919C407.524 200.046 407.494 203.56 407.461 207.273C407.427 211.287 407.39 215.533 409.68 213.452C407.736 215.981 407.767 216.776 407.792 217.397C407.814 217.966 407.831 218.39 406.31 219.875C407.108 214.63 405.296 209.398 403.688 204.756C403.202 203.354 402.735 202.005 402.364 200.726L400.12 206.131C397.624 204.01 398.7 200.072 399.659 196.564C400.3 194.22 400.888 192.067 400.321 190.779C401.237 192.828 400.399 197.289 399.516 197.918L402.573 196.542C403.705 189.926 402.032 184.457 400.535 179.569C400.289 178.764 400.047 177.974 399.823 177.197C399.315 179.655 398.862 178.381 398.283 176.755C397.638 174.944 396.838 172.695 395.633 174.67L396.017 178.755C395.103 180.253 394.306 178.021 393.546 175.893C393.355 175.358 393.166 174.829 392.979 174.368C394.134 168.115 394.27 159.337 394.392 151.423V151.423V151.423V151.423V151.422C394.523 143.008 394.638 135.573 395.947 133.192C395.126 135.86 395.816 140.703 396.741 143.02L398.095 136.962C398.126 138.946 397.68 140.761 397.203 142.696C396.499 145.561 395.729 148.691 396.349 153.022C397.085 152.58 397.917 152.989 398.815 153.429C400.396 154.205 402.178 155.08 403.988 151.569C405.646 144.458 404.218 141.631 402.546 138.321C400.951 135.166 399.135 131.572 399.561 123.407C399.388 122.973 399.571 123.056 399.9 123.206C400.749 123.591 402.572 124.419 401.805 118.002C399.806 106.785 395.205 98.5727 390.787 98.5727L390.792 98.5922C392.069 103.316 394.616 112.74 391.407 114.177C391.03 112.782 390.697 111.086 390.363 109.379C389.568 105.321 388.76 101.2 387.304 100.903C389.223 98.3948 389.448 100.83 389.641 102.909C389.822 104.868 389.974 106.511 391.486 103.409C391.426 100.875 390.706 99.4494 390.09 98.2282L390.09 98.2275L390.088 98.2244C389.9 97.8505 389.721 97.4956 389.574 97.1338C390.657 98.6709 391.503 96.6234 392.212 94.9078C392.52 94.1633 392.802 93.4814 393.066 93.1819C393.103 87.5275 393.576 83.1392 394.07 78.5679L394.07 78.5675C394.512 74.4678 394.97 70.2209 395.144 64.7814C395.668 64.1777 396.89 62.9143 397.763 63.2512C396.794 57.6216 391.25 49.5844 388.936 51.6903C388.877 48.7268 389.2 47.0262 389.481 45.5416C389.826 43.7241 390.109 42.2303 389.556 39.1396C388.004 43.2838 388.009 43.2137 388.108 41.8482C388.224 40.2648 388.466 36.9394 386.553 36.4231C386.302 32.9856 386.971 32.947 387.726 32.9033C388.233 32.874 388.778 32.8425 389.111 31.7833C389.084 31.7241 389.054 31.654 389.02 31.5758L389.019 31.5747L389.019 31.5745C388.933 31.3745 388.823 31.1226 388.692 30.8707L388.404 30.3303L388.325 30.1899L388.238 30.1056L388.072 29.9372C387.73 29.5317 387.191 29.2614 386.588 29.1931C387.165 28.6749 388.062 28.47 388.893 28.6667C389.879 28.958 390.773 29.4206 391.512 30.0214C391.756 30.1921 391.984 30.3775 392.193 30.5759C392.42 30.7725 392.656 30.955 392.883 31.1305C393.28 31.4491 393.737 31.7166 394.236 31.9237C395.126 32.2606 395.991 32.1342 396.785 31.1024C397.763 29.7757 399.195 25.2903 400.382 20.468C401.446 16.1484 402.341 11.5358 402.617 10.1167C402.649 9.9515 402.672 9.82959 402.687 9.75642C402.085 9.46863 401.107 9.72133 399.884 10.5075C396.716 12.4376 393.887 14.7045 391.477 17.2461C389.792 18.7623 388.098 20.3346 386.693 21.7175L386.566 21.8421L386.559 21.8493C385.21 23.1762 384.046 24.3216 383.2 25.171C382.283 25.6726 382.602 25.17 383.266 24.1245L383.268 24.1206L383.274 24.1116L383.276 24.1082C383.381 23.9439 383.493 23.7665 383.611 23.5776C383.689 22.9037 383.462 22.0263 382.738 21.9351C382.098 21.2965 381.081 20.983 380.075 21.1138C379.016 21.1926 377.989 21.4434 377.054 21.8508C376.736 21.9565 376.494 22.0725 376.248 22.1899C375.709 22.4471 375.156 22.7114 373.771 22.8897C372.048 23.1868 370.271 23.2201 368.533 22.988L374.251 21.5209C373.003 20.833 361.898 21.7175 360.152 22.6932C360.057 22.3734 360.686 21.7165 361.425 20.9429C362.878 19.4237 364.762 17.4544 362.448 16.7056C348.907 16.2072 336.038 21.4367 336.911 24.2444L357.663 21.3103C358.014 22.4382 354.655 23.0348 351.15 23.6573C347.325 24.3365 343.326 25.0467 343.782 26.5117L324.671 25.6694C327.08 25.5922 334.457 24.9253 331.559 23.6197C326.44 23.6985 326.053 23.5206 325.155 23.1081C324.614 22.8593 323.887 22.5252 321.824 22.1105C331.236 19.1273 348.505 11.4411 354.616 7.791L344.751 9.37036L342.28 7.96648C330.535 9.67296 319.825 17.5418 315.482 20.7322C315.073 21.0325 314.721 21.2915 314.43 21.4999C307.026 20.9032 309.645 15.8633 311.391 14.8806C304.248 14.7598 300.659 16.4768 297.117 18.171C293.453 19.9243 289.839 21.6533 282.388 21.2963L287.889 22.3913C286.365 22.5986 283.073 22.5182 279.983 22.4428C276.06 22.347 272.46 22.2591 273.212 22.7774C270.534 21.5385 268.057 18.7471 270.252 17.6547L258.144 22.0765C259.067 21.6319 259.066 20.1548 259.064 18.875C259.063 17.975 259.062 17.1725 259.383 16.8951C254.416 16.748 250.86 21.1207 253.386 22.1032C249.665 21.0439 247.719 20.6134 246.272 20.2933C243.953 19.7802 242.915 19.5506 237.906 17.4707C234.903 17.7585 238.185 21.7666 240.385 22.2018C235.773 23.0199 231.001 23.0677 226.364 22.3422C233.81 21.1887 232.733 17.5819 231.78 14.3851C231.294 12.7574 230.84 11.2359 231.559 10.1986L207.384 22.2509C208.257 21.5279 210.134 17.6743 210.003 17.211C207.978 20.7628 180.293 21.2612 166.743 20.7628L168.777 20.7277C171.519 19.4993 159.872 18.5026 155.105 19.7591C155.732 19.1945 156.54 19.2035 157.837 19.2178C158.201 19.2218 158.604 19.2263 159.051 19.2186C154.619 17.8977 151.713 19.176 148.817 20.45C145.803 21.7757 142.8 23.0968 138.098 21.4788C146.488 21.8157 148.129 20.3627 147.702 18.9588C145.486 19.377 142.323 19.5126 139.173 19.6477C132.592 19.93 126.062 20.2101 128.311 23.0582C126.969 22.7884 125.668 22.6512 124.519 22.53C121.902 22.2539 120.073 22.0611 120.34 20.5733L103.507 23.0862C104.727 22.6588 105.808 21.4131 100.914 21.1224C104.949 21.3582 108.922 20.7782 112.538 20.2503C117.397 19.5411 121.61 18.9261 124.461 20.5101C124.544 19.6195 124.186 18.8701 123.857 18.182C123.221 16.8529 122.694 15.7527 125.674 14.305C111.966 15.2349 102.922 17.9862 94.3954 20.5803C91.5939 21.4326 88.8483 22.2679 86.0113 23.016L69.9732 21.1349L69.3009 22.3281L66.5072 19.3239C66.0737 19.473 65.6719 19.6175 65.3046 19.7496L65.304 19.7498L65.3039 19.7498C63.9773 20.2269 63.1013 20.542 62.8141 20.3276C62.4474 20.0539 62.9538 19.6608 63.7396 19.2186C62.3656 19.2948 61.0128 19.5312 59.7235 19.9205C59.1036 18.3482 61.9323 16.5301 64.9618 14.8946C66.4024 15.4562 67.8866 16.0247 69.3795 16.5582C72.5138 15.049 74.775 13.4978 70.4097 12.501C69.7899 12.7046 69.0303 12.9292 68.1572 13.1468C70.1478 12.0237 71.3876 11.0971 69.9034 10.6549L57.6805 12.1009C58.9063 12.4581 60.6564 13.1613 62.7127 13.9875L62.7129 13.9876L62.7133 13.9878L62.7134 13.9878C63.0002 14.103 63.293 14.2207 63.5911 14.3401C55.8995 16.3055 47.1253 18.6991 53.9875 20.7207L44.6458 18.9588C39.163 20.4399 36.9018 21.0366 34.335 21.535C33.0603 21.7806 31.6983 22.0053 29.83 22.3071L26.5822 22.8265L25.6131 22.981C25.3135 23.0074 25.0198 23.0664 24.74 23.1564C24.4719 23.2523 24.2037 23.3634 23.9301 23.4768L23.7884 23.5355C23.6175 23.0524 23.6831 22.5349 23.9718 22.0895L23.9751 22.0812C24.1572 21.6352 24.3251 21.2237 23.5876 20.84C22.1296 21.8087 20.7502 21.8929 18.9167 21.5981C17.6641 21.3967 16.1547 21.0151 14.5612 20.6122C13.8224 20.4254 13.0655 20.234 12.3077 20.0539C11.26 21.184 10.5179 22.7142 12.0807 23.9145C12.5434 26.1397 13.3466 26.7223 14.1673 27.1575C15.1063 27.49 15.8741 28.0726 16.3412 28.807C16.3007 28.7937 16.2568 28.7787 16.2104 28.7628C15.7678 28.6109 15.1036 28.3829 15.0404 28.8913C15.4507 29.3112 15.9002 29.7054 16.3849 30.0705C16.4053 30.0952 16.4257 30.1081 16.4467 30.1213C16.4794 30.142 16.5135 30.1635 16.5508 30.232L16.7166 30.5338L17.0484 31.1305L17.7207 32.3238C17.3285 33.1119 16.9466 32.5239 16.5534 31.9185C15.9837 31.0414 15.3905 30.128 14.7086 33.3135C14.8256 33.8494 14.9403 34.3724 15.0525 34.8836C16.8663 43.1494 18.0044 48.3354 16.8039 55.6071C17.1422 61.5 18.6588 59.6923 19.9045 58.2076C20.9735 56.9333 21.843 55.8969 21.597 60.1697C21.455 60.2579 21.3113 60.3455 21.1666 60.4336C19.0791 61.7054 16.7912 63.0991 16.4809 68.5017C17.0311 69.6139 17.6067 70.266 18.1631 70.8963C19.1342 71.9966 20.0468 73.0304 20.6629 76.3283L17.3103 75.9984C17.3343 76.6928 17.3679 77.3671 17.4 78.0126C17.5897 81.8232 17.7293 84.6303 15.5642 84.6603C16.6994 87.4614 16.9011 90.4529 16.1492 93.3363C17.5354 99.0519 20.9142 92.5707 22.9511 88.6633C23.5183 87.5753 23.9815 86.6869 24.2686 86.3169C23.275 89.1225 22.9001 91.5896 22.5645 93.7988C22.0477 97.1996 21.6238 99.9892 19.1787 102.461L18.3056 96.144C16.2786 102.815 17.4131 106.02 18.2237 108.309C19.0541 110.655 19.5445 112.04 15.9484 115.209C16.2103 110.562 14.4292 105.024 12.5783 107.754L14.3245 114.458C13.9333 114.803 13.7662 114.105 13.6152 113.475C13.4224 112.671 13.2559 111.976 12.6831 113.7C13.6666 116.277 14.8594 118.8 16.2539 121.252L16.0444 121.161L16.5596 132.128C16.3212 130.829 15.4853 130.815 15.3721 132.687L17.1182 140.619C16.2714 138.19 15.2412 140.675 14.6999 144.241C14.1976 149.306 16.0467 151.359 17.6231 153.108C19.2253 154.887 20.5457 156.352 18.8294 160.35C18.8643 159.772 18.7773 159.435 18.6901 159.098C18.6027 158.76 18.5151 158.421 18.5501 157.837L17.0484 161.916C20.6171 162.344 20.8006 168.358 20.9841 174.372C21.1673 180.377 21.3505 186.382 24.9059 186.82C23.0909 190.489 22.8864 189.681 22.1337 186.706C21.6952 184.973 21.0707 182.506 19.8335 179.759ZM16.6119 133.242C16.6383 132.805 16.6153 132.431 16.5596 132.128L16.6119 133.242ZM253.804 22.2229C253.662 22.1821 253.523 22.1422 253.386 22.1032C253.51 22.1516 253.65 22.1918 253.804 22.2229ZM257.916 22.1597C257.998 22.1383 258.074 22.1104 258.144 22.0765L257.916 22.1597ZM408.275 182.497C408.24 182.564 408.221 182.614 408.21 182.663L408.275 182.497ZM-5.30748 448.123C-5.3131 448.083 -5.3188 448.042 -5.32458 448L-5.36317 448.176C-5.34871 448.163 -5.3341 448.151 -5.31935 448.138C-5.3154 448.133 -5.31144 448.128 -5.30748 448.123ZM122.741 455.691C122.555 455.58 122.361 455.475 122.158 455.374C122.292 455.472 122.484 455.577 122.741 455.691ZM197.675 436.072C197.848 436.108 198.078 436.13 198.357 436.14L197.675 436.072ZM19.5104 361.702C19.5269 361.948 19.5413 362.189 19.5537 362.426C19.5549 362.159 19.5411 361.914 19.5104 361.702ZM20.5581 284.488C20.539 284.386 20.5195 284.286 20.4996 284.188L20.5581 284.488ZM255.829 8.73215C254.561 8.74097 254.683 8.8548 254.92 9.07577C255.025 9.17386 255.153 9.29305 255.193 9.43353C255.335 9.18051 255.551 8.94743 255.829 8.73215ZM16.2061 94.1123L16.206 94.1123C16.0915 93.7007 15.9864 93.3227 15.9088 93C15.7711 93.6341 15.6153 94.206 15.4721 94.7316C14.8831 96.8936 14.5067 98.2752 16.4792 100C17.5283 98.8649 16.7583 96.0972 16.2061 94.1123ZM81 17.5725C79.1327 18.3693 76.2531 17.963 73 17.0864C75.6814 16.8799 78.3866 17.0442 81 17.5725ZM407.143 151.787C407.2 151.853 407.247 151.925 407.284 152C407.483 150.872 407.67 149.943 407.773 149.431C407.829 149.156 407.86 149.001 407.856 149C407.851 148.999 407.787 149.253 407.64 149.834L407.638 149.84C407.525 150.287 407.364 150.925 407.143 151.787ZM405.191 160.303C405.459 161.172 405.726 161.113 406 160.748C405.512 160.149 405.479 158.206 405.626 156C405.118 156.614 404.763 157.724 405.191 160.303Z" fill="white"/>
<path d="M98.497 20.8047C98.1095 20.5468 97.8357 20.1499 97.7322 19.696C97.0305 20.0399 97.0164 20.4328 98.497 20.8047Z" fill="white"/>
<path d="M65.1035 243.137C65.1035 243.235 65.1035 243.326 65.1035 243.417C65.197 243.544 65.3231 243.644 65.4683 243.705L65.1035 243.137Z" fill="white"/>
<path d="M359.443 31.4564C359.506 30.839 359.684 30.239 359.97 29.6881C360.129 29.4352 360.315 29.2 360.524 28.9865C360.25 28.9924 360 29.1416 359.864 29.3794C359.759 29.5445 359.679 29.7242 359.626 29.9127C359.624 29.9454 359.624 29.9782 359.626 30.0109V30.1863L359.584 30.5723C359.485 30.8319 359.457 31.1266 359.443 31.4564Z" fill="white"/>
<path d="M379.617 203.947L379.105 198.628C379.178 200.254 378.94 201.878 378.403 203.414C378.915 203.294 379.575 202.305 379.617 203.947Z" fill="white"/>
<path d="M366.895 250.02C367.148 250.799 366.895 251.669 367.169 252.434L368.116 252.224C368.06 248.919 367.309 246.603 366.895 250.02Z" fill="white"/>
<path d="M372.839 208.845C371.133 209.259 371.702 212.592 372.004 216.318C372.004 216.093 372.004 215.876 372.004 215.658C374.396 216.76 373.617 212.83 372.839 208.845Z" fill="white"/>
<path d="M372.06 217.181C372.14 218.326 372.14 219.475 372.06 220.619C373.049 221.054 372.298 219.223 372.06 217.181Z" fill="white"/>
<path d="M377.386 170.504C376.937 172.265 379.568 171.62 378.866 172.609C381.02 174.595 376.27 160.842 377.386 170.504Z" fill="white"/>
<path d="M367.204 211.841L369.316 210.508L367.625 208.417L367.204 211.841Z" fill="white"/>
<path d="M368.839 182.461L368.235 188.404C368.593 188.313 368.797 189.071 368.937 189.997C369.035 186.334 369.463 182.321 368.839 182.461Z" fill="white"/>
<path d="M368.951 189.997C368.834 191.6 368.948 193.212 369.288 194.783C369.274 193.182 369.162 191.584 368.951 189.997Z" fill="white"/>
<path d="M366.593 203.708L367.043 201.954L367.204 197.751L366.593 203.708Z" fill="white"/>
<path d="M369.435 118.537L368.853 112.046C368.151 111.379 367.681 113.148 367.962 115.555C368.46 117.119 368.734 119.505 369.435 118.537Z" fill="white"/>
<path d="M363.597 138.149C364.047 136.395 364.517 136.276 365.211 135.286L362.601 135.083L363.597 138.149Z" fill="white"/>
<path d="M363.043 119.217C362.341 118.572 360.994 109.794 361.134 118.017C361.85 118.684 362.432 125.182 363.043 119.217Z" fill="white"/>
<path d="M366.643 22.0256V23.5483C368.074 22.8747 369.505 22.173 370.937 21.4432C369.491 21.5144 368.055 21.7093 366.643 22.0256Z" fill="white"/>
<path d="M289.337 25.071C297.055 26.1025 291.168 22.4257 298.115 23.7098C299.918 22.6923 292.431 22.6642 294.284 21.7871C289.646 22.8537 287.204 22.2502 289.337 25.071Z" fill="white"/>
<path d="M294.284 21.787C295.085 21.6092 295.876 21.3914 296.655 21.1344C295.843 21.2609 295.047 21.4798 294.284 21.787Z" fill="white"/>
<path d="M352.89 456.08L357.844 456.957L354.644 455.526L352.89 456.08Z" fill="white"/>
<path d="M362.376 452.873L363.548 455.617L366.516 453.14C365.401 453.252 363.233 453.512 362.376 452.873Z" fill="white"/>
<path d="M68.233 79.5084L67.5734 79.1295C66.8717 79.8944 66.8086 81.0522 66.6963 83.3397L68.233 79.5084Z" fill="white"/>
<path d="M66.1839 146.59L66.24 145.44L63.77 147.594L66.1839 146.59Z" fill="white"/>
<path d="M69.3346 202.88C69.4399 200.586 68.8855 197.884 68.9908 195.576C69.4679 200.586 66.2542 203.505 69.3346 202.88Z" fill="white"/>
<path d="M217.364 61.1942V256.883C217.364 266.126 209.871 273.618 200.628 273.618H101.619C92.3847 273.607 84.9048 266.117 84.9048 256.883V61.1942C84.9048 51.9514 92.3975 44.4587 101.64 44.4587H200.649C209.884 44.4704 217.364 51.9597 217.364 61.1942Z" fill="#0D0E56"/>
<path d="M222.276 56.2262V251.915C222.276 261.158 214.783 268.65 205.54 268.65H106.531C97.2968 268.639 89.8169 261.149 89.8169 251.915V56.2262C89.8285 46.9999 97.305 39.5234 106.531 39.5118H205.54C214.775 39.5118 222.264 46.9917 222.276 56.2262Z" fill="#F3F6FF"/>
<path d="M157.369 159.74C174.545 159.74 188.468 146.128 188.468 129.336C188.468 112.544 174.545 98.9314 157.369 98.9314C140.194 98.9314 126.27 112.544 126.27 129.336C126.27 146.128 140.194 159.74 157.369 159.74Z" fill="#ADFFEF"/>
<path d="M324.057 318.078C341.232 318.078 355.156 304.154 355.156 286.979C355.156 269.803 341.232 255.88 324.057 255.88C306.881 255.88 292.958 269.803 292.958 286.979C292.958 304.154 306.881 318.078 324.057 318.078Z" fill="#ADFFEF"/>
<path d="M163.074 356.776L176.637 363.884C181.82 354.708 186.244 345.124 189.864 335.227C191.878 329.726 193.534 324.428 194.896 319.418L176.932 305.763C172.315 322.763 167.696 339.767 163.074 356.776Z" fill="#0D0E56"/>
<path d="M222.276 237.032V251.915C222.276 261.158 214.783 268.65 205.54 268.65H106.531C97.2968 268.639 89.8169 261.149 89.8169 251.915V237.032H222.276Z" fill="#9F9DED"/>
<path d="M265.655 316.681C267.236 313.81 268.128 310.61 268.258 307.335L262.56 302.725L254.273 296.038L237.706 282.663C226.098 281.037 214.403 280.1 202.684 279.856C178.567 279.337 159.453 278.923 155.187 287.772C153.418 291.441 153.783 297.532 165.081 312.71C175.339 326.512 193.801 346.742 226.128 364.284L241.439 362.692C239.334 358.825 236.183 353.156 232.268 346.349C226.654 336.574 223.848 331.684 221.742 328.758C217.42 322.639 208.796 313.854 190.3 307.903C199.246 314.356 209.141 319.379 219.63 322.793C225.185 324.647 230.887 326.025 236.675 326.912C243.804 327.951 251.831 328.428 258.189 324.442C261.3 322.536 263.871 319.864 265.655 316.681Z" fill="#472FC8"/>
<path d="M245.635 231.643C248.933 225.77 256.806 211.736 269.9 210.248C280.685 209.027 291.133 216.753 295.786 223.538C307.778 241.004 296.789 274.762 268.258 307.3L234.479 283.961C234.932 274.166 236.19 264.424 238.24 254.834C240.443 244.491 241.755 238.562 245.635 231.643Z" fill="#00BEA1"/>
<path d="M229.244 286.67C232.528 287.736 245.088 291.357 258.49 285.266C271.661 279.274 276.959 267.836 279.218 263.016C286.158 248.217 283.646 234.457 282.594 229.854L229.244 286.67Z" fill="#0D0E56"/>
<path d="M187.409 220.282L195.127 213.918C195.787 219.265 198.973 240.323 215.624 250.799C219.132 252.995 226.69 257.76 234.45 255.423C241.081 253.431 245.137 247.059 247.425 243.495C249.116 240.842 249.221 238.681 252.091 233.523C254.568 229.082 255.95 227.643 256.912 226.78C259.175 224.706 261.939 223.255 264.932 222.57C270.889 221.328 277.345 223.63 280.615 227.117C288.088 235.074 281.766 252.189 276.756 260.798C268.026 275.737 248.982 289.238 229.237 286.712C204.004 283.449 182.146 254.644 187.409 220.282Z" fill="#00BEA1"/>
<path d="M246.014 371.049C246.628 372.901 246.749 374.882 246.365 376.795L196.79 378.466C197.041 377.087 197.656 375.8 198.572 374.74C200.362 372.74 202.916 372.249 206.635 371.933C216.844 371.119 220.57 373.034 224.5 370.445C225.907 369.487 227.056 368.198 227.847 366.691L241.825 365.407C243.779 366.801 245.244 368.775 246.014 371.049Z" fill="#0D0E56"/>
<path d="M176.624 373.21C176.897 374.092 176.897 375.036 176.624 375.918C176.169 377.046 175.278 377.942 174.154 378.402L127.842 370.887C128.686 369.05 130.031 367.489 131.722 366.382C133.399 365.33 135.855 364.544 143.363 365.618C152.485 366.916 154.759 368.908 157.755 367.379C159.264 366.6 161.158 364.832 162.218 360.214L175.992 366.902C175.368 367.754 175.077 368.804 175.171 369.856C175.347 371.414 176.182 371.617 176.624 373.21Z" fill="#0D0E56"/>
<path d="M268.202 204.2C278.642 204.2 287.105 195.736 287.105 185.296C287.105 174.856 278.642 166.392 268.202 166.392C257.761 166.392 249.298 174.856 249.298 185.296C249.298 195.736 257.761 204.2 268.202 204.2Z" fill="#472FC8"/>
<rect x="133.132" y="47.6726" width="45.8137" height="4.06983" rx="2.03492" fill="#B9BACE"/>
<path d="M156.036 260.419C160.864 260.419 164.779 256.505 164.779 251.676C164.779 246.848 160.864 242.933 156.036 242.933C151.207 242.933 147.292 246.848 147.292 251.676C147.292 256.505 151.207 260.419 156.036 260.419Z" fill="#5E5FA8"/>
<path d="M326.071 232.478C318.829 227.096 307.56 231.383 301.357 236.45C293.491 242.87 291.21 253.501 287.786 262.553C282.264 277.183 272.819 289.919 259.718 298.725C253.192 303.097 245.362 305.973 237.418 305.63C229.124 305.272 220.079 301.777 212.445 306.387C205.772 310.415 201.295 317.13 198.13 324.112C195.913 329.024 217.245 339.606 220.458 341.276C242.562 352.762 268.019 348.994 287.821 334.589C307.953 319.951 321.755 296.95 329.825 273.773C334.238 261.142 338.813 241.93 326.071 232.478Z" fill="#9F9DED"/>
<path d="M159.558 176.16C176.466 176.16 190.173 175.387 190.173 174.434C190.173 173.48 176.466 172.708 159.558 172.708C142.65 172.708 128.943 173.48 128.943 174.434C128.943 175.387 142.65 176.16 159.558 176.16Z" fill="#B9BACE"/>
<path d="M189.647 296.767C196.474 299.908 202.511 304.538 207.316 310.317C206.343 306.774 204.34 303.599 201.562 301.195C198.227 298.377 194.013 296.811 189.647 296.767L189.647 296.767Z" fill="#0D0E56"/>
<path d="M318.857 374.171L178.988 379.237L81.2422 362.86L181.5 390.156L318.857 374.171Z" fill="#5E5FA8"/>
<rect x="127.68" y="203.912" width="56.711" height="16.8407" rx="8.42034" fill="#9F9DED"/>
<path d="M177.529 194.327C178.195 193.316 185.991 195.688 190.784 201.652C193.521 205.171 195.078 209.463 195.233 213.918C195.813 216.384 194.725 218.942 192.545 220.233C190.955 221.005 189.101 221.017 187.5 220.268C186.437 220.116 185.453 219.623 184.693 218.865C183.458 217.532 183.879 215.939 182.707 212.837C182.437 212.14 182.128 211.458 181.781 210.796C182.63 215.181 182.097 215.644 181.893 215.707C181.367 215.904 180.371 214.557 178.785 212.423C177.297 210.41 176.553 209.406 176.406 208.697C175.662 204.95 182.904 200.796 183.22 200.621C178.231 196.334 177.192 194.804 177.529 194.327Z" fill="#0D0E56"/>
<path d="M277.724 210.824C276.074 213.211 274.059 215.323 271.752 217.083C265.521 221.798 256.673 224.191 255.143 221.953C254.603 221.16 254.743 219.448 257.873 215.371C263.37 210.745 270.761 209.052 277.724 210.824Z" fill="#0D0E56"/>
<path d="M160.056 299.272C162.329 298.271 163.804 296.03 163.824 293.546C163.743 292.123 163.15 290.778 162.154 289.757C162.511 293.074 161.772 296.416 160.049 299.272H160.056Z" fill="#0D0E56"/>
</svg>
