<svg width="389" height="457" viewBox="0 0 389 457" fill="none" xmlns="http://www.w3.org/2000/svg">
<path d="M387.773 445.737L20.2725 446.439V13.6965H389.272L387.773 445.737Z" fill="white"/>
<path d="M351.515 444.025C351.354 446.221 353.122 445.428 353.438 445.772C353.059 442.081 351.059 444.116 351.515 444.025Z" fill="white"/>
<path d="M347.621 407.649L348.337 408.295L346.589 402.927L347.621 407.649Z" fill="white"/>
<path d="M347.754 373.645C344.737 376.852 348.203 385.967 347.116 392.022L346.414 393.019L348.821 395.755C348.477 388.395 346.898 378.823 347.754 373.645Z" fill="white"/>
<path d="M354.308 355.534C353.136 356.65 353.312 351.605 353.929 359.744C354.013 359.483 354.113 359.227 354.231 358.98C354.21 358.257 354.217 357.246 354.308 355.534Z" fill="white"/>
<path d="M353.606 342.455L354.638 347.177C355.34 346.188 355.501 341.992 355.999 343.556C355.438 338.715 354.75 339.704 353.606 342.455Z" fill="white"/>
<path d="M351.424 337.978L351.859 340.42C352.154 339.992 352.252 339.346 351.424 337.978Z" fill="white"/>
<path d="M352.778 345.605L351.859 340.42C351.375 341.121 350.4 341.17 352.189 342.798C351.305 342.377 352.154 343.402 352.778 345.605Z" fill="white"/>
<path d="M352.316 348.538C351.614 351.184 351.228 354.601 350.21 349.865C350.589 358.888 352.708 357.569 352.316 348.538Z" fill="white"/>
<path d="M344.653 371.898L343.762 375.406L344.758 378.466C344.267 376.964 345.593 371.68 344.653 371.898Z" fill="white"/>
<path d="M355.248 313.075C354.61 312.78 353.543 314.653 352.722 315.004L353.424 318.513C353.915 316.681 354.301 313.306 355.248 313.075Z" fill="white"/>
<path d="M352.722 315.004L351.642 309.791C351.494 314.443 352.014 315.278 352.722 315.004Z" fill="white"/>
<path d="M348.091 337.122L350.372 345.696L348.07 335.473L348.091 337.122Z" fill="white"/>
<path d="M355.389 293.168L356.863 296.122L354.638 290.852L355.389 293.168Z" fill="white"/>
<path d="M355.171 279.955C356.385 282.151 357.276 276.965 357.978 279.253C357.69 276.027 356.954 272.858 355.789 269.836C356.329 272.797 356.182 275.92 355.171 279.955Z" fill="white"/>
<path d="M354.441 265.226C354.814 266.799 355.282 268.348 355.845 269.864C355.567 268.267 355.096 266.709 354.441 265.226Z" fill="white"/>
<path d="M351.985 300.907C352.371 300.507 353.389 299.735 353.824 296.809L352.013 298.858C352.006 299.483 351.992 300.191 351.985 300.907Z" fill="white"/>
<path d="M351.957 298.929L352.014 298.858C352.07 296.634 352.112 295.09 352.133 294.431C352.105 294.999 352.056 296.332 351.957 298.929Z" fill="white"/>
<path d="M351.972 301.427V300.907C351.81 301.104 351.747 301.244 351.972 301.427Z" fill="white"/>
<path d="M349.761 323.467C348.765 320.4 347.705 314.008 346.154 320.183C347.375 322.386 348.259 318.85 349.761 323.467Z" fill="white"/>
<path d="M349.705 303.967L349.277 309.503C349.747 309.391 350.449 308.394 350.94 309.917L349.705 303.967Z" fill="white"/>
<path d="M349.151 301.251L349.719 303.967L349.874 301.911L349.151 301.251Z" fill="white"/>
<path d="M352.737 274.706C351.958 272.313 351.902 269.696 351.782 266.742C351.416 269.912 351.227 273.1 351.214 276.292C351.81 276.734 352.786 278.088 352.737 274.706Z" fill="white"/>
<path d="M352.196 286.508C352.196 286.34 352.14 286.13 352.098 285.975C351.943 286.27 351.894 286.508 352.196 286.508Z" fill="white"/>
<path d="M351.88 237.649C351.782 237.811 351.656 237.951 351.551 238.113C351.658 238.144 351.764 238.181 351.866 238.225L351.88 237.649Z" fill="white"/>
<path d="M350.877 276.825C350.567 278.571 350.787 280.37 351.509 281.99C351.333 280.207 351.221 278.32 351.214 276.292C350.961 276.095 350.793 276.06 350.877 276.825Z" fill="white"/>
<path d="M353.627 257.107C353.249 258.349 352.926 259.753 352.624 261.233C353.213 260.019 354.098 257.549 353.627 257.107Z" fill="white"/>
<path d="M352.596 285.147C352.63 285.265 352.656 285.384 352.673 285.505C353.066 284.719 352.877 284.817 352.596 285.147Z" fill="white"/>
<path d="M352.596 285.147C352.337 284.062 351.973 283.004 351.508 281.99C351.626 283.319 351.822 284.641 352.098 285.947C352.226 285.659 352.394 285.39 352.596 285.147Z" fill="white"/>
<path d="M340.358 228.794C342.021 229.222 343.544 235.488 341.762 240.884C342.997 246.203 348.491 242.744 351.586 238.077C350.884 237.909 350.182 237.909 349.221 232.464C348.302 234.373 347.053 244.596 345.558 239.972C344.723 232.724 346.168 234.036 347.06 230.52C344.955 233.502 344.063 221.286 341.004 222.858L342.057 229.215C341.551 229.341 340.793 227.033 340.358 228.794Z" fill="white"/>
<path d="M351.354 248.54L351.55 250.792C351.852 248.224 352.519 246.386 353.838 243.01C353.031 239.263 352.435 238.484 351.866 238.225L351.6 249.319L351.354 248.54Z" fill="white"/>
<path d="M351.53 260.897C349.719 259.135 348.962 253.725 346.99 257.03C347.095 263.64 348.491 261.668 349.27 265.619C348.849 254.953 350.267 268.685 351.319 260.981C351.576 262.892 351.73 264.815 351.782 266.742C352.007 264.826 352.288 262.974 352.624 261.233C352.593 261.315 352.555 261.395 352.512 261.472V261.521C352.288 261.977 352.147 262.132 352.281 261.612C352.268 261.538 352.268 261.462 352.281 261.388C352.008 261.29 351.766 261.123 351.579 260.904C351.965 257.823 352.056 260.419 352.281 261.388C352.365 261.388 352.449 261.507 352.547 261.521V261.479L351.586 250.799C351.291 253.052 351.333 255.879 351.53 260.897Z" fill="white"/>
<path d="M342.267 314.471C342.429 314.141 342.562 314.155 342.688 314.134C342.471 313.44 342.316 313.173 342.267 314.471Z" fill="white"/>
<path d="M343.39 310.085C343.642 310.864 344.365 311.489 344.169 314.036C343.621 316.225 343.299 314.036 342.702 314.134C343.179 315.657 343.993 319.46 344.884 314.696L344.639 313.938C345.277 309.636 347.558 304.114 347.803 304.872C345.943 306.239 344.431 308.025 343.39 310.085Z" fill="white"/>
<path d="M346.989 285.182L346.126 276.285L344.541 280.811L345.488 280.586C345.102 285.638 346.267 284.551 346.989 285.182Z" fill="white"/>
<path d="M352.786 236.632L354.701 237.818L352.007 232.667L352.786 236.632Z" fill="white"/>
<path d="M352.589 225.075L354.259 225.503L353.262 222.451L352.589 225.075Z" fill="white"/>
<path d="M38.2719 140.359L38.7491 142.977C38.661 142.093 38.5014 141.218 38.2719 140.359Z" fill="white"/>
<path d="M38.3913 121.442L37.5703 120.979C38.0194 121.849 38.3562 122.214 38.3913 121.442Z" fill="white"/>
<path d="M270.007 3.21315C266.196 1.65539 261.944 -0.758439 262.407 1.10807L263.572 2.93949C265.716 2.64586 267.895 2.73854 270.007 3.21315Z" fill="white"/>
<path d="M75.5879 14.1176L76.6966 14.6719L79.2718 12.9247C78.1491 13.3036 76.9071 13.6965 75.5879 14.1176Z" fill="white"/>
<path d="M72.9004 21.6748L67.8833 20.496C69.5163 21.041 71.1956 21.4356 72.9004 21.6748Z" fill="white"/>
<path d="M40.2085 243.705L42.075 246.75C42.061 241.979 41.1207 244.077 40.2085 243.705Z" fill="white"/>
<path d="M352.266 106.685C352.888 103.993 353.266 101.25 353.396 98.4893C352.337 102.447 350.751 105.633 352.266 106.685Z" fill="white"/>
<path d="M18.8911 132.914C19.2209 134.514 19.5928 135.195 19.9998 135.153C19.691 133.539 19.3402 132.571 18.8911 132.914Z" fill="white"/>
<path d="M353.417 89.0024C353.235 89.5848 353.136 90.1532 352.982 90.7426C353.346 93.2984 353.485 95.8812 353.396 98.4613C354.189 95.5703 354.68 92.2232 353.417 89.0024Z" fill="white"/>
<path d="M200.307 435.626C200.581 435.71 200.904 435.745 201.156 435.843C201.233 435.598 200.861 435.584 200.307 435.626Z" fill="white"/>
<path d="M309.533 453.814C308.46 453.933 306.726 453.94 305.049 453.968C306.545 454.091 308.05 454.039 309.533 453.814Z" fill="white"/>
<path d="M346.267 190.467C346.063 189.948 345.804 189.548 345.383 189.485C345.797 189.681 346.116 190.035 346.267 190.467Z" fill="white"/>
<path d="M342.12 64.5483V64.3378C341.769 65.0675 341.839 64.9412 342.12 64.5483Z" fill="white"/>
<path d="M352.687 182.251C352.925 181.228 353.101 180.193 353.214 179.149C352.977 180.172 352.801 181.207 352.687 182.251Z" fill="white"/>
<path d="M353.55 181.76C353.466 182.602 353.417 183.268 353.368 183.865C353.669 184.208 353.859 183.942 353.55 181.76Z" fill="white"/>
<path d="M353.438 175.15C353.449 176.486 353.374 177.822 353.214 179.149C353.34 178.665 353.445 178.448 353.508 178.595C353.501 177.851 353.466 176.834 353.438 175.15Z" fill="white"/>
<path d="M33.8092 417.676C33.7613 417.855 33.7027 418.031 33.6338 418.203C34.3986 420.673 34.2723 419.592 33.8092 417.676Z" fill="white"/>
<path d="M206.201 22.18C206.314 22.18 206.377 22.1168 206.482 22.0958L206.117 22.0256L206.201 22.18Z" fill="white"/>
<path d="M197.395 23.5413C201.142 21.2678 203.275 21.5485 206.117 22.0257L203.205 16.7629L197.395 23.5413Z" fill="white"/>
<path fill-rule="evenodd" clip-rule="evenodd" d="M27.4577 179.783L25.5789 185.967C25.4791 184.959 25.4994 184.017 25.5196 183.076C25.5498 181.671 25.58 180.268 25.2096 178.653C22.6292 186.218 25.4627 193.362 27.2451 197.857C27.376 198.187 27.5012 198.503 27.6183 198.803C27.2656 199.968 26.4852 199.915 25.7052 199.862C24.4077 199.773 23.1115 199.685 23.7885 205.204C24.507 212.228 25.9175 210.595 27.1564 209.162C28.1186 208.048 28.9774 207.054 29.3284 210.328L26.0285 215.816C27.9006 222.722 27.2121 228.373 26.5242 234.018C26.2592 236.193 25.9943 238.367 25.876 240.612C26.149 242.437 26.5023 243.335 26.8635 243.777C26.0819 248.372 27.083 253.205 28.0136 257.697C28.8228 261.603 29.5787 265.252 29.0634 268.264C28.6235 267.31 27.8842 269.025 27.1966 270.62C26.7924 271.558 26.406 272.454 26.1088 272.742L28.1539 284.11C27.3992 280.106 25.9709 279.548 24.4585 278.957C24.1354 278.83 23.8084 278.703 23.4834 278.539C23.5991 280.642 24.0025 282.106 24.3714 283.445C24.6427 284.43 24.8954 285.347 25.0009 286.4C24.3425 284.884 23.6119 283.347 22.7367 285.277L25.9483 297.545C26.2897 296.466 26.4731 295.353 26.4942 294.233C26.5004 295.02 26.587 296.042 26.6851 297.2C26.9693 300.556 27.3507 305.058 26.157 308.319C25.7819 308.123 25.4206 307.654 25.0595 307.185C24.694 306.71 24.3287 306.235 23.9491 306.045C25.9941 302.516 24.4097 300.449 22.9956 298.604C22.933 298.522 22.8707 298.44 22.809 298.359C22.9992 303.251 22.8034 303.194 22.3377 303.061C21.9975 302.963 21.5132 302.824 20.9303 304.543C21.0025 310.508 23.6199 312.958 25.2257 311.393C25.1611 311.975 25.0983 312.524 25.0388 313.044C24.4099 318.537 24.1426 320.873 25.9322 327.156L23.2907 325.851L24.0936 332.167L20.8821 327.037C20.0136 332.976 21.082 333.636 22.2241 334.342C23.4156 335.078 24.6875 335.864 23.925 342.744H21.6047C21.9424 344.709 22.7148 346.186 23.3923 347.481C24.5026 349.604 25.3582 351.24 23.6279 353.742C24.2442 355.949 24.9515 354.563 25.5915 353.31C26.4107 351.705 27.1195 350.317 27.3854 356.956C26.1811 359.041 25.306 363.532 24.8403 366.929C25.7738 370.359 27.2638 365.183 27.2883 362.397C27.6539 370.59 25.7845 373.315 24.1133 375.751C22.3408 378.335 20.7913 380.594 22.3674 388.707C23.049 386.476 23.9232 386.825 24.7143 387.14C25.8615 387.598 26.8341 387.986 26.7913 380.335C27.4367 383.155 26.7975 385.934 26.1534 388.733C25.3874 392.063 24.6144 395.423 25.9884 398.919L23.0258 394.708C22.9812 396.544 23.6478 398.56 24.1061 399.947C24.2261 400.31 24.3318 400.629 24.4067 400.891L22.1185 400.365C24.0381 404.167 23.6868 407.716 23.3716 410.901C23.0276 414.376 22.7265 417.418 25.4665 419.883C23.1446 418.055 23.5118 420.172 23.991 422.937C24.3636 425.086 24.8039 427.626 24.1016 429.007C22.744 425.975 22.658 421.736 22.5815 417.966C22.4924 413.577 22.4163 409.824 20.3602 409.356C19.7778 410.89 19.9635 412.342 20.1475 413.782C20.3288 415.2 20.5085 416.606 19.9507 418.065C19.3887 416.009 18.4092 413.019 17.6063 412.233C16.6947 416.355 16.8538 420.602 18.072 424.663C18.4384 425.933 18.8526 427.136 19.2538 428.3C19.3977 428.718 19.54 429.131 19.6778 429.541L19.8704 430.123L19.9668 430.411L20.015 430.551V430.642L20.3602 431.344C20.5686 431.782 20.7404 432.232 20.8741 432.692C20.8419 432.442 20.8097 432.21 20.7775 431.978L20.7774 431.978L20.7774 431.978L20.7773 431.977C20.6647 431.167 20.551 430.349 20.4325 428.712L19.9989 423.322C21.9017 423.757 22.0623 424.972 22.1265 426.452C22.1221 427.242 22.1946 428.031 22.3433 428.811C22.4313 429.229 22.5769 429.637 22.7769 430.025L22.9455 430.32C22.963 430.345 22.9806 430.374 22.9983 430.404C23.0454 430.484 23.0937 430.565 23.1462 430.565C23.3 430.667 23.4639 430.756 23.636 430.832C23.1808 431.404 22.9244 432.079 22.8973 432.776C22.8811 433.333 22.9734 433.888 23.1703 434.418C23.2204 434.572 23.2728 434.716 23.3233 434.855C23.6047 435.63 23.8297 436.249 23.2988 437.535C23.3067 437.252 23.2253 437.167 23.1414 437.08C23.0567 436.991 22.9696 436.901 22.9696 436.601C22.9708 437.338 22.8901 438.074 22.7287 438.798C23.5869 439.036 24.3647 439.455 24.9928 440.019C25.3579 440.33 25.7093 440.667 26.0677 441.011L26.0683 441.012C26.3246 441.258 26.5845 441.507 26.8555 441.753C28.1241 442.925 29.6576 443.984 31.6166 444.027C32.2918 444.081 32.9701 444.1 33.6479 444.083C34.4508 444.069 35.2537 444.027 36.0565 443.956C37.5975 443.832 39.1267 443.614 40.633 443.304C43.3146 442.714 44.8963 441.9 43.0978 441.198C44.4658 440.899 43.15 440.895 40.9785 440.889H40.9774C39.7335 440.885 38.2088 440.881 36.747 440.819C35.7354 440.777 34.7559 440.714 33.9048 440.602C33.5182 440.549 33.135 440.478 32.7567 440.391C32.6244 440.365 32.5056 440.331 32.3901 440.297L32.3477 440.285C32.3234 440.278 32.2992 440.271 32.275 440.265C32.1868 440.22 32.1035 440.168 32.0261 440.11C31.7534 439.889 31.6476 439.552 31.7531 439.24C31.8136 439.029 31.9054 438.826 32.0261 438.636C32.0948 438.507 32.184 438.386 32.291 438.279C32.4757 438.159 32.6844 438.026 32.9253 437.892C36.8332 440.43 40.8449 439.895 46.0442 439.201C51.0677 438.53 57.1998 437.711 65.4179 439.373C61.6115 440.305 62.9324 441.027 64.1548 441.696C65.2814 442.312 66.3244 442.882 63.1939 443.528C69.7764 443.186 71.1161 442.604 73.3816 441.62C73.8573 441.413 74.3738 441.189 74.9883 440.945L77.3969 442.504C81.2224 441.209 82.5605 440.447 83.5104 439.906C85.1402 438.978 85.627 438.701 95.5741 437.499C92.8029 438.159 94.6875 438.746 96.5186 439.316C98.173 439.83 99.7838 440.332 97.8784 440.861C101.876 441.002 105.871 440.551 109.697 439.528L109.119 439.759C116.61 439.364 119.944 439.769 122.879 440.126C126.192 440.528 128.997 440.869 136.698 439.928L135.253 438.994C146.619 437.454 159.786 437.405 172.744 437.356H172.745H172.745H172.746H172.746C181.461 437.323 190.082 437.29 197.998 436.805L191.686 436.115C192.672 436.155 194.33 436.025 196.317 435.868C200.658 435.527 206.57 435.062 210.466 435.983C210.06 436.016 209.555 436.084 209.02 436.156C207.941 436.301 206.738 436.463 205.97 436.384C206.155 437.436 208.54 438.994 213.277 439.247L215.091 437.64L217.01 438.882C220.611 438.889 220.082 438.318 219.551 437.745C219.018 437.171 218.484 436.594 222.1 436.594C224.277 438.968 232.49 439.036 240.781 439.105C248.543 439.169 256.374 439.233 259.386 441.191C261.895 439.465 258.251 439.383 254.822 439.305C251.558 439.23 248.489 439.161 251.108 437.682C251.639 437.807 252.098 437.938 252.556 438.069C253.999 438.481 255.426 438.889 258.985 439.086L257.379 437.092C265.05 437.477 271.054 437.935 276.459 438.347L276.461 438.347L276.462 438.347L276.462 438.347H276.463C286.437 439.107 294.369 439.711 306.965 439.415L306.162 439.844C313.075 440.609 316.808 440.237 319.891 438.503C320.568 438.94 319.834 439.279 319.139 439.6C318.35 439.964 317.61 440.305 319.04 440.742C325.742 437.911 332.444 439.316 338.353 440.554C343.183 441.566 347.482 442.467 350.818 440.854C350.392 442.653 353.32 444.406 356.109 446.078C359.579 448.157 362.837 450.108 359.16 451.859L364.154 451.368C363.329 452.685 359.494 452.722 355.479 452.76C351.368 452.798 347.07 452.839 345.624 454.259L329.863 451.501C330.055 451.877 329.789 452.329 329.535 452.762C329.128 453.453 328.749 454.097 330.305 454.309C326.419 454.365 323.014 454.54 328.121 455.944C306.706 452.128 284.971 452.621 263.388 453.11C247.021 453.481 230.741 453.85 214.754 452.336C212.254 452.582 213.689 453.512 214.652 454.137L214.658 454.14C210.266 452.494 208.823 453.523 207.362 454.566C206.549 455.145 205.731 455.729 204.397 455.86L194.401 452.182C191.575 452.955 192.259 453.735 192.833 454.388C193.082 454.672 193.311 454.932 193.221 455.158C184.922 455.496 176.717 455 168.83 454.523C158.739 453.913 149.168 453.334 140.584 454.575C138.291 453.956 138.403 453.26 138.502 452.651C138.613 451.963 138.707 451.385 135.301 451.15C140.068 453.228 134.068 453.585 128.528 453.914C124.338 454.163 120.412 454.396 121.606 455.346C118.813 453.841 114.36 453.484 110.352 453.162H110.351C104.866 452.721 100.214 452.347 101.788 449.192C94.0808 448.869 95.4216 451.606 97.6375 452.105C88.7095 451.908 81.4916 451.894 74.1934 453.677C72.4187 453.212 66.7213 453.271 59.7584 453.343H59.756H59.7533H59.7502H59.7468C56.9478 453.372 53.9447 453.403 50.9098 453.403C45.6108 453.403 40.2235 453.319 35.6551 452.961C34.515 452.877 33.4231 452.772 32.3954 452.645L30.4524 452.442C29.8182 452.371 29.208 452.294 28.6379 452.21C26.8817 452.036 25.1717 451.604 23.5798 450.933C25.0089 451.635 25.7475 452.056 25.876 452.336C26.0045 452.617 25.4184 452.75 24.3987 452.828C23.7787 452.878 23.0067 452.912 22.1173 452.951C20.0584 453.04 17.3706 453.157 14.4831 453.579C16.2735 454.467 18.1145 455.275 19.9989 456L3.29095 455.789V454.498C3.01797 451.466 3.1384 450.434 3.38729 450.287C3.36397 449.491 3.70162 448.719 4.32666 448.139C4.80036 447.501 5.34632 446.301 5.69959 442.988C5.77988 437.977 5.44267 435.527 4.89671 433.422C4.63176 432.404 4.31061 431.471 3.96537 430.474C3.51883 429.711 3.11687 428.929 2.76105 428.13L2.35158 429.204L2.08663 424.452C2.11563 423.304 2.42436 424.244 2.87629 425.62C3.80041 428.434 5.32329 433.071 6.27767 425.407C5.53902 425.245 1.86985 418.536 3.86902 415.476C3.71647 421.301 5.67551 420.564 6.47839 418.423L6.67911 410.254L3.15446 412.956C3.24126 402.409 3.79889 391.67 4.36502 380.767C5.05564 367.467 5.7589 353.923 5.63536 340.189C7.02221 340.344 7.19386 336.779 7.37512 333.015C7.59681 328.411 7.83287 323.509 10.3242 324.749L9.89063 325.71C10.3402 331.851 13.4715 323.928 12.9657 318.937C12.3547 321.145 11.448 319.811 10.5539 318.496C9.33334 316.7 8.13622 314.939 7.74694 322.271L5.60325 312.445C0.521759 309.258 1.62905 300.851 2.86786 291.445C3.74884 284.756 4.69634 277.561 3.53181 271.381C3.86902 272.426 4.32666 272.7 4.59964 272.833C2.8875 264.707 4.16519 255.37 5.08214 248.669C5.65725 244.466 6.09045 241.3 5.55507 240.121L7.96372 238.942C4.29455 227.642 3.98143 226.301 5.46676 212.819C5.56609 212.861 5.68087 212.979 5.80483 213.107C6.2019 213.517 6.69316 214.024 7.07252 212.419C5.30618 209.176 3.53984 205.913 4.0296 196.684L4.78431 197.063L4.38287 182.626C7.91285 182.676 7.02429 176.993 6.02235 170.584C4.93456 163.626 3.71312 155.813 7.86737 153.556C6.39282 151.622 5.61204 146.053 4.93591 141.231C4.6254 139.016 4.33697 136.959 4.01354 135.483C4.32666 135.448 4.65585 135.153 5.00108 134.374C2.5075 130.874 3.66122 125.416 4.73801 120.323C5.36701 117.347 5.96976 114.496 5.80397 112.231C4.86459 108.231 3.60407 109.957 2.34355 111.705C4.2621 106.858 2.52146 99.7434 1.18832 94.2941C0.345663 90.8496 -0.334182 88.0707 0.175767 86.9509C0.371456 83.228 1.48869 83.3915 2.68851 83.5672C3.35932 83.6654 4.05594 83.7673 4.63176 83.196C4.30772 79.1978 2.85192 79.2218 1.67674 79.2412C0.318678 79.2636 -0.664644 79.2799 0.906389 73.0755C0.982427 73.4027 1.05562 73.797 1.12908 74.1926C1.35813 75.4264 1.58975 76.674 1.91802 75.946C2.17394 74.1156 3.7741 71.6886 5.44096 69.1605C7.80064 65.5816 10.294 61.8 9.2965 59.2211L7.97175 62.1267C7.08092 58.342 8.35515 53.9042 9.43912 50.1291C10.6608 45.8744 11.6408 42.4613 9.00746 41.7733L6.69516 42.5313C8.22867 35.5901 7.99583 34.1163 7.72285 32.6213L7.69374 32.4545C7.63764 32.1346 7.57919 31.8014 7.53819 31.4071C7.49002 31.1755 7.49002 30.9229 7.49002 30.6421V30.1649V29.463C7.63191 26.453 7.95889 23.4518 8.46953 20.4725L8.84689 20.8444C8.74286 18.8346 8.82609 16.8207 9.09578 14.8226C9.33739 13.3884 9.47149 11.9418 9.49722 10.4923C11.384 10.4502 12.5723 10.0571 13.2065 8.81488L9.56948 8.37272C15.3021 8.24639 18.5939 8.23937 21.8054 8.2885L33.7121 8.5201C34.7559 8.21129 39.0433 7.70597 40.2797 8.40781C40.6332 6.04097 56.3303 6.87904 62.7788 7.22333C63.654 7.27005 64.3588 7.30768 64.8318 7.32697C58.6627 7.67172 60.4683 8.59964 62.3488 9.56606L62.3489 9.56614C62.6123 9.70148 62.8771 9.83757 63.1217 9.97292C67.2645 7.76913 70.1228 7.54455 75.8554 9.13071C76.6743 5.77591 77.8224 2.19652 89.127 2C88.6722 2.13012 88.1519 2.24535 87.6496 2.35659C86.2011 2.67736 84.9024 2.96498 85.7549 3.48088C86.8979 4.17264 89.5133 3.42438 90.4078 3.16843L90.4196 3.16506C90.9371 3.47944 90.4582 3.76302 89.9067 4.08954C89.2518 4.47738 88.4945 4.9258 89.1832 5.55833C93.6564 3.68123 97.4174 3.92431 101.985 4.21956C105.223 4.42879 108.866 4.66423 113.454 4.18974C110.911 4.91195 111.832 5.45473 113.008 6.14817C113.444 6.40491 113.914 6.68231 114.257 6.99711C114.687 5.09562 118.472 5.9211 121.626 6.6088C124.782 7.29686 127.305 7.84699 125.2 5.38989C135.754 6.82147 149.081 6.90913 160.958 6.98725C173.479 7.0696 184.389 7.14136 188.741 8.76575C190.165 9.62506 193.056 9.07666 195.945 8.52856C197.68 8.19925 199.416 7.87004 200.832 7.84634L200.318 9.51672C205.766 7.95703 207.784 7.70719 210.163 7.4126C212.398 7.13585 214.952 6.81961 220.968 5.34076C215.822 7.32697 217.973 8.23937 223.152 9.81149L231.687 6.41458L233.349 8.99034C236.809 7.99141 240.661 8.3775 244.525 8.77966C246.479 7.15675 251.71 6.54997 256.218 6.02713C259.546 5.64125 262.478 5.30109 263.408 4.6319C265.357 6.41379 267.979 6.14439 270.452 5.89046C272.819 5.6473 275.048 5.41832 276.415 7.01816C277.909 6.47642 279.461 6.0673 281.048 5.79696C279.217 4.27397 278.543 2.56147 281.979 3.31244C282.268 3.2563 282.501 3.2563 282.782 3.2563L284.275 5.2776C287.402 4.86088 290.556 4.61243 293.717 4.53365C292.492 4.29822 291.295 3.95976 290.144 3.523C291.196 3.73437 292.196 3.98361 293.165 4.22491C293.579 4.32813 293.988 4.4299 294.392 4.52663H295.644C295.4 4.59423 295.145 4.6274 294.889 4.62489C297.314 5.21402 299.876 5.21402 302.3 4.62489C308.056 6.08039 314.415 5.23222 320.941 4.36173C328.324 3.37693 335.921 2.36356 343.102 4.62489C341.071 4.18974 338.229 4.0213 337.426 4.72314C342.352 4.63764 347.265 5.13672 351.833 5.6007C352.514 5.66993 353.188 5.73837 353.853 5.80398C354.275 5.85751 355.141 5.91104 355.938 5.9603L355.939 5.96039L356.028 5.96592L356.358 5.98646L359.072 6.14086L359.222 6.14861C360.944 6.2372 362.618 6.32334 364.178 6.32334C367.278 6.39784 370.38 6.2476 373.451 5.87416C373.684 5.24251 373.901 4.61787 374.094 3.98621L385.278 3.32648C385.824 10.6116 386.129 17.5388 386.008 24.7326C386.811 24.7677 387.614 24.8239 388.417 24.8941L388.416 24.9092L388.416 24.9107V24.9115C388.36 25.8828 388.297 26.9847 388.297 28.0102V30.9299C388.305 32.2564 388.361 33.6811 388.433 35.176C388.49 36.2912 388.56 37.4426 388.63 38.6109L388.63 38.6133C388.748 40.5693 388.869 42.5724 388.939 44.5316C389.164 50.8481 388.867 56.6734 386.338 59.2702C387.448 60.472 387.061 64.2148 386.661 68.0915V68.0918L386.661 68.0923C386.369 70.917 386.07 73.8125 386.338 75.8477L384.459 77.0689C384 81.72 384.186 86.4025 385.013 91.0145C382.41 99.4407 383.182 107.455 383.921 115.137C384.304 119.113 384.678 123 384.571 126.808L384.025 126.914L385.334 138.241C384.685 137.091 384.707 137.153 384.952 137.859C385.344 138.987 386.308 141.762 386.017 143.856C386.94 147.464 386.442 153.31 385.214 157.563L385.093 164.778C384.306 159.702 383.435 161.275 382.352 163.23C381.723 164.365 381.024 165.628 380.228 165.796L381.946 170.407C381.443 171.283 381.035 170.64 380.695 170.103C380.324 169.518 380.033 169.059 379.786 170.835C380.235 172.042 380.493 174.174 380.773 176.493C381.209 180.104 381.7 184.168 383.054 185.903C383.797 185.041 384.307 184.043 384.547 182.984C384.411 182.598 384.443 182.619 384.587 182.864L384.708 182.549C384.697 182.602 384.684 182.645 384.671 182.685C384.662 182.714 384.654 182.742 384.647 182.772C384.635 182.819 384.628 182.871 384.628 182.942C384.854 183.389 385.143 183.811 385.487 184.198C385.099 188.674 385.555 188.38 386.239 187.941C386.432 187.816 386.644 187.68 386.86 187.637C385.282 190.652 384.93 193.054 384.608 195.257C384.272 197.553 383.967 199.633 382.341 201.969C384.011 200.094 383.984 203.613 383.955 207.328C383.924 211.34 383.891 215.579 385.992 213.5C384.206 216.028 384.236 216.822 384.259 217.443C384.28 218.013 384.296 218.436 382.893 219.922C383.626 214.687 381.966 209.464 380.493 204.829C380.044 203.418 379.613 202.061 379.272 200.775L377.209 206.18C374.908 204.059 375.897 200.119 376.778 196.611L376.778 196.61C377.366 194.268 377.906 192.117 377.386 190.83C378.233 192.873 377.47 197.314 376.653 197.963L379.457 196.564C380.489 189.963 378.958 184.506 377.589 179.627L377.589 179.626L377.589 179.626C377.36 178.809 377.135 178.009 376.928 177.222C376.456 179.683 376.037 178.402 375.503 176.772C374.91 174.963 374.176 172.723 373.074 174.695L373.419 178.78C372.579 180.277 371.846 178.046 371.147 175.918L371.147 175.918C370.971 175.383 370.798 174.854 370.625 174.393C371.686 168.148 371.812 159.383 371.926 151.477V151.476C372.047 143.053 372.154 135.606 373.363 133.223C372.6 135.89 373.235 140.733 374.094 143.049L375.266 137.041C375.298 139.029 374.887 140.847 374.447 142.787L374.447 142.787C373.799 145.649 373.091 148.775 373.66 153.099C374.337 152.657 375.103 153.066 375.928 153.506C377.382 154.282 379.021 155.157 380.685 151.647C382.212 144.527 380.904 141.702 379.368 138.387C377.908 135.235 376.243 131.64 376.615 123.489C376.455 123.055 376.624 123.138 376.928 123.287C377.711 123.672 379.392 124.5 378.686 118.085C376.84 106.869 372.616 98.6576 368.546 98.6576C369.726 103.374 372.07 112.821 369.124 114.259C368.772 112.857 368.464 111.151 368.153 109.435C367.421 105.387 366.679 101.283 365.342 100.988C367.108 98.4796 367.315 100.914 367.491 102.993C367.658 104.952 367.798 106.595 369.188 103.493C369.133 100.969 368.477 99.5448 367.915 98.3268C367.74 97.9464 367.573 97.5862 367.438 97.2188C368.44 98.7557 369.216 96.7085 369.866 94.9932C370.148 94.2488 370.406 93.5669 370.649 93.2674C370.683 87.6281 371.119 83.2482 371.572 78.69C371.981 74.5801 372.404 70.3251 372.56 64.8709C373.042 64.2673 374.166 63.004 374.969 63.3409C374.078 57.7122 368.979 49.6761 366.852 51.7816C366.797 48.8142 367.095 47.1132 367.355 45.6272C367.672 43.813 367.933 42.3193 367.43 39.2327C365.998 43.3773 366.003 43.3062 366.094 41.9399C366.2 40.3563 366.423 37.0327 364.66 36.5165C364.434 33.0796 365.048 33.0409 365.741 32.9972C366.206 32.968 366.706 32.9365 367.012 31.8774C366.932 31.6668 366.796 31.3159 366.635 30.965L366.362 30.4246L366.29 30.2842L366.217 30.2L366.057 30.0315C365.744 29.6278 365.252 29.3578 364.7 29.2876C365.228 28.7691 366.051 28.564 366.812 28.7612C367.72 29.0509 368.542 29.5136 369.22 30.1158C369.445 30.2881 369.657 30.4733 369.854 30.6702C370.063 30.8667 370.272 31.0492 370.481 31.2247C370.847 31.5433 371.266 31.8107 371.725 32.0177C372.544 32.3546 373.339 32.2283 374.07 31.1966C374.969 29.8701 376.286 25.3853 377.378 20.5637C378.469 15.7421 379.377 10.5554 379.497 9.8536C378.943 9.56585 378.044 9.81851 376.92 10.6046C374.006 12.5344 371.405 14.801 369.188 17.3422C367.639 18.8582 366.089 20.4303 364.796 21.813L364.679 21.9389C363.436 23.268 362.363 24.4155 361.585 25.266C360.741 25.7676 361.035 25.265 361.645 24.2198C361.744 24.051 361.851 23.868 361.962 23.6729C362.042 22.9991 361.826 22.1218 361.159 22.0305C360.572 21.3908 359.636 21.0771 358.711 21.2094C357.739 21.287 356.797 21.5378 355.941 21.9463C355.644 22.0526 355.419 22.1695 355.191 22.2877C354.696 22.5441 354.189 22.8073 352.914 22.9851C351.329 23.2821 349.695 23.3155 348.096 23.0833L353.379 21.5673C352.239 20.8795 342.027 21.7638 340.421 22.7394C340.331 22.4184 340.908 21.7574 341.586 20.9798C342.91 19.4621 344.621 17.4998 342.524 16.7527C330.08 16.2544 318.237 21.4831 319.04 24.2905L338.125 21.3568C338.447 22.4845 335.358 23.081 332.135 23.7034C328.617 24.3825 324.94 25.0926 325.359 26.5574L307.784 25.7152C310.008 25.638 316.784 24.9713 314.118 23.6658C309.411 23.7446 309.055 23.5667 308.229 23.1543C307.732 22.9055 307.063 22.5714 305.166 22.1569C313.821 19.1741 329.702 11.4889 335.323 7.83932L326.25 9.41846L323.986 8.01478C313.181 9.72037 303.342 17.5827 299.347 20.775L299.346 20.7754C298.968 21.0771 298.643 21.3372 298.374 21.5463C291.557 20.9497 293.966 15.9105 295.572 14.9279C289.006 14.8072 285.706 16.5238 282.449 18.2178C279.079 19.9709 275.756 21.6997 268.908 21.3427L273.958 22.4376C272.557 22.6448 269.532 22.5645 266.691 22.489C263.086 22.3933 259.778 22.3054 260.47 22.8236C257.999 21.5849 255.721 18.7939 257.739 17.7016L246.605 22.1229C247.452 21.6792 247.452 20.2076 247.453 18.9298C247.453 18.0267 247.453 17.2204 247.752 16.9422C243.186 16.7951 239.91 21.1636 242.233 22.1483C238.812 21.0894 237.023 20.6593 235.692 20.3393C233.56 19.8267 232.603 19.5965 227.993 17.5177C225.231 17.8055 228.25 21.813 230.274 22.2481C226.035 23.0664 221.648 23.1141 217.387 22.3885C224.228 21.2353 223.238 17.63 222.36 14.434C221.913 12.8059 221.495 11.2841 222.156 10.2466L199.933 22.2972C200.736 21.5744 202.462 17.7212 202.341 17.258C200.479 20.8093 175.019 21.3077 162.559 20.8093L164.437 20.7743C166.958 19.546 156.24 18.5494 151.856 19.8057C152.433 19.2413 153.176 19.2502 154.368 19.2645C154.703 19.2685 155.073 19.273 155.485 19.2653C151.414 17.9448 148.742 19.2224 146.078 20.4959C143.305 21.8217 140.54 23.1432 136.216 21.5252C143.924 21.8621 145.433 20.4093 145.048 19.0056C143.007 19.4237 140.098 19.5593 137.2 19.6944C131.145 19.9766 125.139 20.2565 127.208 23.1044C125.973 22.8346 124.777 22.6974 123.72 22.5763C121.313 22.3003 119.632 22.1074 119.877 20.6198L104.398 23.1324C105.52 22.7051 106.514 21.4595 102.013 21.1688C105.724 21.4047 109.379 20.8247 112.706 20.2968C117.175 19.5878 121.05 18.9729 123.667 20.5567C123.744 19.6663 123.415 18.9171 123.113 18.2292C122.53 16.9001 122.048 15.8 124.783 14.3524C112.177 15.2822 103.86 18.0331 96.0183 20.6269L96.0182 20.6269C93.4419 21.479 90.917 22.3142 88.3081 23.0623L73.5591 21.1813L72.9409 22.3744L70.3797 19.3706C69.975 19.5213 69.6003 19.6674 69.2584 19.8006L69.2578 19.8008L69.2576 19.8009C68.0402 20.2755 67.2387 20.5879 66.9755 20.3742C66.6383 20.1005 67.104 19.7075 67.8346 19.2653C66.5685 19.3417 65.3218 19.5781 64.1333 19.9671C63.5633 18.395 66.1726 16.5772 68.9506 14.942C70.2753 15.5034 71.6403 16.0719 73.0132 16.6053C75.9035 15.0964 77.975 13.5453 73.9606 12.5487C73.3905 12.7522 72.7 12.9768 71.8972 13.1944C73.7277 12.0714 74.8598 11.145 73.5029 10.7028L62.2626 12.1486C63.39 12.5059 64.9998 13.2091 66.8911 14.0353L66.8957 14.0373L66.9162 14.0463C67.1719 14.158 67.4327 14.2719 67.6981 14.3875C60.6167 16.3527 52.5477 18.7459 58.8664 20.7672L50.2756 19.0056C45.2335 20.4865 43.146 21.0831 40.7935 21.5814C39.6133 21.827 38.3688 22.0516 36.6426 22.3534L33.664 22.8728L32.7647 23.0272C32.4895 23.0547 32.2195 23.1137 31.9618 23.2026C31.6728 23.3149 31.3838 23.4483 31.0947 23.5816C30.9351 23.0994 30.9925 22.5821 31.2553 22.1358C31.4319 21.6866 31.5845 21.2726 30.9101 20.8865C29.5693 21.8551 28.2846 21.9393 26.6066 21.6445C25.4594 21.443 24.0682 21.061 22.5998 20.6579C21.9205 20.4714 21.2247 20.2803 20.5288 20.1005C19.5252 21.2304 18.8829 22.7605 20.3281 23.9606C20.7456 26.1854 21.4842 26.768 22.2389 27.2031C23.1033 27.5371 23.8114 28.119 24.2462 28.8524C24.21 28.8396 24.1709 28.825 24.1297 28.8097L24.1295 28.8096L24.1292 28.8095C23.721 28.6576 23.1009 28.4269 23.0499 28.9367C23.4268 29.3546 23.8373 29.7487 24.2783 30.1158C24.2968 30.1401 24.3166 30.153 24.3366 30.166C24.3685 30.1869 24.4012 30.2081 24.4308 30.2772L24.5834 30.579L24.8885 31.1755L25.5067 32.3687C25.1462 33.1564 24.7964 32.5692 24.4361 31.9642C23.9135 31.0869 23.3687 30.1723 22.7367 33.3583C22.8484 33.9148 22.958 34.4573 23.065 34.9872C24.7269 43.2175 25.7725 48.3954 24.6637 55.6487C24.9747 61.5409 26.3694 59.7334 27.5149 58.2489C28.498 56.9748 29.2977 55.9385 29.0715 60.2107C28.9382 60.3011 28.8033 60.3907 28.6674 60.481C26.7558 61.7509 24.6514 63.1488 24.3666 68.5416C24.8724 69.6534 25.4028 70.3054 25.9153 70.9356C26.8102 72.0358 27.6509 73.0693 28.2124 76.3671L25.1374 76.0372C25.1594 76.7316 25.1903 77.4057 25.2198 78.0511C25.3942 81.8613 25.5227 84.6679 23.5316 84.6979C24.576 87.4984 24.7642 90.489 24.0775 93.3727C24.1978 93.912 24.3344 94.3426 24.4847 94.6771L24.4706 94.7289C23.9074 96.8018 23.5391 98.1573 25.2459 99.7848C24.5675 104.107 25.3602 106.525 25.961 108.359C26.7266 110.695 27.1808 112.081 23.8849 115.242C24.1257 110.596 22.4798 105.058 20.7857 107.789L22.3915 114.491C22.0318 114.836 21.8781 114.139 21.7392 113.509C21.5619 112.704 21.4088 112.009 20.8821 113.733C21.7892 116.311 22.8888 118.833 24.1739 121.285L23.9812 121.194L24.4419 132.195C24.2286 130.861 23.452 130.829 23.3469 132.718L24.9527 140.649C24.1819 138.22 23.2265 140.705 22.7287 144.27C22.2668 149.335 23.9673 151.387 25.417 153.136C26.8904 154.914 28.1047 156.38 26.5263 160.377C26.5584 159.799 26.4784 159.462 26.3982 159.125C26.3178 158.787 26.2373 158.448 26.2694 157.865L24.8965 161.943C28.1783 162.371 28.3471 168.384 28.5158 174.397C28.6843 180.402 28.8528 186.406 32.1224 186.844C30.4533 190.512 30.2652 189.704 29.573 186.73C29.1698 184.997 28.5955 182.53 27.4577 179.783ZM24.487 133.272C24.5089 132.853 24.4894 132.492 24.4419 132.195L24.487 133.272ZM25.8668 96.8612C26.0839 98.142 26.0871 99.3438 25.4819 100C25.3992 99.9277 25.3206 99.856 25.2459 99.7848C25.3857 98.8948 25.5878 97.9241 25.8668 96.8612ZM25.6062 95.6255C27.0765 95.4849 29.0053 91.4575 30.3238 88.7044C30.8457 87.6147 31.2719 86.7247 31.5363 86.3543C30.6526 89.1248 30.3094 91.5652 30.0016 93.753C29.5181 97.1906 29.1222 100.005 26.8555 102.497L26.0526 96.1801C25.9872 96.4112 25.9253 96.6383 25.8668 96.8612C25.7974 96.4523 25.7063 96.0353 25.6062 95.6255ZM25.6062 95.6255C25.4785 95.1029 25.3362 94.5919 25.2059 94.1241L25.2059 94.1238C25.09 93.7077 24.9836 93.3257 24.9055 93C24.7729 93.6123 24.6234 94.1665 24.4847 94.6771C24.8047 95.3894 25.1868 95.6656 25.6062 95.6255ZM242.233 22.1483L242.429 22.209L242.622 22.2692C242.478 22.2379 242.349 22.1973 242.233 22.1483ZM246.395 22.206C246.47 22.1847 246.54 22.1568 246.605 22.1229L246.395 22.206ZM122.141 455.663C121.971 455.552 121.792 455.447 121.606 455.346C121.728 455.444 121.905 455.549 122.141 455.663ZM191.061 436.047C191.22 436.083 191.43 436.105 191.686 436.115L191.061 436.047ZM27.2489 361.637C27.2642 361.896 27.2773 362.149 27.2883 362.397C27.2908 362.115 27.2784 361.859 27.2489 361.637ZM28.2124 284.435C28.1934 284.324 28.1739 284.216 28.1539 284.11L28.2124 284.435ZM244.508 8.79438C243.342 8.80319 243.454 8.917 243.672 9.13796C243.769 9.23603 243.887 9.3552 243.923 9.49566C244.054 9.24268 244.252 9.00963 244.508 8.79438ZM84 17.5725C82.6069 18.3693 80.4398 17.963 78 17.0865C80.011 16.8798 82.0399 17.0442 84 17.5725ZM384.142 151.787C384.202 151.852 384.249 151.924 384.282 152C384.475 150.927 384.655 150.034 384.761 149.508C384.826 149.185 384.863 149.001 384.858 149C384.851 148.998 384.771 149.314 384.585 150.048L384.583 150.052C384.474 150.481 384.329 151.053 384.142 151.787ZM383.191 160.303C383.459 161.172 383.726 161.113 384 160.748C383.512 160.149 383.485 158.206 383.626 156C383.118 156.614 382.763 157.724 383.191 160.303ZM4.68112 448L4 451.074C4.37641 451.658 4.72593 452.189 4.89622 451.935C5.0665 451.681 5.04857 450.682 4.68112 448Z" fill="white"/>
<path d="M73.2371 20.8047C72.8496 20.5468 72.5758 20.1499 72.4723 19.696C71.7916 20.0399 71.7776 20.4328 73.2371 20.8047Z" fill="white"/>
<path d="M39.8647 243.137C39.8647 243.235 39.8647 243.326 39.8647 243.417C39.9597 243.543 40.0853 243.642 40.2296 243.705L39.8647 243.137Z" fill="white"/>
<path d="M334.205 31.4564C334.256 30.8361 334.425 30.2313 334.703 29.6741C334.862 29.4194 335.051 29.1839 335.264 28.9724C334.989 28.9787 334.736 29.1275 334.598 29.3654C334.495 29.5319 334.415 29.7112 334.359 29.8986C334.357 29.9314 334.357 29.9642 334.359 29.9969V30.1723L334.317 30.5582C334.268 30.8319 334.226 31.1266 334.205 31.4564Z" fill="white"/>
<path d="M354.364 203.947L353.852 198.628C353.929 200.254 353.69 201.879 353.15 203.414C353.649 203.294 354.343 202.305 354.364 203.947Z" fill="white"/>
<path d="M341.664 250.02C341.909 250.799 341.664 251.669 341.937 252.434L342.878 252.224C342.828 248.919 342.071 246.603 341.664 250.02Z" fill="white"/>
<path d="M347.6 208.845C345.888 209.259 346.456 212.592 346.765 216.318C346.751 216.098 346.751 215.878 346.765 215.658C349.158 216.76 348.379 212.83 347.6 208.845Z" fill="white"/>
<path d="M346.828 217.181C346.905 218.326 346.905 219.475 346.828 220.619C347.817 221.054 347.06 219.223 346.828 217.181Z" fill="white"/>
<path d="M352.147 170.504C351.705 172.265 354.329 171.62 353.628 172.609C355.796 174.595 351.031 160.842 352.147 170.504Z" fill="white"/>
<path d="M341.965 211.841L344.077 210.508L342.386 208.417L341.965 211.841Z" fill="white"/>
<path d="M343.601 182.461L342.997 188.404C343.355 188.313 343.558 189.071 343.699 189.997C343.797 186.334 344.225 182.321 343.601 182.461Z" fill="white"/>
<path d="M343.713 189.997C343.599 191.6 343.712 193.212 344.049 194.783C344.035 193.182 343.923 191.584 343.713 189.997Z" fill="white"/>
<path d="M341.355 203.708L341.804 201.954L341.973 197.751L341.355 203.708Z" fill="white"/>
<path d="M344.197 118.537L343.614 112.046C342.913 111.379 342.442 113.148 342.723 115.555C343.221 117.119 343.495 119.505 344.197 118.537Z" fill="white"/>
<path d="M338.366 138.149C338.808 136.395 339.278 136.276 339.973 135.286L337.362 135.083L338.366 138.149Z" fill="white"/>
<path d="M337.811 119.217C337.11 118.572 335.756 109.794 335.896 118.017C336.612 118.684 337.194 125.182 337.811 119.217Z" fill="white"/>
<path d="M341.404 22.0256V23.5483C342.835 22.8747 344.267 22.173 345.698 21.4432C344.253 21.5149 342.816 21.7097 341.404 22.0256Z" fill="white"/>
<path d="M264.098 25.071C271.817 26.1025 265.923 22.4257 272.87 23.7098C274.673 22.6923 267.193 22.6642 269.045 21.7871C264.407 22.8537 261.993 22.2502 264.098 25.071Z" fill="white"/>
<path d="M269.052 21.787C269.851 21.6102 270.64 21.3924 271.417 21.1344C270.606 21.2605 269.813 21.4794 269.052 21.787Z" fill="white"/>
<path d="M327.658 456.08L332.605 456.957L329.405 455.526L327.658 456.08Z" fill="white"/>
<path d="M337.145 452.873L338.316 455.603L341.278 453.126C340.162 453.252 337.994 453.512 337.145 452.873Z" fill="white"/>
<path d="M42.9942 79.5084L42.3346 79.1295C41.6329 79.8944 41.5698 81.0522 41.4575 83.3397L42.9942 79.5084Z" fill="white"/>
<path d="M40.9451 146.59L41.0012 145.44L38.5312 147.594L40.9451 146.59Z" fill="white"/>
<path d="M44.1032 202.88C44.2014 200.586 43.6541 197.884 43.7593 195.576C44.2014 200.586 41.0227 203.505 44.1032 202.88Z" fill="white"/>
<path d="M146.298 262.019L83.7136 302.886C80.7595 304.816 75.7213 302.332 72.4865 297.336L37.5421 243.824C34.2792 238.828 34.0336 233.215 36.9807 231.285L99.5649 190.411C102.526 188.482 107.564 190.973 110.827 195.962L145.772 249.48C149.02 254.469 149.252 260.09 146.298 262.019Z" fill="#F3F6FF"/>
<path d="M267.431 236.218L204.847 277.085C201.893 279.021 196.848 276.53 193.62 271.541L158.641 218.023C155.378 213.027 155.132 207.413 158.086 205.484L220.67 164.617C223.625 162.687 228.67 165.171 231.933 170.167L266.905 223.679C270.14 228.675 270.414 234.288 267.431 236.218Z" fill="#F3F6FF"/>
<path d="M224.102 348.482L161.517 389.356C158.556 391.286 153.518 388.802 150.29 383.805L115.339 330.294C112.076 325.298 111.83 319.685 114.785 317.748L177.369 276.881C180.323 274.952 185.368 277.436 188.596 282.432L223.547 335.943C226.817 340.939 227.063 346.552 224.102 348.482Z" fill="#F3F6FF"/>
<path d="M108.785 374.726L120.714 376.543C140.595 333.136 160.477 289.729 180.358 246.322L227.652 274.909C224.047 280.633 220.799 286.573 217.927 292.697C209.95 309.814 204.921 328.154 203.051 346.945L217.604 350.25C225.196 337.943 236.016 320.288 249.026 298.655C260.913 278.881 265.537 270.91 263.249 261.275C261.039 251.978 252.815 245.908 236.459 234.155C225.431 226.233 213.819 219.156 201.725 212.985L139.197 212.655C137.351 215.93 135.801 219.363 134.565 222.914C129.254 238.162 132.222 248.708 131.253 267.233C130.825 275.414 129.727 283.545 127.969 291.547C125.422 297.721 122.98 304.303 120.742 311.299C114.158 331.868 110.142 353.171 108.785 374.726H108.785Z" fill="#472FC8"/>
<path d="M227.554 140.886C225.14 150.541 219.597 156.526 213.12 163.34C195.199 182.201 180.239 182.889 178.253 193.808C177.46 198.137 178.52 205.035 188.954 215.174L194.792 222.528C190.491 227.159 182.779 234.015 171.503 237.207C147.386 244.014 123.219 229.489 110.505 213.918C107.824 210.634 89.1449 187.015 97.3547 160.898C98.6739 156.688 103.67 140.83 119.57 134.156C124.691 132.026 130.23 131.094 135.766 131.434C139.666 131.651 143.518 132.409 147.21 133.686C149.149 129.89 151.424 126.276 154.01 122.887C160.963 113.646 173.173 101.703 190.673 99.9909C195.297 99.5348 211.331 97.963 221.548 109.211C231.764 120.459 228.614 136.605 227.554 140.886Z" fill="#00BEA1"/>
<path d="M128.033 176.686C131.026 183.387 134.878 189.671 139.491 195.379C145.231 202.459 153.757 212.697 168.142 216.395C172.394 217.49 180.99 218.991 192.161 215.834C182.734 215.215 173.488 212.95 164.844 209.14C143.835 199.842 132.524 183.921 128.033 176.686Z" fill="#0D0E56"/>
<path d="M104.364 382.374C103.809 384.244 103.748 386.227 104.189 388.128L153.799 388.226C153.503 386.857 152.847 385.593 151.897 384.563C149.883 382.458 147.028 382.156 143.751 382.03C132.166 381.553 127.415 383.798 123.184 380.809C122.118 380.04 121.219 379.064 120.539 377.939L108.371 376.627C106.465 378.074 105.063 380.085 104.364 382.374Z" fill="#0D0E56"/>
<path d="M203.051 348.917L217.036 351.689C216.503 353.303 215.962 354.91 215.422 356.524C216.974 358.345 218.833 359.879 220.916 361.057C228.537 365.337 235.203 362.383 239.665 366.768C240.767 367.849 241.981 369.68 242.388 372.936C229.252 370.073 210.854 365.863 197.718 363C197.338 361.166 197.507 359.26 198.202 357.52C198.904 355.829 199.886 355.218 201.234 352.917C201.98 351.652 202.589 350.311 203.051 348.917Z" fill="#0D0E56"/>
<path d="M135.035 126.606C145.476 126.606 153.939 118.143 153.939 107.703C153.939 97.2624 145.476 88.799 135.035 88.799C124.595 88.799 116.132 97.2624 116.132 107.703C116.132 118.143 124.595 126.606 135.035 126.606Z" fill="#472FC8"/>
<path d="M188.954 216.557C206.129 216.557 220.053 202.633 220.053 185.457C220.053 168.282 206.129 154.358 188.954 154.358C171.778 154.358 157.854 168.282 157.854 185.457C157.854 202.633 171.778 216.557 188.954 216.557Z" fill="#ADFFEF"/>
<path d="M299.429 210.838C282.253 210.838 268.33 196.914 268.33 179.739C268.33 162.563 282.253 148.639 299.429 148.639V210.838Z" fill="#ADFFEF"/>
<path d="M309.61 225.636L299.429 233.355V129.848L309.61 122.129V225.636Z" fill="#9F9DED"/>
<path d="M194.139 154.793C193.642 151.959 193.571 149.067 193.929 146.212C194.069 145.068 194.631 140.668 195.69 140.598C196.287 140.563 197.192 141.868 198.546 147.727C199.491 146.527 200.735 145.595 202.153 145.026C205.661 143.664 210.026 144.787 211.976 147.39C213.317 149.194 212.741 150.695 211.976 158.091C210.98 167.88 211.485 170.167 210.061 170.722C207.794 171.592 203.486 166.961 201.5 162.61C200.609 160.637 200.084 158.519 199.949 156.358L194.139 154.793Z" fill="#0D0E56"/>
<path d="M189.375 215.532C186.868 218.044 186.713 222.061 189.017 224.759C191.266 225.744 193.669 226.333 196.118 226.499C198.406 226.654 200.104 226.773 201.732 225.882C203.991 224.633 204.146 222.472 205.942 218.283C208.938 211.406 211.906 209.476 211.043 208.326C209.899 206.803 203.858 209.14 199.949 211.553C198.115 212.684 196.423 214.031 194.911 215.567C196.712 212.213 197.36 210.342 196.855 209.954C196.219 209.42 193.725 211.28 189.375 215.532Z" fill="#0D0E56"/>
<path d="M184.898 147.573C184.98 149.909 185.35 152.225 185.999 154.471L194.139 154.765C191.465 150.352 190.225 145.219 190.588 140.072C191.367 130.094 198.139 124.143 199.542 123.014C195.191 125.021 191.497 128.218 188.883 132.234C186.005 136.814 184.613 142.171 184.898 147.573Z" fill="#0D0E56"/>
<path d="M304.074 386.282L197.725 363L153.799 388.226L57.6528 386.479L155.259 399.208L203.233 371.049L304.074 386.282Z" fill="#5E5FA8"/>
<path d="M223.541 281.821L227.659 274.909L209.647 264.054C216.127 266.972 222.876 269.25 229.8 270.854C231.732 271.298 233.615 271.682 235.448 272.004L223.541 281.821Z" fill="#0D0E56"/>
<path d="M154.002 134.767C153.571 135.641 152.994 136.436 152.297 137.118C148.311 140.893 140.368 140.338 136.74 136.276C136.228 135.693 134.6 133.862 135.148 132.325C135.268 131.981 135.482 131.677 135.765 131.448C139.666 131.665 143.518 132.423 147.21 133.7C149.148 129.904 151.424 126.29 154.009 122.901C155.714 124.543 156.297 130.395 154.002 134.767Z" fill="#0D0E56"/>
<path d="M254.064 260.707C252.149 263.9 252.149 267.724 254.064 270.426C255.267 272.043 257.009 273.176 258.976 273.618C255.983 269.961 254.259 265.43 254.064 260.707V260.707Z" fill="#0D0E56"/>
<path d="M145.603 294.459C143.33 297.406 142.874 301.195 144.445 304.107C145.449 305.858 147.047 307.19 148.95 307.861C147.807 306.069 146.932 304.118 146.354 302.072C145.662 299.597 145.408 297.021 145.603 294.459Z" fill="#0D0E56"/>
</svg>
