<svg width="377" height="458" viewBox="0 0 377 458" fill="none" xmlns="http://www.w3.org/2000/svg">
<path d="M361.849 446.028L-12.6143 446.73V13.9875H363.386L361.849 446.028V446.028Z" fill="white"/>
<path d="M370.36 444.309C370.199 446.512 371.967 445.712 372.283 446.063C371.897 442.372 369.932 444.4 370.36 444.309Z" fill="white"/>
<path d="M366.459 407.94L367.182 408.586L365.435 403.218L366.459 407.94V407.94Z" fill="white"/>
<path d="M366.599 373.936C363.582 377.136 367.041 386.258 365.96 392.313L365.259 393.31L367.666 396.046C367.322 388.686 365.722 379.114 366.599 373.936Z" fill="white"/>
<path d="M373.153 355.818C371.974 356.934 372.157 351.896 372.774 360.028C372.858 359.768 372.956 359.513 373.069 359.264C373.055 358.548 373.062 357.537 373.153 355.818Z" fill="white"/>
<path d="M372.451 342.746L373.483 347.461C374.184 346.479 374.339 342.282 374.837 343.84C374.283 339.006 373.595 339.995 372.451 342.746Z" fill="white"/>
<path d="M370.269 338.241L370.704 340.69C370.992 340.283 371.097 339.644 370.269 338.241Z" fill="white"/>
<path d="M371.623 345.896L370.704 340.711C370.213 341.412 369.245 341.462 371.034 343.089C370.143 342.661 370.999 343.693 371.623 345.896Z" fill="white"/>
<path d="M371.153 348.829C370.493 351.475 370.072 354.892 369.048 350.155C369.434 359.179 371.546 357.888 371.153 348.829Z" fill="white"/>
<path d="M363.491 372.189L362.6 375.697L363.603 378.757C363.105 377.255 364.438 371.971 363.491 372.189Z" fill="white"/>
<path d="M374.093 313.366C373.455 313.064 372.381 314.944 371.567 315.295L372.269 318.804C372.739 316.993 373.146 313.597 374.093 313.366Z" fill="white"/>
<path d="M371.567 315.295L370.48 310.075C370.339 314.734 370.858 315.59 371.567 315.295Z" fill="white"/>
<path d="M366.936 337.413L369.216 345.98L366.908 335.764L366.936 337.413V337.413Z" fill="white"/>
<path d="M374.234 293.452L375.7 296.413L373.483 291.143L374.234 293.452V293.452Z" fill="white"/>
<path d="M374.009 280.246C375.23 282.435 376.114 277.256 376.816 279.544C376.53 276.337 375.803 273.184 374.655 270.176C375.174 273.088 375.027 276.211 374.009 280.246Z" fill="white"/>
<path d="M373.286 265.517C373.656 267.091 374.125 268.64 374.69 270.155C374.413 268.558 373.942 267 373.286 265.517Z" fill="white"/>
<path d="M370.823 301.198C371.209 300.798 372.227 300.026 372.662 297.1L370.858 299.149C370.844 299.774 370.837 300.483 370.823 301.198Z" fill="white"/>
<path d="M370.802 299.219L370.858 299.149C370.915 296.918 370.957 295.381 370.971 294.715C370.95 295.283 370.901 296.637 370.802 299.219Z" fill="white"/>
<path d="M370.816 301.753C370.816 301.563 370.816 301.423 370.816 301.233C370.634 301.395 370.585 301.514 370.816 301.753Z" fill="white"/>
<path d="M368.606 323.751C367.61 320.684 366.55 314.299 364.992 320.474C366.22 322.677 367.125 319.141 368.606 323.751Z" fill="white"/>
<path d="M368.529 304.258L368.101 309.794C368.578 309.682 369.272 308.685 369.771 310.208L368.529 304.258Z" fill="white"/>
<path d="M367.996 301.542L368.557 304.258L368.718 302.202L367.996 301.542V301.542Z" fill="white"/>
<path d="M371.574 274.997C370.802 272.604 370.739 269.987 370.627 267.033C370.258 270.203 370.066 273.391 370.051 276.583C370.634 277.025 371.63 278.393 371.574 274.997Z" fill="white"/>
<path d="M371.041 286.771C370.999 286.603 370.978 286.393 370.936 286.238C370.788 286.561 370.739 286.828 371.041 286.771Z" fill="white"/>
<path d="M370.725 237.933C370.627 238.095 370.501 238.235 370.395 238.404L370.704 238.509L370.725 237.933Z" fill="white"/>
<path d="M369.722 277.116C369.408 278.86 369.628 280.657 370.353 282.274C370.178 280.498 370.066 278.611 370.052 276.583C369.799 276.386 369.631 276.351 369.722 277.116Z" fill="white"/>
<path d="M372.472 257.398C372.093 258.64 371.77 260.044 371.469 261.517C372.037 260.31 372.935 257.841 372.472 257.398Z" fill="white"/>
<path d="M371.441 285.438C371.441 285.558 371.497 285.663 371.518 285.789C371.904 285.01 371.715 285.108 371.441 285.438Z" fill="white"/>
<path d="M371.441 285.438C371.175 284.352 370.811 283.293 370.353 282.274C370.464 283.606 370.659 284.93 370.935 286.238C371.066 285.95 371.236 285.68 371.441 285.438V285.438Z" fill="white"/>
<path d="M359.196 229.085C360.866 229.513 362.389 235.779 360.6 241.175C361.835 246.494 367.329 243.035 370.423 238.404C369.722 238.235 369.02 238.235 368.052 232.755C367.139 234.67 365.89 244.894 364.396 240.27C363.554 233.022 364.999 234.334 365.89 230.811C363.785 233.8 362.894 221.584 359.835 223.156L360.894 229.513C360.389 229.632 359.638 227.324 359.196 229.085Z" fill="white"/>
<path d="M370.192 248.831L370.395 251.083C370.69 248.515 371.364 246.677 372.676 243.301C371.876 239.547 371.273 238.768 370.704 238.509L370.437 249.596L370.192 248.831Z" fill="white"/>
<path d="M370.367 261.188C368.557 259.426 367.806 254.016 365.834 257.321C365.94 263.931 367.336 261.959 368.108 265.91C367.694 255.244 369.111 268.969 370.164 261.272C370.421 263.182 370.575 265.106 370.627 267.033C370.852 265.11 371.125 263.265 371.469 261.517C371.427 261.616 371.399 261.686 371.357 261.763V261.812V261.812C371.125 262.268 370.985 262.423 371.118 261.903C371.11 261.829 371.11 261.753 371.118 261.679C370.846 261.582 370.604 261.415 370.417 261.195C370.795 258.107 370.887 260.71 371.118 261.679C371.209 261.679 371.294 261.798 371.392 261.812V261.77L370.431 251.09C370.136 253.336 370.178 256.142 370.367 261.188Z" fill="white"/>
<path d="M361.112 314.762C361.273 314.432 361.4 314.446 361.533 314.425C361.316 313.731 361.161 313.471 361.112 314.762Z" fill="white"/>
<path d="M362.214 310.376C362.459 311.148 363.189 311.78 362.992 314.32C362.438 316.509 362.122 314.32 361.526 314.425C362.003 315.948 362.81 319.751 363.708 314.987L363.463 314.229C364.101 309.927 366.382 304.405 366.627 305.163C364.763 306.526 363.251 308.313 362.214 310.376V310.376Z" fill="white"/>
<path d="M365.834 285.473L364.971 276.576L363.385 281.102L364.333 280.877C363.947 285.929 365.111 284.842 365.834 285.473Z" fill="white"/>
<path d="M371.63 236.923L373.539 238.109L370.852 232.958L371.63 236.923V236.923Z" fill="white"/>
<path d="M371.434 225.359L373.097 225.794L372.1 222.742L371.434 225.359V225.359Z" fill="white"/>
<path d="M57.1168 140.651L57.5869 143.268C57.5039 142.384 57.3466 141.508 57.1168 140.651Z" fill="white"/>
<path d="M57.2287 121.726L56.4077 121.263C56.8638 122.119 57.1936 122.498 57.2287 121.726Z" fill="white"/>
<path d="M288.845 3.53225C285.041 1.97448 280.789 -0.439347 281.245 1.42716L282.417 3.25157C284.559 2.96364 286.736 3.05867 288.845 3.53225V3.53225Z" fill="white"/>
<path d="M94.4258 14.4085L95.5415 14.9628L98.1097 13.2156C96.9729 13.5875 95.745 13.9874 94.4258 14.4085Z" fill="white"/>
<path d="M91.7383 21.9657L86.7212 20.7869C88.3546 21.3302 90.0338 21.7247 91.7383 21.9657Z" fill="white"/>
<path d="M59.0815 243.989L60.941 247.041C60.9059 242.27 59.9657 244.368 59.0815 243.989Z" fill="white"/>
<path d="M371.111 106.976C371.729 104.283 372.107 101.54 372.241 98.7803C371.174 102.738 369.595 105.924 371.111 106.976Z" fill="white"/>
<path d="M37.7358 133.206C38.0656 134.805 38.4375 135.486 38.8445 135.444C38.5288 133.795 38.1779 132.862 37.7358 133.206Z" fill="white"/>
<path d="M372.262 89.2935C372.072 89.8688 371.981 90.4372 371.827 91.0266C372.185 93.5947 372.324 96.1887 372.241 98.7804C373.027 95.8613 373.518 92.5142 372.262 89.2935Z" fill="white"/>
<path d="M219.145 435.917C219.419 436.001 219.748 436.036 219.994 436.134C220.078 435.889 219.699 435.875 219.145 435.917Z" fill="white"/>
<path d="M328.378 454.105C327.297 454.224 325.571 454.224 323.894 454.252C325.389 454.383 326.895 454.333 328.378 454.105V454.105Z" fill="white"/>
<path d="M365.111 190.758C364.908 190.232 364.641 189.839 364.22 189.776C364.638 189.97 364.959 190.324 365.111 190.758Z" fill="white"/>
<path d="M360.965 64.8393V64.6288C360.614 65.3586 360.677 65.2323 360.965 64.8393Z" fill="white"/>
<path d="M371.525 182.542C371.777 181.512 371.962 180.466 372.079 179.412C371.83 180.443 371.645 181.488 371.525 182.542V182.542Z" fill="white"/>
<path d="M372.388 182.05C372.304 182.892 372.262 183.559 372.206 184.155C372.514 184.499 372.739 184.226 372.388 182.05Z" fill="white"/>
<path d="M372.283 175.448C372.296 176.774 372.228 178.101 372.08 179.419C372.206 178.935 372.304 178.717 372.367 178.865C372.339 178.135 372.311 177.125 372.283 175.448Z" fill="white"/>
<path d="M52.6538 417.967C52.5906 418.129 52.5555 418.318 52.4783 418.494C53.2362 420.964 53.1169 419.883 52.6538 417.967Z" fill="white"/>
<path d="M225.039 22.478C225.134 22.4528 225.228 22.4224 225.32 22.3867L224.962 22.3236L225.039 22.478Z" fill="white"/>
<path d="M216.261 23.8323C220.008 21.5588 222.141 21.8395 224.983 22.3167L222.071 17.054L216.261 23.8323Z" fill="white"/>
<path fill-rule="evenodd" clip-rule="evenodd" d="M-7.77395 179.767L-9.77414 185.949C-9.89539 184.954 -9.88659 184.024 -9.87793 183.11C-9.86462 181.703 -9.85165 180.334 -10.3127 178.82C-13.0654 186.376 -10.0497 193.514 -8.15083 198.008C-8.00952 198.342 -7.8744 198.662 -7.74831 198.966C-8.12711 200.131 -8.95923 200.078 -9.79007 200.024C-11.1715 199.935 -12.5494 199.847 -11.8342 205.359C-11.0644 212.381 -9.56079 210.75 -8.24086 209.317C-7.21568 208.205 -6.30129 207.212 -5.92762 210.489L-9.5348 215.92C-7.54208 222.823 -8.27447 228.469 -9.00665 234.113C-9.28892 236.289 -9.57116 238.464 -9.69721 240.712C-9.41513 242.536 -9.03903 243.427 -8.64583 243.877C-9.48293 248.473 -8.41553 253.304 -7.42306 257.797C-6.56095 261.699 -5.75538 265.346 -6.30372 268.36C-6.77219 267.4 -7.55952 269.117 -8.29175 270.714C-8.72189 271.652 -9.13301 272.548 -9.44932 272.837L-7.27441 284.227C-8.07611 280.202 -9.59992 279.643 -11.2139 279.05L-11.2142 279.05C-11.5584 278.924 -11.9067 278.796 -12.253 278.633C-12.13 280.733 -11.7012 282.194 -11.3088 283.531C-11.0195 284.517 -10.7499 285.435 -10.6375 286.492C-11.3298 284.969 -12.1077 283.44 -13.0394 285.369L-9.62028 297.635C-9.261 296.555 -9.06577 295.443 -9.03903 294.323C-9.0346 295.117 -8.94253 296.15 -8.83815 297.321C-8.53932 300.673 -8.13958 305.156 -9.40658 308.407C-9.78926 308.218 -10.1502 307.77 -10.5169 307.315C-10.912 306.825 -11.3139 306.326 -11.7572 306.133C-9.57119 302.571 -11.2592 300.502 -12.765 298.657L-12.8417 298.563L-12.9625 298.414C-12.76 303.299 -12.9683 303.243 -13.4638 303.108C-13.8261 303.01 -14.3418 302.871 -14.9627 304.589C-14.8857 310.561 -12.1077 313.01 -10.3981 311.445C-10.4669 312.034 -10.5337 312.588 -10.5971 313.113C-11.2586 318.593 -11.5407 320.93 -9.63738 327.206L-12.4496 325.901L-11.5948 332.216L-15.014 327.087C-15.9385 333.025 -14.8012 333.685 -13.5852 334.391C-12.3167 335.127 -10.9626 335.912 -11.7743 342.791L-14.2532 342.826C-13.8933 344.793 -13.0696 346.271 -12.3473 347.567C-11.1655 349.686 -10.255 351.32 -12.0906 353.815C-11.4343 356.026 -10.6825 354.64 -10.0027 353.388C-9.13332 351.785 -8.38181 350.4 -8.09877 357.036C-9.37239 359.12 -10.3041 363.611 -10.8084 367.008C-9.8025 370.452 -8.21325 365.218 -8.20171 362.435C-7.78013 370.688 -9.77423 373.41 -11.5596 375.847C-13.4398 378.414 -15.0886 380.665 -13.4412 388.726C-12.7157 386.498 -11.7868 386.848 -10.9458 387.164C-9.72571 387.624 -8.69082 388.013 -8.73131 380.361C-8.04866 383.179 -8.72785 385.955 -9.41217 388.752C-10.2274 392.083 -11.0499 395.445 -9.58609 398.943L-12.7402 394.733C-12.7945 396.57 -12.0795 398.588 -11.5896 399.971L-11.5894 399.971L-11.5887 399.973C-11.4614 400.332 -11.3494 400.649 -11.27 400.908L-13.7061 400.389C-11.6632 404.186 -12.0382 407.733 -12.3748 410.917C-12.7424 414.394 -13.0642 417.438 -10.1417 419.903C-12.619 418.051 -12.2296 420.162 -11.7201 422.923C-11.3242 425.068 -10.8559 427.606 -11.6034 428.984C-13.0445 425.95 -13.1361 421.711 -13.2175 417.942C-13.3123 413.552 -13.3933 409.8 -15.5781 409.336C-16.1982 410.87 -16.0005 412.322 -15.8045 413.761C-15.6115 415.179 -15.4202 416.585 -16.0141 418.044C-16.6209 415.988 -17.6552 412.991 -18.51 412.213C-19.483 416.33 -19.3165 420.575 -18.0228 424.633C-17.6055 426.037 -17.1224 427.347 -16.6569 428.609L-16.6547 428.615C-16.5394 428.928 -16.4251 429.237 -16.3132 429.545L-16.1081 430.128L-16.0141 430.415L-15.9628 430.556L-15.9115 430.647L-15.5439 431.349C-15.3271 431.788 -15.1444 432.238 -14.9969 432.696C-15.0332 432.429 -15.07 432.184 -15.107 431.936C-15.2269 431.136 -15.3494 430.318 -15.467 428.71L-15.9371 423.328C-13.9027 423.763 -13.7318 424.977 -13.6719 426.458C-13.6679 427.247 -13.5907 428.035 -13.4412 428.815C-13.3406 429.233 -13.1829 429.64 -12.971 430.029C-12.9181 430.13 -12.8582 430.229 -12.7915 430.324C-12.7796 430.342 -12.7669 430.363 -12.7538 430.385C-12.7012 430.471 -12.6411 430.57 -12.5864 430.57C-12.4207 430.67 -12.2431 430.757 -12.0564 430.829C-12.5421 431.404 -12.8178 432.081 -12.8514 432.78C-12.8659 433.337 -12.7647 433.893 -12.5522 434.422C-12.4988 434.576 -12.443 434.72 -12.3892 434.859C-12.0898 435.632 -11.8516 436.247 -12.424 437.538C-12.4112 437.255 -12.498 437.17 -12.5884 437.082C-12.6768 436.996 -12.7685 436.906 -12.7742 436.625C-12.7681 437.355 -12.8512 438.084 -13.0223 438.801C-12.1086 439.034 -11.2822 439.454 -10.6204 440.022C-10.1977 440.351 -9.79519 440.716 -9.38549 441.088C-9.14058 441.31 -8.89312 441.535 -8.63728 441.755C-7.27818 442.927 -5.64554 444.022 -3.56842 444.022C-2.84978 444.079 -2.12758 444.1 -1.40582 444.085C-0.551037 444.071 0.303745 444.029 1.15853 443.958C2.80008 443.837 4.42855 443.616 6.03079 443.299C8.89431 442.702 10.5782 441.895 8.66352 441.194C10.1145 440.895 8.71514 440.891 6.40499 440.884H6.4038C5.08047 440.881 3.45846 440.876 1.90219 440.815C0.825161 440.773 -0.21767 440.702 -1.12374 440.59C-1.53865 440.543 -1.9497 440.475 -2.35463 440.387C-2.53413 440.345 -2.70509 440.302 -2.85895 440.253C-2.95849 440.216 -3.04844 440.164 -3.12393 440.099C-3.4183 439.883 -3.53189 439.545 -3.41456 439.236C-3.35423 439.022 -3.25633 438.816 -3.12393 438.625C-3.0519 438.497 -2.95681 438.379 -2.84185 438.275C-2.6538 438.155 -2.42301 438.022 -2.17513 437.889C1.98538 440.426 6.25644 439.891 11.7919 439.196C17.1401 438.526 23.6685 437.707 32.4179 439.369C28.3668 440.3 29.7708 441.02 31.0719 441.688C32.2718 442.303 33.3843 442.874 30.0502 443.523C37.0716 443.175 38.4958 442.595 40.9182 441.609C41.4212 441.405 41.9673 441.182 42.6155 440.941L45.1798 442.499C49.2521 441.203 50.6798 440.441 51.6921 439.9C53.4317 438.972 53.9449 438.698 64.5406 437.496C61.5848 438.152 63.5937 438.739 65.5451 439.309C67.3068 439.823 69.0217 440.324 66.9939 440.85C71.2462 440.992 75.4974 440.544 79.5677 439.524L78.9523 439.748C86.9263 439.356 90.4776 439.761 93.6044 440.118C97.1342 440.52 100.123 440.861 108.323 439.924L106.784 438.983C118.881 437.448 132.893 437.397 146.684 437.347C155.968 437.313 165.152 437.28 173.585 436.794L166.875 436.112C167.922 436.15 169.677 436.02 171.779 435.864H171.78H171.78H171.78H171.781C176.404 435.521 182.706 435.053 186.851 435.98C186.403 436.011 185.845 436.082 185.255 436.157C184.123 436.3 182.877 436.458 182.073 436.38C182.261 437.432 184.809 438.99 189.843 439.243L191.784 437.636L193.818 438.878C197.657 438.885 197.093 438.312 196.526 437.737C195.958 437.161 195.388 436.583 199.237 436.583C201.556 438.962 210.305 439.03 219.137 439.1C227.399 439.164 235.732 439.23 238.942 441.187C241.609 439.461 237.727 439.378 234.077 439.3C230.602 439.226 227.336 439.157 230.129 437.678C230.689 437.803 231.174 437.933 231.659 438.063C233.194 438.476 234.713 438.884 238.515 439.081L236.805 437.089C244.963 437.473 251.35 437.93 257.1 438.342L257.103 438.342L257.106 438.342L257.109 438.342L257.111 438.342H257.111C267.731 439.103 276.179 439.707 289.596 439.411L288.742 439.839C296.11 440.604 300.076 440.232 303.367 438.499C304.083 438.936 303.302 439.274 302.562 439.595C301.721 439.959 300.932 440.301 302.461 440.738C309.591 437.907 316.727 439.311 323.019 440.549C328.162 441.561 332.741 442.463 336.293 440.85C335.836 442.649 338.953 444.403 341.924 446.075C345.616 448.153 349.082 450.103 345.174 451.853L350.483 451.362C349.604 452.679 345.523 452.715 341.25 452.753C336.875 452.792 332.298 452.833 330.754 454.253L313.975 451.495C314.179 451.874 313.897 452.327 313.627 452.761C313.197 453.453 312.798 454.095 314.453 454.302C310.308 454.365 306.692 454.533 312.12 455.937C289.33 452.126 266.196 452.62 243.223 453.109H243.222C225.792 453.481 208.455 453.851 191.433 452.337C188.766 452.576 190.296 453.516 191.331 454.133C186.654 452.491 185.118 453.52 183.561 454.564C182.697 455.143 181.826 455.727 180.406 455.86L169.764 452.176C166.755 452.953 167.485 453.735 168.095 454.389C168.361 454.673 168.604 454.933 168.508 455.158C159.673 455.496 150.942 455 142.548 454.522L142.547 454.522C131.8 453.91 121.607 453.33 112.46 454.576C110.018 453.952 110.14 453.257 110.247 452.647C110.368 451.96 110.47 451.382 106.844 451.144C111.919 453.222 105.531 453.578 99.6335 453.907H99.6331C95.1701 454.156 90.9878 454.39 92.2659 455.341C89.2941 453.839 84.5545 453.482 80.2872 453.161C74.4451 452.722 69.4883 452.349 71.1652 449.193C62.9593 448.871 64.3783 451.6 66.746 452.105C57.2323 451.909 49.5563 451.895 41.7863 453.677C39.903 453.212 33.8343 453.271 26.4191 453.343C23.435 453.372 20.2329 453.404 16.9976 453.404C11.3646 453.404 5.62049 453.312 0.756779 452.962C-0.414272 452.87 -1.57677 452.765 -2.66235 452.646L-4.73092 452.442C-5.41475 452.372 -6.06438 452.295 -6.67128 452.211C-8.53721 452.032 -10.3541 451.601 -12.0479 450.934C-10.5349 451.635 -9.75705 452.056 -9.61173 452.337C-9.46642 452.618 -10.099 452.744 -11.176 452.828C-14.7108 452.933 -18.2369 453.184 -21.7411 453.579C-19.835 454.467 -17.875 455.275 -15.8687 456L-33.6568 455.789V454.491C-33.9388 451.453 -33.8106 450.428 -33.5456 450.281C-33.5791 449.484 -33.2184 448.709 -32.5455 448.134C-32.0412 447.495 -31.4685 446.295 -31.0924 442.976C-31.0155 437.973 -31.3745 435.482 -31.9472 433.419C-32.2117 432.493 -32.5186 431.636 -32.8423 430.734L-32.9387 430.464C-33.3683 429.686 -33.7478 428.89 -34.0756 428.078L-34.5201 429.152L-34.7936 424.401C-34.7656 423.254 -34.4401 424.186 -33.9615 425.556C-32.9799 428.367 -31.3545 433.021 -30.3317 425.356C-31.1181 425.194 -35.0244 418.486 -32.896 415.419C-33.0499 421.251 -30.9727 420.479 -30.118 418.374L-29.8957 410.206L-33.6482 412.9C-33.5558 402.362 -32.9643 391.631 -32.3637 380.735C-31.6306 367.434 -30.8839 353.889 -31.0155 340.153C-29.5348 340.307 -29.3519 336.742 -29.1589 332.977C-28.9228 328.375 -28.6716 323.476 -26.015 324.715L-26.4766 325.676C-26.0065 331.809 -22.6643 323.894 -23.2113 318.898C-23.8621 321.109 -24.8279 319.775 -25.7801 318.46C-27.0792 316.665 -28.3531 314.906 -28.7674 322.231L-31.0497 312.407C-36.4595 309.22 -35.2809 300.815 -33.962 291.409C-33.024 284.72 -32.0152 277.525 -33.255 271.342C-32.896 272.394 -32.4002 272.668 -32.1096 272.801C-33.9322 264.678 -32.5724 255.343 -31.5962 248.642C-30.9838 244.437 -30.5223 241.269 -31.0924 240.087L-28.5281 238.915C-32.4259 227.611 -32.7592 226.27 -31.1779 212.797C-31.072 212.839 -30.9501 212.958 -30.8185 213.086C-30.3979 213.495 -29.8785 214.001 -29.4683 212.397C-31.3489 209.155 -33.2294 205.892 -32.708 196.665L-31.913 197.044L-32.3319 182.609C-28.5738 182.66 -29.5216 176.978 -30.5903 170.57C-31.7506 163.613 -33.0536 155.801 -28.6306 153.544C-30.1985 151.601 -31.0321 146.013 -31.7524 141.184C-32.0806 138.984 -32.3852 136.942 -32.7251 135.475C-32.3917 135.439 -32.0412 135.145 -31.6737 134.366C-34.3284 130.866 -33.1002 125.41 -31.9537 120.316C-31.2841 117.341 -30.6424 114.491 -30.8189 112.226C-31.8228 108.21 -33.1486 109.937 -34.4842 111.676L-34.503 111.7C-32.462 106.858 -34.314 99.7516 -35.7334 94.3049C-36.6323 90.8553 -37.3578 88.0715 -36.8109 86.9504C-36.6026 83.2282 -35.4131 83.3917 -34.1357 83.5673C-33.4216 83.6655 -32.6799 83.7674 -32.0669 83.1962C-32.4158 79.1987 -33.9679 79.2227 -35.2202 79.2421C-36.6673 79.2645 -37.7142 79.2808 -36.0416 73.0774C-35.9555 73.4167 -35.8737 73.8282 -35.7922 74.2385C-35.55 75.457 -35.3099 76.6649 -34.9646 75.9404C-34.689 74.1162 -32.9898 71.6962 -31.2188 69.1738C-28.7047 65.5934 -26.046 61.8068 -27.1091 59.2254L-28.511 62.1305C-29.4638 58.3451 -28.1079 53.9061 -26.9547 50.1306C-25.656 45.8786 -24.6143 42.4682 -27.4169 41.7806L-29.8701 42.5385C-28.246 35.5984 -28.4853 34.1248 -28.776 32.6302C-28.8529 32.2582 -28.9298 31.8793 -28.9811 31.4162C-29.0324 31.1846 -29.0324 30.932 -29.0324 30.6443V30.1671V29.4654C-28.9015 26.4512 -28.5648 23.4455 -28.0237 20.4623L-27.622 20.8412C-27.7369 18.8294 -27.6483 16.8132 -27.357 14.8134C-27.102 13.3817 -26.9621 11.9377 -26.9382 10.4908C-24.9209 10.4487 -23.6558 10.0487 -22.9891 8.8067L-26.8612 8.37163C-20.7495 8.24532 -17.2535 8.23831 -13.8344 8.28743L-1.14938 8.519C-0.0467148 8.21024 4.51782 7.705 5.83419 8.40672C6.21787 6.0351 22.9168 6.87603 29.7818 7.22174L29.7819 7.22175C30.7168 7.26883 31.4693 7.30672 31.9734 7.32607C25.4052 7.67117 27.3408 8.60073 29.3456 9.56348C29.6237 9.69702 29.9031 9.8312 30.1613 9.96454C34.5634 7.76815 37.615 7.5436 43.7096 9.12949C44.59 5.77526 45.8038 2.19648 57.8477 2C57.3635 2.13009 56.8096 2.24529 56.2749 2.35651L56.2748 2.35652L56.2747 2.35653C54.7327 2.67725 53.35 2.96481 54.2576 3.48063C55.4644 4.1665 58.2042 3.43653 59.1868 3.17474L59.2239 3.16486C59.7707 3.4791 59.261 3.76256 58.6741 4.08891C57.9766 4.47675 57.1702 4.92515 57.899 5.55773C62.6654 3.67935 66.6723 3.92199 71.5429 4.21694C74.9877 4.42554 78.8645 4.6603 83.7476 4.18937C81.0398 4.91669 82.0254 5.46081 83.2771 6.15194C83.7403 6.40767 84.2399 6.68354 84.6024 6.99626C85.0597 5.09476 89.0914 5.92248 92.4495 6.61189C95.8081 7.30141 98.4928 7.85258 96.2531 5.39633C107.489 6.82667 121.664 6.91519 134.296 6.99406C147.63 7.07732 159.244 7.14984 163.866 8.77863C165.377 9.63735 168.45 9.09007 171.525 8.54235C173.376 8.2128 175.227 7.8831 176.739 7.85938L176.192 9.52246C181.999 7.96132 184.143 7.71268 186.679 7.41869C189.055 7.14312 191.775 6.82769 198.177 5.35423C192.698 7.33309 194.989 8.24532 200.502 9.81718L209.589 6.30857L211.187 8.99617C214.878 7.99778 218.977 8.38315 223.09 8.78507C225.174 7.16773 230.737 6.56253 235.534 6.0407C239.079 5.65505 242.205 5.31494 243.199 4.64549C245.268 6.42698 248.061 6.15775 250.694 5.90387C253.215 5.66074 255.591 5.43169 257.046 7.03135C258.636 6.4887 260.288 6.07962 261.978 5.81035C260.029 4.2806 259.311 2.57541 262.97 3.32625C263.278 3.2631 263.517 3.2631 263.825 3.2631L265.415 5.29108C268.74 4.87097 272.095 4.62254 275.458 4.54725C274.154 4.31086 272.88 3.97249 271.654 3.53677C272.778 3.74772 273.839 3.99641 274.866 4.23726L274.867 4.23744L274.867 4.23756L274.868 4.23764L274.868 4.23774C275.31 4.34122 275.745 4.44326 276.176 4.54023H277.518C277.256 4.60786 276.982 4.64101 276.706 4.63847C279.29 5.22704 282.021 5.22704 284.604 4.63847C290.726 6.09321 297.493 5.24476 304.44 4.37383C312.303 3.38787 320.397 2.3731 328.044 4.63847C325.882 4.20341 322.856 4.03499 322.001 4.73672C327.25 4.65114 332.486 5.1512 337.348 5.61549C338.068 5.68424 338.779 5.7522 339.481 5.81737C339.937 5.87078 340.857 5.9242 341.704 5.97337L341.707 5.97356L341.834 5.98089L342.157 5.99981L345.046 6.15419L345.62 6.17999C347.306 6.25601 348.938 6.32962 350.474 6.32962C353.777 6.4065 357.082 6.25863 360.355 5.88754C360.603 5.25599 360.834 4.62444 361.039 3.99991L373.006 3.35432C373.579 10.6312 373.912 17.5642 373.775 24.7498C374.673 24.7919 375.528 24.8481 376.382 24.9182C376.314 25.8936 376.246 27.0023 376.246 28.0339V30.953C376.254 32.2723 376.314 33.7038 376.4 35.1985C376.46 36.3125 376.534 37.4619 376.609 38.6282C376.734 40.584 376.863 42.5875 376.938 44.5524C377.169 50.8328 376.861 56.6852 374.169 59.2886C375.348 60.488 374.937 64.2168 374.511 68.0848C374.2 70.9153 373.88 73.8203 374.169 75.8632L372.168 77.0842C371.675 81.7321 371.873 86.4119 372.758 91.0204C369.986 99.4469 370.805 107.459 371.59 115.141C371.996 119.114 372.393 123 372.279 126.808L371.707 126.914L373.091 138.239C372.409 137.098 372.429 137.15 372.685 137.841C373.1 138.959 374.135 141.749 373.818 143.853C374.801 147.46 374.263 153.305 372.963 157.551L372.827 164.771C371.994 159.697 371.065 161.268 369.911 163.221C369.241 164.354 368.494 165.617 367.647 165.782L369.476 170.399C368.945 171.274 368.511 170.634 368.149 170.098C367.752 169.512 367.44 169.05 367.176 170.827C367.654 172.033 367.928 174.159 368.226 176.473C368.691 180.084 369.216 184.153 370.664 185.893C371.455 185.031 371.999 184.033 372.254 182.974C372.066 182.588 372.1 182.609 372.254 182.855L372.374 182.539L372.368 182.565L372.36 182.594C372.354 182.615 372.349 182.635 372.343 182.653L372.339 182.667C372.334 182.683 372.329 182.699 372.325 182.715C372.321 182.727 372.318 182.739 372.315 182.751C372.312 182.765 372.309 182.78 372.306 182.796C372.3 182.832 372.297 182.874 372.297 182.925C372.533 183.375 372.838 183.8 373.203 184.188C372.789 188.67 373.282 188.369 374.01 187.925C374.214 187.8 374.438 187.664 374.664 187.619C372.986 190.643 372.606 193.047 372.257 195.254C371.894 197.556 371.564 199.642 369.83 201.99C371.639 200.041 371.609 203.574 371.577 207.308C371.543 211.321 371.507 215.565 373.75 213.485C371.846 216.01 371.877 216.804 371.901 217.426C371.923 217.996 371.939 218.421 370.45 219.906C371.232 214.654 369.455 209.419 367.88 204.78L367.88 204.779L367.879 204.778C367.405 203.38 366.949 202.036 366.587 200.763L364.39 206.166C361.946 204.047 362.999 200.11 363.938 196.603C364.565 194.257 365.141 192.103 364.586 190.812C365.482 192.865 364.664 197.317 363.801 197.948L366.792 196.58C367.9 189.956 366.259 184.486 364.794 179.602L364.794 179.601L364.793 179.601L364.793 179.6C364.553 178.799 364.317 178.013 364.099 177.241C363.602 179.698 363.158 178.425 362.591 176.799C361.96 174.988 361.176 172.741 359.996 174.715L360.372 178.799C359.478 180.296 358.697 178.065 357.953 175.937C357.766 175.402 357.581 174.874 357.398 174.413C358.528 168.167 358.66 159.398 358.778 151.491C358.905 143.071 359.017 135.628 360.304 133.25C359.5 135.889 360.176 140.73 361.082 143.039L362.407 136.99C362.438 138.973 362.001 140.786 361.534 142.72C360.844 145.583 360.09 148.711 360.697 153.046C361.418 152.604 362.233 153.012 363.112 153.452C364.66 154.229 366.404 155.103 368.177 151.593C369.8 144.485 368.402 141.658 366.765 138.349C365.204 135.193 363.426 131.599 363.843 123.433C363.673 123.002 363.851 123.085 364.172 123.235C365.001 123.621 366.792 124.456 366.04 118.03C364.082 106.823 359.577 98.6131 355.252 98.6131L355.257 98.6324C356.507 103.354 359 112.776 355.859 114.212C355.49 112.817 355.165 111.123 354.838 109.417C354.059 105.359 353.268 101.237 351.842 100.936C353.717 98.428 353.937 100.862 354.125 102.941C354.303 104.899 354.451 106.542 355.927 103.441C355.875 100.911 355.172 99.4875 354.569 98.2664C354.384 97.8921 354.208 97.5368 354.064 97.1745C355.124 98.7098 355.952 96.6647 356.646 94.9509C356.947 94.2049 357.224 93.5218 357.483 93.2238C357.519 87.5712 357.983 83.1843 358.466 78.6145C358.899 74.5159 359.348 70.2702 359.518 64.8322C360.03 64.2217 361.227 62.9656 362.082 63.2954C361.133 57.6746 355.705 49.6399 353.44 51.7451C353.382 48.7825 353.698 47.0824 353.974 45.5983C354.311 43.7814 354.588 42.288 354.047 39.1983C352.527 43.338 352.532 43.2677 352.629 41.9025C352.742 40.3195 352.979 36.9956 351.107 36.4756C350.861 33.0438 351.5 33.0064 352.237 32.9635C352.731 32.9347 353.268 32.9033 353.611 31.8442C353.585 31.7849 353.555 31.7144 353.521 31.6358L353.521 31.6348C353.436 31.435 353.329 31.1835 353.201 30.932L352.919 30.3917L352.842 30.2513L352.756 30.1671L352.594 29.9987C352.256 29.5951 351.73 29.3236 351.141 29.2479C351.707 28.735 352.58 28.5333 353.389 28.7286C354.353 29.0186 355.228 29.4785 355.953 30.0759C356.19 30.2508 356.413 30.4384 356.62 30.6373C356.842 30.8337 357.064 31.0162 357.295 31.1916C357.685 31.5102 358.131 31.7776 358.62 31.9846C359.492 32.3214 360.338 32.1951 361.116 31.1565C362.065 29.8373 363.458 25.3393 364.629 20.5255C365.681 16.2031 366.56 11.5809 366.827 10.1742C366.858 10.0142 366.88 9.89584 366.894 9.8242C366.305 9.53649 365.339 9.78911 364.15 10.575C361.046 12.5024 358.276 14.7688 355.919 17.3116C354.261 18.8273 352.611 20.3991 351.235 21.7815L351.115 21.9014C349.79 23.2329 348.646 24.3823 347.816 25.234C346.918 25.7355 347.23 25.233 347.88 24.1878C347.947 24.0805 348.017 23.9673 348.09 23.849C348.132 23.7814 348.174 23.712 348.217 23.6411C348.294 22.9674 348.072 22.0903 347.363 21.9991C346.744 21.3723 345.771 21.0579 344.798 21.171C343.766 21.2454 342.762 21.4837 341.841 21.8728C341.533 21.9794 341.297 22.0956 341.059 22.2128C340.529 22.4733 339.989 22.7392 338.627 22.9183C336.94 23.2153 335.2 23.2487 333.498 23.0166L339.122 21.5009C337.9 20.8132 327.027 21.6973 325.318 22.6727C325.225 22.3531 325.841 21.6964 326.565 20.9231C327.987 19.4043 329.831 17.4356 327.566 16.687C314.308 16.1888 301.709 21.4166 302.563 24.2235L322.882 21.2903C323.221 22.4177 319.933 23.014 316.503 23.6363C312.759 24.3154 308.844 25.0253 309.291 26.4901L290.579 25.648C292.939 25.5708 300.161 24.8972 297.324 23.599C292.309 23.6778 291.929 23.4997 291.049 23.0868C290.519 22.8381 289.807 22.5044 287.793 22.0903C297.007 19.101 313.906 11.4241 319.89 7.77517L310.239 9.35404L307.82 7.9506C296.293 9.66068 285.784 17.5551 281.553 20.7339L281.552 20.7346C281.165 21.0252 280.831 21.2764 280.553 21.4798C273.304 20.8833 275.869 15.845 277.578 14.8626C270.584 14.7419 267.07 16.4583 263.603 18.152C260.015 19.9047 256.477 21.6332 249.182 21.2763L254.567 22.371C253.076 22.5782 249.853 22.4978 246.827 22.4224C242.986 22.3267 239.462 22.2388 240.198 22.7569C237.574 21.5177 235.148 18.7246 237.297 17.6339L225.439 22.0587C226.349 21.6147 226.348 20.135 226.346 18.8537C226.345 17.9549 226.345 17.1538 226.659 16.8765C221.796 16.7294 218.314 21.1007 220.787 22.0829C217.144 21.024 215.239 20.5936 213.822 20.2736C211.552 19.7607 210.536 19.5312 205.631 17.4519C202.682 17.7326 205.905 21.7465 208.059 22.1815C203.543 23.0017 198.869 23.0471 194.331 22.3148C201.62 21.1664 200.567 17.5625 199.633 14.3673C199.158 12.7402 198.713 11.2191 199.417 10.1821L175.748 22.2306C176.603 21.5079 178.44 17.6484 178.312 17.1853C176.329 20.736 149.224 21.2412 135.958 20.736H137.949C140.633 19.5009 129.231 18.5045 124.563 19.7676C125.178 19.2032 125.969 19.2122 127.238 19.2265C127.595 19.2305 127.989 19.235 128.427 19.2273C124.088 17.9068 121.242 19.1847 118.407 20.4583C115.456 21.7837 112.516 23.1043 107.912 21.4868C116.127 21.8236 117.734 20.3641 117.315 18.9606C115.142 19.3815 112.04 19.5184 108.95 19.6548C102.512 19.9389 96.1295 20.2205 98.3302 23.0657C97.0234 22.7975 95.7568 22.6571 94.6364 22.533C92.0631 22.2479 90.2614 22.0482 90.5175 20.5816L74.0373 23.0938C75.2318 22.6595 76.2901 21.4211 71.4986 21.1305C75.4533 21.3663 79.3466 20.7861 82.8884 20.2583C87.6447 19.5495 91.7669 18.9352 94.5521 20.5184C94.6367 19.6273 94.287 18.8777 93.9658 18.1891C93.3461 16.8606 92.8325 15.7594 95.7488 14.3082C82.3315 15.2428 73.4783 17.9932 65.1321 20.5862C62.3867 21.4391 59.6961 22.275 56.916 23.0236L41.2136 21.143L40.5469 22.3359L37.8202 19.3325C37.4214 19.4726 37.05 19.608 36.7083 19.7326C35.3724 20.2197 34.4903 20.5413 34.2044 20.329C33.8454 20.0623 34.3326 19.6694 35.1105 19.2203C33.7658 19.2994 32.4418 19.5356 31.1785 19.922C30.5716 18.3431 33.3411 16.5327 36.3072 14.8976C37.7176 15.459 39.1707 16.0274 40.6324 16.5607C43.7011 15.052 45.9149 13.5012 41.641 12.5048C41.0341 12.7083 40.2905 12.9258 39.4357 13.1504C41.3846 12.0276 42.5984 11.1013 41.1453 10.6592L29.1783 12.1048C30.3786 12.462 32.0923 13.1651 34.1058 13.9911L34.1059 13.9911L34.1121 13.9937L34.1221 13.9978L34.1242 13.9986C34.3991 14.1114 34.6796 14.2265 34.9652 14.3433C27.426 16.3081 18.844 18.701 25.5626 20.7219L16.4164 18.9536C11.0484 20.4412 8.83448 21.0377 6.32141 21.5359C5.07343 21.7815 3.73997 22.0061 1.91074 22.3078L-1.26905 22.8271L-2.21786 22.9815C-2.50937 23.0121 -2.79596 23.0686 -3.07265 23.1499C-3.37182 23.2692 -3.67954 23.3955 -3.99581 23.5358C-4.16282 23.0505 -4.09865 22.5312 -3.81631 22.0833L-3.81458 22.079C-3.63572 21.6385 -3.46817 21.2259 -4.19241 20.8412C-5.6199 21.8096 -6.97045 21.8938 -8.7655 21.5991C-9.98489 21.3989 -11.4528 21.0206 -13.0057 20.6203C-13.7388 20.4314 -14.4909 20.2376 -15.2447 20.0553C-16.3132 21.1851 -16.9885 22.7078 -15.4584 23.9148C-15.0054 26.1392 -14.219 26.7146 -13.4155 27.1497C-12.4956 27.4849 -11.744 28.0696 -11.2871 28.8058C-11.3268 28.7925 -11.3698 28.7774 -11.4152 28.7615C-11.8486 28.6097 -12.4988 28.3818 -12.5607 28.89C-12.1594 29.3079 -11.7223 29.7019 -11.2529 30.0689C-11.2328 30.0878 -11.2136 30.0995 -11.1947 30.1111C-11.1576 30.1338 -11.1216 30.1558 -11.082 30.2303L-10.9195 30.525L-10.5947 31.1215L-9.93655 32.3144C-10.3207 33.1057 -10.6949 32.5171 -11.0801 31.9111C-11.6376 31.034 -12.2182 30.1207 -12.8855 33.3038C-12.7705 33.8425 -12.6576 34.368 -12.5473 34.8817C-10.7723 43.1466 -9.65911 48.3302 -10.8341 55.5975C-10.5029 61.4886 -9.01806 59.6815 -7.79847 58.1972C-6.75182 56.9234 -5.9005 55.8872 -6.14132 60.1587C-6.27494 60.2431 -6.4101 60.3268 -6.54615 60.4111L-6.54753 60.412L-6.5486 60.4126L-6.54906 60.4129C-8.59661 61.6816 -10.8459 63.0752 -11.1503 68.4881C-10.6123 69.5963 -10.0493 70.2473 -9.50508 70.8767C-8.55363 71.977 -7.6595 73.011 -7.05593 76.3053L-10.3383 75.9825C-10.3148 76.6769 -10.2819 77.351 -10.2505 77.9961L-10.2505 77.9962L-10.2504 77.9963L-10.2504 77.9964L-10.2504 77.9966C-10.0648 81.8043 -9.92821 84.6058 -12.0479 84.6418C-10.9209 87.4361 -10.7058 90.4242 -11.4239 93.308C-11.3832 93.4792 -11.3407 93.6394 -11.2966 93.7891C-11.3751 94.1011 -11.455 94.3976 -11.5314 94.6811C-12.1156 96.8504 -12.4951 98.2595 -10.5129 100C-9.67995 99.0828 -10.0114 97.1144 -10.4561 95.3477C-8.85148 96.6378 -6.37761 91.7944 -4.76399 88.6352C-4.20881 87.5482 -3.75547 86.6606 -3.47439 86.2908C-4.44718 89.0956 -4.81421 91.5619 -5.14286 93.7704C-5.6488 97.1702 -6.0638 99.9589 -8.45778 102.43L-9.31256 96.1149C-11.2972 102.784 -10.1863 105.99 -9.39265 108.279C-8.57973 110.625 -8.09971 112.01 -11.6205 115.174C-11.364 110.535 -13.1163 104.999 -14.9199 107.728L-13.2104 114.423C-13.5938 114.772 -13.759 114.074 -13.9081 113.444C-14.0981 112.642 -14.2619 111.95 -14.8174 113.672C-13.8416 116.255 -12.6595 118.782 -11.2786 121.237L-11.4837 121.152L-10.9791 132.152C-11.2122 130.853 -12.031 130.838 -12.1419 132.71L-10.4323 140.639C-11.2615 138.211 -12.2701 140.695 -12.8001 144.253C-13.2963 149.323 -11.4837 151.376 -9.93868 153.126C-8.37015 154.902 -7.07753 156.366 -8.75695 160.358C-8.72284 159.784 -8.80782 159.449 -8.89308 159.113C-8.97877 158.775 -9.06475 158.436 -9.03048 157.852L-10.5007 161.929C-7.01207 162.358 -6.83143 168.366 -6.6508 174.375C-6.47029 180.38 -6.28978 186.385 -2.80766 186.82C-4.58497 190.492 -4.78496 189.685 -5.52216 186.711C-5.95144 184.979 -6.56287 182.512 -7.77395 179.767ZM-10.9281 133.264C-10.9022 132.828 -10.9247 132.455 -10.9791 132.152L-10.9281 133.264ZM-10.4561 95.3477C-10.5621 94.9265 -10.6746 94.5167 -10.7793 94.1354C-10.893 93.7209 -10.9975 93.3401 -11.0745 93.0147L-11.111 93C-11.1703 93.274 -11.233 93.5366 -11.2966 93.7891C-11.0599 94.5921 -10.7752 95.0912 -10.4561 95.3477ZM221.197 22.2026C221.058 22.1618 220.921 22.1219 220.787 22.0829C220.909 22.1314 221.045 22.1716 221.197 22.2026ZM225.223 22.1394C225.3 22.1184 225.372 22.0914 225.439 22.0587L225.223 22.1394ZM92.834 455.656C92.6528 455.546 92.4633 455.441 92.2659 455.341C92.3965 455.439 92.584 455.543 92.834 455.656ZM166.2 436.043C166.371 436.079 166.598 436.101 166.875 436.112L166.2 436.043ZM-8.24408 361.71C-8.22792 361.956 -8.21382 362.198 -8.20171 362.435C-8.2006 362.167 -8.21408 361.922 -8.24408 361.71ZM223.071 8.8003C221.833 8.80967 221.955 8.927 222.185 9.14799C222.286 9.24567 222.409 9.3636 222.445 9.50141C222.585 9.24844 222.797 9.01545 223.071 8.8003ZM51 18.5742C49.3661 19.3679 46.8464 18.9631 44 18.0901C46.331 17.8798 48.6837 18.0382 50.957 18.5584L51 18.5742ZM372.267 151.927C372.281 151.951 372.294 151.975 372.306 152L372.256 151.984L372.267 151.927ZM372.267 151.927C372.237 151.877 372.203 151.827 372.166 151.78C372.49 150.452 372.678 149.656 372.767 149.275C372.812 149.087 372.832 149 372.834 149C372.835 149 372.821 149.063 372.797 149.181L372.797 149.182C372.714 149.583 372.5 150.615 372.267 151.927ZM371.217 160.303C371.476 161.172 371.735 161.113 372 160.748C371.527 160.142 371.495 158.206 371.637 156C371.113 156.592 370.77 157.709 371.184 160.288L371.217 160.303ZM-31.3246 448L-32 451.073L-31.9473 451.153C-31.5936 451.685 -31.2633 452.183 -31.1024 451.934C-30.9335 451.673 -30.9513 450.682 -31.3246 448Z" fill="white"/>
<path d="M92.1029 21.0746C91.7173 20.8178 91.4439 20.4239 91.3381 19.9729C90.6574 20.3308 90.6153 20.7237 92.1029 21.0746Z" fill="white"/>
<path d="M58.7094 243.428C58.7094 243.519 58.7094 243.617 58.7094 243.708C58.8009 243.836 58.9278 243.933 59.0743 243.989L58.7094 243.428Z" fill="white"/>
<path d="M353.049 31.7474C353.103 31.1283 353.269 30.5243 353.541 29.9651C353.705 29.7139 353.893 29.4789 354.102 29.2634C353.827 29.2723 353.577 29.4239 353.442 29.6634C353.334 29.827 353.254 30.0071 353.204 30.1967C353.204 30.1967 353.204 30.1967 353.204 30.2949V30.4703C353.204 30.5896 353.204 30.723 353.162 30.8563C353.091 31.1229 353.091 31.4176 353.049 31.7474Z" fill="white"/>
<path d="M373.209 204.217L372.697 198.905C372.771 200.531 372.532 202.155 371.995 203.691C372.493 203.585 373.181 202.575 373.209 204.217Z" fill="white"/>
<path d="M360.501 250.311C360.747 251.083 360.501 251.953 360.775 252.725L361.722 252.515C361.666 249.203 360.915 246.894 360.501 250.311Z" fill="white"/>
<path d="M366.423 209.129C364.718 209.55 365.287 212.883 365.588 216.602C365.574 216.385 365.574 216.167 365.588 215.949C368.002 217.051 367.223 213.079 366.423 209.129Z" fill="white"/>
<path d="M365.666 217.465C365.758 218.611 365.77 219.762 365.701 220.91C366.655 221.345 365.905 219.514 365.666 217.465Z" fill="white"/>
<path d="M370.992 170.795C370.543 172.557 373.174 171.911 372.472 172.9C374.641 174.886 369.876 161.133 370.992 170.795Z" fill="white"/>
<path d="M360.81 212.125L362.922 210.799L361.231 208.708L360.81 212.125V212.125Z" fill="white"/>
<path d="M362.445 182.745L361.842 188.696C362.193 188.604 362.403 189.362 362.543 190.288C362.635 186.626 363.07 182.612 362.445 182.745Z" fill="white"/>
<path d="M362.558 190.288C362.445 191.899 362.566 193.518 362.915 195.095C362.895 193.487 362.776 191.882 362.558 190.288Z" fill="white"/>
<path d="M360.2 204L360.642 202.238L360.81 198.042L360.2 204V204Z" fill="white"/>
<path d="M363.042 118.828L362.452 112.337C361.751 111.67 361.287 113.439 361.568 115.846C362.066 117.41 362.34 119.817 363.042 118.828Z" fill="white"/>
<path d="M357.204 138.433C357.646 136.686 358.123 136.567 358.818 135.577L356.2 135.374L357.204 138.433Z" fill="white"/>
<path d="M356.649 119.508C355.947 118.863 354.6 110.085 354.733 118.308C355.456 118.968 356.038 125.473 356.649 119.508Z" fill="white"/>
<path d="M360.249 22.3167V23.8393C361.68 23.1657 363.112 22.464 364.543 21.7343C363.098 21.8054 361.661 22.0003 360.249 22.3167Z" fill="white"/>
<path d="M282.922 25.3619C290.641 26.3864 284.747 22.7165 291.7 24.0006C293.504 22.9832 286.017 22.9481 287.869 22.078C283.252 23.1797 280.817 22.5411 282.922 25.3619Z" fill="white"/>
<path d="M287.89 22.078C288.634 21.9096 289.42 21.6991 290.262 21.4254C289.449 21.5519 288.653 21.7709 287.89 22.078V22.078Z" fill="white"/>
<path d="M346.496 456.364L351.45 457.248L348.25 455.817L346.496 456.364V456.364Z" fill="white"/>
<path d="M355.982 453.164L357.154 455.894L360.122 453.417C359 453.536 356.838 453.782 355.982 453.164Z" fill="white"/>
<path d="M61.839 79.8135L61.1794 79.4346C60.4777 80.1994 60.4145 81.3572 60.3022 83.6798L61.839 79.8135Z" fill="white"/>
<path d="M59.7903 146.882L59.8464 145.724L57.3765 147.885L59.7903 146.882V146.882Z" fill="white"/>
<path d="M62.9405 203.171C63.0457 200.877 62.4914 198.175 62.5966 195.867C63.0457 200.877 59.86 203.796 62.9405 203.171Z" fill="white"/>
<path d="M99.3164 347.293C116.492 347.293 130.416 333.369 130.416 316.193C130.416 299.018 116.492 285.094 99.3164 285.094C82.1408 285.094 68.2173 299.018 68.2173 316.193C68.2173 333.369 82.1408 347.293 99.3164 347.293Z" fill="#9F9DED"/>
<path d="M343.38 210.617L280.817 251.49C277.856 253.42 272.818 250.936 269.555 245.94L234.61 192.422C231.348 187.433 231.102 181.819 234.056 179.882L296.64 139.016C299.594 137.086 304.633 139.57 307.867 144.566L342.819 198.077C346.075 203.073 346.334 208.687 343.38 210.617Z" fill="#F3F6FF"/>
<path d="M278.361 138.461L215.777 179.328C212.823 181.265 207.777 178.774 204.55 173.778L169.598 120.266C166.335 115.27 166.09 109.657 169.044 107.727L231.628 66.8603C234.582 64.9307 239.627 67.4147 242.89 72.4107L277.835 125.922C281.069 130.918 281.315 136.532 278.361 138.461Z" fill="#F3F6FF"/>
<path d="M234.442 252.241L171.858 293.115C168.896 295.044 163.858 292.56 160.595 287.564L125.651 234.053C122.388 229.057 122.142 223.444 125.097 221.507L187.681 180.64C190.635 178.71 195.673 181.194 198.908 186.191L233.859 239.702C237.143 244.698 237.396 250.311 234.442 252.241Z" fill="#F3F6FF"/>
<path d="M288.704 369.129C305.879 369.129 319.803 355.206 319.803 338.03C319.803 320.855 305.879 306.931 288.704 306.931C271.528 306.931 257.604 320.855 257.604 338.03C257.604 355.206 271.528 369.129 288.704 369.129Z" fill="#9F9DED"/>
<path d="M220.899 293.887C225.429 292.326 229.677 290.044 233.48 287.129C252.04 272.822 257.71 243.919 257.745 243.926C257.78 243.933 257.745 243.996 257.745 244.115C257.839 248.54 258.221 252.953 258.889 257.328C259.745 263.503 264.594 276.604 273.372 292.413L285.609 289.894C284.943 273.215 285.125 259.812 285.399 250.852C286.101 227.331 288.051 214.223 279.42 207.024C276.798 204.895 273.639 203.53 270.291 203.08C259.464 201.642 250.139 210.799 229.656 234.158C210.809 255.63 201.006 267.798 201.006 267.798C191.884 279.081 180.853 292.862 168.293 308.664C168.609 313.702 169.893 320.895 175.205 325.273C181.274 330.277 187.667 327.533 199.259 329.484C211.988 331.589 220.632 337.771 229.895 343.981C242.813 352.64 244.869 359.046 254.272 367.368C262.952 375.052 277.505 384.019 302.569 387.184L306.555 381.57C292.332 364.625 276.319 346.935 258.341 328.943C245.634 316.299 233.102 304.616 220.899 293.887Z" fill="#472FC8"/>
<path d="M147.944 347.293C165.119 347.293 179.043 333.369 179.043 316.193C179.043 299.018 165.119 285.094 147.944 285.094C130.768 285.094 116.845 299.018 116.845 316.193C116.845 333.369 130.768 347.293 147.944 347.293Z" fill="#ADFFEF"/>
<path d="M273.926 294.736L286.122 291.746C286.367 293.353 286.606 294.953 286.823 296.56C289.534 297.524 292.404 297.962 295.279 297.851C301.776 297.571 310.295 293.339 314.638 294.799C316.105 295.29 317.993 296.406 319.782 299.156C306.709 302.321 288.325 306.573 275.259 309.738C274.116 308.253 273.435 306.464 273.302 304.594C273.217 302.756 273.807 301.788 274.003 299.128C274.131 297.665 274.106 296.193 273.926 294.736V294.736Z" fill="#0D0E56"/>
<path d="M308.639 383.683C312.748 387.623 317.536 390.787 322.771 393.022C333.676 397.59 339.956 393.822 345.548 398.755C347.236 400.284 348.511 402.215 349.253 404.369C335.823 403.667 316.975 402.572 303.552 401.899C303.08 400.901 302.86 399.802 302.913 398.699C303.075 396.257 304.661 395.19 304.45 393.233C304.279 392.099 303.694 391.069 302.808 390.342L308.639 383.683Z" fill="#0D0E56"/>
<path d="M220.766 157.175C237.941 157.175 251.865 143.252 251.865 126.076C251.865 108.901 237.941 94.9772 220.766 94.9772C203.59 94.9772 189.667 108.901 189.667 126.076C189.667 143.252 203.59 157.175 220.766 157.175Z" fill="#ADFFEF"/>
<path d="M197.041 152.706C195.732 149.528 195.402 146.031 196.094 142.664C197.02 138.454 198.845 138.637 199.883 133.542C200.213 131.907 200.368 130.223 201.02 130.132C201.673 130.041 202.508 131.536 202.915 132.785C204.199 136.756 201.238 138.882 202.346 142.257C202.536 142.84 203.75 144.096 206.135 146.615C209.146 149.773 210.023 150.313 211.251 152.109C212.293 153.651 213.082 155.349 213.587 157.14L198.95 156.046C198.185 155.011 197.545 153.89 197.041 152.706V152.706Z" fill="#0D0E56"/>
<path d="M186.664 387.002C203.839 387.002 217.763 373.078 217.763 355.902C217.763 338.727 203.839 324.803 186.664 324.803C169.488 324.803 155.564 338.727 155.564 355.902C155.564 373.078 169.488 387.002 186.664 387.002Z" fill="#ADFFEF"/>
<path d="M137.467 391.942C154.643 391.942 168.566 378.018 168.566 360.842C168.566 343.667 154.643 329.743 137.467 329.743C120.292 329.743 106.368 343.667 106.368 360.842C106.368 378.018 120.292 391.942 137.467 391.942Z" fill="#9F9DED"/>
<path d="M88.6016 391.801C105.777 391.801 119.701 377.878 119.701 360.702C119.701 343.526 105.777 329.603 88.6016 329.603C71.426 329.603 57.5024 343.526 57.5024 360.702C57.5024 377.878 71.426 391.801 88.6016 391.801Z" fill="#ADFFEF"/>
<path d="M128.03 214.153C138.47 214.153 146.933 205.69 146.933 195.249C146.933 184.809 138.47 176.346 128.03 176.346C117.589 176.346 109.126 184.809 109.126 195.249C109.126 205.69 117.589 214.153 128.03 214.153Z" fill="#472FC8"/>
<path d="M198.017 271.79C192.452 263.279 186.193 254.774 180.629 246.27C184.698 246.557 201.483 247.273 214.001 235.478C227.235 223.001 226.632 205.115 226.267 195.235C225.628 176.991 217.847 163.54 213.426 157.077L198.789 155.983C200.334 161.245 201.158 166.693 201.237 172.178C201.28 175.188 201.35 203.052 186.502 210.448C179.401 213.992 176.825 208.883 159.999 211.922C153.22 213.15 148.372 215.009 142.337 217.318C133.237 220.817 124.507 225.213 116.276 230.439C109.218 233.865 102.584 238.104 96.5095 243.07C89.682 248.648 68.0698 266.331 72.2729 279.783C74.1605 285.831 80.5249 288.617 90.2925 292.897C96.4884 295.613 103.849 298.02 128.437 301.184C135.678 302.118 143.67 303.023 152.294 303.816L155.599 295.395C156.067 293.29 156.535 291.185 157.003 289.08C159.265 289.093 161.507 289.504 163.627 290.294C170.475 292.862 173.738 298.651 174.692 300.525C178.025 296.953 181.429 293.108 184.846 288.989C189.828 283.067 194.178 277.306 198.017 271.79Z" fill="#00BEA1"/>
<path d="M96.4043 273.074C99.8777 271.453 112.27 266.149 127.56 269.012C139.832 271.192 150.604 278.475 157.199 289.052C151.343 282.502 143.964 277.497 135.713 274.478C117.939 267.861 101.414 271.72 96.4043 273.074Z" fill="#0D0E56"/>
<path d="M59.8389 391.801L204.248 382.286L296.563 401.351L360.227 404.39L293.173 409.035L204.248 392.047L59.8389 391.801V391.801Z" fill="#5E5FA8"/>
<path d="M153.522 294.308C159.117 297.001 164.498 300.116 169.619 303.626C174.882 307.219 180.79 311.815 180.537 312.439C180.285 313.064 172.741 308.875 172.664 309.113C172.629 309.205 173.864 309.998 176.938 311.794C178.776 314.109 179.962 315.836 179.744 316.2C179.197 317.007 171.794 311.001 171.724 311.134C173.473 312.499 174.967 314.162 176.138 316.046C176.839 317.232 177.801 319.155 177.464 319.52C177.274 319.716 176.594 319.52 174.082 317.127C171.029 314.692 169.001 313.317 168.728 313.716C168.314 314.327 172.306 318.579 171.97 319.141C171.499 319.898 162.209 312.573 149.81 302.3C149.074 300.834 148.95 299.135 149.466 297.578C150.081 295.801 151.656 294.532 153.522 294.308Z" fill="#0D0E56"/>
<path d="M259.226 233.948C259.969 229.738 258.327 231.716 256.861 236.151C256.165 238.109 255.62 240.117 255.233 242.158C254.599 245.812 254.571 249.546 255.149 253.209C255.654 251.708 256.145 250.122 256.608 248.452C257.071 246.782 257.415 245.378 257.745 243.926C257.513 242.48 258.987 235.274 259.226 233.948Z" fill="#0D0E56"/>
<path d="M174.012 237.639L180.657 246.27C182.846 246.27 185.148 246.15 187.561 245.975C190.438 245.757 193.175 245.449 195.694 245.07C190.818 245.979 185.78 245.328 181.295 243.21C178.516 241.864 176.039 239.969 174.012 237.639Z" fill="#0D0E56"/>
<path d="M114.136 231.534C120.451 231.969 143.979 233.26 146.232 225.815C146.716 224.236 146.428 221.605 142.386 217.318C138.275 218.932 133.91 220.826 129.363 223.065C124.147 225.628 119.065 228.455 114.136 231.534H114.136Z" fill="#0D0E56"/>
<path d="M238.905 282.196C235.286 284.549 231.303 286.285 227.116 287.333C225.029 287.895 222.884 288.217 220.724 288.294C217.315 288.392 213.919 287.849 210.71 286.694L220.899 293.887C227.77 291.529 233.954 287.513 238.905 282.196V282.196Z" fill="#0D0E56"/>
<path d="M250.005 335.609C251.444 339.034 254.524 341.3 257.836 341.356C259.856 341.335 261.802 340.588 263.317 339.251C258.591 339.514 253.91 338.225 249.984 335.581L250.005 335.609Z" fill="#0D0E56"/>
<path d="M276.817 214.041C275.014 217.29 275.14 221.107 277.14 223.745C278.395 225.324 280.176 226.4 282.157 226.777C280.758 225.177 279.597 223.383 278.712 221.451C277.648 219.112 277.006 216.603 276.817 214.041Z" fill="#0D0E56"/>
</svg>
