<svg width="45" height="34" viewBox="0 0 45 34" fill="none" xmlns="http://www.w3.org/2000/svg">
<path d="M5.625 17C5.625 14.4439 5.625 13.1659 5.85734 12.1069C6.6936 8.29547 9.67047 5.3186 13.4819 4.48234C14.5409 4.25 15.8189 4.25 18.375 4.25H26.625C29.1811 4.25 30.4591 4.25 31.5181 4.48234C35.3295 5.3186 38.3064 8.29547 39.1427 12.1069C39.375 13.1659 39.375 14.4439 39.375 17V17C39.375 19.5561 39.375 20.8341 39.1427 21.8931C38.3064 25.7045 35.3295 28.6814 31.5181 29.5177C30.4591 29.75 29.1811 29.75 26.625 29.75H18.375C15.8189 29.75 14.5409 29.75 13.4819 29.5177C9.67047 28.6814 6.6936 25.7045 5.85734 21.8931C5.625 20.8341 5.625 19.5561 5.625 17V17Z" stroke="#248C2E" stroke-width="3"/>
<path d="M22.5 11.334L22.5 22.6673" stroke="#248C2E" stroke-width="3" stroke-linecap="round" stroke-linejoin="round"/>
<path d="M30 17L15 17" stroke="#248C2E" stroke-width="3" stroke-linecap="round" stroke-linejoin="round"/>
</svg>
