<svg width="16" height="22" viewBox="0 0 16 22" fill="none" xmlns="http://www.w3.org/2000/svg">
<path id="Shape" fill-rule="evenodd" clip-rule="evenodd" d="M8.83648 0.729554V0.729554C8.34345 0.522913 7.7881 0.522912 7.29508 0.729553V0.729553C7.03776 0.802867 6.79797 0.92756 6.59017 1.0961L0.950923 6.73536C0.172305 7.51397 0.172305 8.77636 0.950923 9.55498C1.72954 10.3336 2.99193 10.3336 3.77055 9.55498L6.00745 7.31808L6.00745 19.4237C5.98173 20.1523 6.35578 20.8369 6.98286 21.2088C7.60994 21.5808 8.39004 21.5808 9.01711 21.2088C9.64419 20.8369 10.0182 20.1523 9.99252 19.4237L9.99252 7.31808L12.2294 9.55498C13.008 10.3336 14.2704 10.3336 15.0491 9.55498C15.8277 8.77636 15.8277 7.51397 15.0491 6.73536L9.4098 1.0961C9.24127 0.941758 9.0473 0.817744 8.83648 0.729554Z" fill="#F33720"/>
</svg>
