<svg width="16" height="22" viewBox="0 0 16 22" fill="none" xmlns="http://www.w3.org/2000/svg">
<path id="Shape" fill-rule="evenodd" clip-rule="evenodd" d="M7.16352 21.2704V21.2704C7.65655 21.4771 8.2119 21.4771 8.70492 21.2704V21.2704C8.96224 21.1971 9.20203 21.0724 9.40983 20.9039L15.0491 15.2646C15.8277 14.486 15.8277 13.2236 15.0491 12.445C14.2705 11.6664 13.0081 11.6664 12.2295 12.445L9.99255 14.6819L9.99255 2.57633C10.0183 1.84769 9.64422 1.16312 9.01714 0.791176C8.39006 0.41923 7.60996 0.41923 6.98289 0.791176C6.35581 1.16312 5.98176 1.84769 6.00748 2.57633L6.00748 14.6819L3.77057 12.445C2.99196 11.6664 1.72957 11.6664 0.950947 12.445C0.172329 13.2236 0.172329 14.486 0.950947 15.2646L6.5902 20.9039C6.75873 21.0582 6.9527 21.1823 7.16352 21.2704Z" fill="#00BEA1"/>
</svg>
