<svg width="19" height="18" viewBox="0 0 19 18" fill="none" xmlns="http://www.w3.org/2000/svg">
<path d="M17.7807 7.81976H4.16092L10.1112 2.03129C10.5867 1.56868 10.5867 0.809539 10.1112 0.346935C9.88338 0.124823 9.57409 0 9.25156 0C8.92903 0 8.61975 0.124823 8.39195 0.346935L0.35665 8.16375C-0.118883 8.62635 -0.118883 9.37363 0.35665 9.83624L8.39195 17.653C8.86748 18.1157 9.63565 18.1157 10.1112 17.653C10.5867 17.1904 10.5867 16.4432 10.1112 15.9806L4.16092 10.1921H17.7807C18.4513 10.1921 19 9.65831 19 9.00592C19 8.35353 18.4513 7.81976 17.7807 7.81976Z" fill="#472FC8"/>
</svg>
