<svg width="43" height="36" viewBox="0 0 43 36" fill="none" xmlns="http://www.w3.org/2000/svg">
<path id="&#239;&#139;&#147;" fill-rule="evenodd" clip-rule="evenodd" d="M38.7493 36C39.7493 36 40.6243 35.625 41.3743 34.875C42.1243 34.125 42.4993 33.25 42.4993 32.25V6.75C42.4993 5.75 42.1243 4.875 41.3743 4.125C40.6243 3.375 39.7493 3 38.7493 3H30.4993L27.4993 0H15.4993L12.4993 3H4.24932C3.24932 3 2.37432 3.375 1.62432 4.125C0.874325 4.875 0.499325 5.75 0.499325 6.75V32.25C0.499325 33.25 0.874325 34.125 1.62432 34.875C2.37432 35.625 3.24932 36 4.24932 36H38.7493ZM21.4993 30.75C18.6243 30.75 16.1556 29.7188 14.0931 27.6562C12.0306 25.5938 10.9993 23.125 10.9993 20.25C10.9993 17.375 12.0306 14.9062 14.0931 12.8438C16.1556 10.7812 18.6243 9.75 21.4993 9.75C24.3743 9.75 26.8431 10.7812 28.9056 12.8438C30.9681 14.9062 31.9993 17.375 31.9993 20.25C31.9993 23.125 30.9681 25.5938 28.9056 27.6562C26.8431 29.7188 24.3743 30.75 21.4993 30.75ZM27.4056 20.25C27.4056 24.1875 25.4368 26.1562 21.4993 26.1562C17.5618 26.1562 15.5931 24.1875 15.5931 20.25C15.5931 16.3125 17.5618 14.3438 21.4993 14.3438C25.4368 14.3438 27.4056 16.3125 27.4056 20.25Z" fill="white"/>
</svg>
