<svg width="70" height="65" viewBox="0 0 70 65" fill="none" xmlns="http://www.w3.org/2000/svg">
<path fill-rule="evenodd" clip-rule="evenodd" d="M3.76296 15.6133C3.38437 12.5418 5.56908 9.74545 8.64102 9.36971L56.6664 3.49557C59.7343 3.12032 62.5261 5.30154 62.9042 8.36909L66.2369 35.4082C66.6155 38.4798 64.4308 41.2761 61.3589 41.6518L13.3336 47.5259C10.2657 47.9012 7.47382 45.72 7.09572 42.6524L3.76296 15.6133Z" fill="#351DB6"/>
<path fill-rule="evenodd" clip-rule="evenodd" d="M43.7117 12.8613C43.5573 11.7667 44.3201 10.7545 45.4148 10.6012L53.3331 9.49266C54.4262 9.33962 55.4366 10.1011 55.5908 11.194L56.2882 16.1387C56.4426 17.2333 55.6798 18.2455 54.5852 18.3988L46.6669 19.5073C45.5738 19.6604 44.5634 18.8989 44.4092 17.806L43.7117 12.8613Z" fill="#00BEA1"/>
<path fill-rule="evenodd" clip-rule="evenodd" d="M0.00262941 28.6052C0.00117762 25.5104 2.51038 23.0012 5.60521 23.0026L58.386 23.0269C61.4768 23.0283 63.982 25.5335 63.9834 28.6243L63.9974 58.3948C63.9988 61.4896 61.4896 63.9988 58.3948 63.9974L5.61401 63.9731C2.52325 63.9717 0.0180447 61.4665 0.0165948 58.3757L0.00262941 28.6052Z" fill="white"/>
<rect x="1.70105" y="25.8602" width="59.5876" height="38.4409" rx="5.6" fill="#472FC8"/>
<mask id="mask0_0_1880" style="mask-type:luminance" maskUnits="userSpaceOnUse" x="1" y="25" width="61" height="40">
<rect x="1.70105" y="25.8602" width="59.5876" height="38.4409" rx="5.6" fill="white"/>
</mask>
<g mask="url(#mask0_0_1880)">
<path fill-rule="evenodd" clip-rule="evenodd" d="M-7.30815 40.9939L3.3224 1.05461L76.6463 20.7819L66.0158 60.7212L-7.30815 40.9939Z" fill="#351DB6"/>
<rect x="21.3299" y="43.6828" width="20.3299" height="2.7957" rx="1.39785" fill="white"/>
<path fill-rule="evenodd" clip-rule="evenodd" d="M31.4949 55.215C30.7205 55.215 30.0928 54.5873 30.0928 53.813V36.3483C30.0928 35.574 30.7205 34.9462 31.4949 34.9462C32.2692 34.9462 32.8969 35.574 32.8969 36.3483V53.813C32.8969 54.5873 32.2692 55.215 31.4949 55.215Z" fill="white"/>
</g>
</svg>
