<svg width="26" height="22" viewBox="0 0 26 22" fill="none" xmlns="http://www.w3.org/2000/svg">
<g clip-path="url(#clip0_0_1105)">
<path fill-rule="evenodd" clip-rule="evenodd" d="M14.935 14C14.5208 13.9575 14.1514 14.2675 14.11 14.6923C14.0686 15.1171 14.3708 15.496 14.785 15.5384C17.111 15.8188 18.9131 17.7575 19.075 20.1538H1.64499C1.82222 17.7645 3.61648 15.8341 5.93499 15.5384C6.3492 15.496 6.65141 15.1171 6.60999 14.6923C6.56856 14.2675 6.1992 13.9575 5.78499 14C5.72999 14 0.109985 14.6564 0.109985 20.9179C0.109985 21.3428 0.445772 21.6872 0.859985 21.6872H19.86C20.2742 21.6872 20.61 21.3428 20.61 20.9179C20.61 14.6564 14.99 14 14.935 14Z" fill="#472FC8" stroke="#472FC8" stroke-width="0.5"/>
<path d="M20.753 12.5545C20.663 12.5545 20.5865 12.523 20.5235 12.46C20.4605 12.397 20.429 12.3205 20.429 12.2305V9.598H17.837C17.747 9.598 17.6705 9.5665 17.6075 9.5035C17.5445 9.4405 17.513 9.3595 17.513 9.2605V8.5585C17.513 8.4595 17.5445 8.383 17.6075 8.329C17.6705 8.266 17.747 8.2345 17.837 8.2345H20.429V5.6695C20.429 5.5705 20.4605 5.494 20.5235 5.44C20.5865 5.377 20.663 5.3455 20.753 5.3455H21.536C21.635 5.3455 21.7115 5.377 21.7655 5.44C21.8285 5.494 21.86 5.5705 21.86 5.6695V8.2345H24.452C24.551 8.2345 24.6275 8.266 24.6815 8.329C24.7445 8.383 24.776 8.4595 24.776 8.5585V9.2605C24.776 9.3595 24.7445 9.4405 24.6815 9.5035C24.6185 9.5665 24.542 9.598 24.452 9.598H21.86V12.2305C21.86 12.3205 21.8285 12.397 21.7655 12.46C21.7115 12.523 21.635 12.5545 21.536 12.5545H20.753Z" fill="#472FC8"/>
<path fill-rule="evenodd" clip-rule="evenodd" d="M10.5 13C12.9853 13 15 10.9853 15 8.5C15 6.01472 12.9853 4 10.5 4C8.01472 4 6 6.01472 6 8.5C6 10.9853 8.01472 13 10.5 13Z" stroke="#472FC8" stroke-width="2"/>
</g>
<defs>
<clipPath id="clip0_0_1105">
<rect width="26" height="22" fill="white"/>
</clipPath>
</defs>
</svg>
