<svg width="86" height="49" viewBox="0 0 86 49" fill="none" xmlns="http://www.w3.org/2000/svg">
<g id="#3">
<g id="ic-add">
<path id="Oval" fill-rule="evenodd" clip-rule="evenodd" d="M43.5 47C55.9264 47 66 36.9264 66 24.5C66 12.0736 55.9264 2 43.5 2C31.0736 2 21 12.0736 21 24.5C21 36.9264 31.0736 47 43.5 47Z" fill="#472FC8"/>
<g id="Add">
<path id="Shape" fill-rule="evenodd" clip-rule="evenodd" d="M53.2105 24.2105H44.7895V15.7895C44.7895 15.3535 44.436 15 44 15C43.564 15 43.2105 15.3535 43.2105 15.7895V24.2105H34.7895C34.3535 24.2105 34 24.564 34 25C34 25.436 34.3535 25.7895 34.7895 25.7895H43.2105V34.2105C43.2105 34.6465 43.564 35 44 35C44.436 35 44.7895 34.6465 44.7895 34.2105V25.7895H53.2105C53.6465 25.7895 54 25.436 54 25C54 24.564 53.6465 24.2105 53.2105 24.2105V24.2105Z" fill="white" stroke="white"/>
</g>
</g>
</g>
</svg>
