<svg width="23" height="23" viewBox="0 0 23 23" fill="none" xmlns="http://www.w3.org/2000/svg">
<g id="noun_Calendar_1058889">
<g id="Group">
<g id="Group_2">
<path id="Shape" fill-rule="evenodd" clip-rule="evenodd" d="M21.0786 2.875H18.2083V0.961141C18.2083 0.429841 17.7793 0 17.25 0C16.717 0 16.2917 0.430317 16.2917 0.961141V2.875H6.70833V0.961141C6.70833 0.429841 6.27927 0 5.75 0C5.21704 0 4.79167 0.430317 4.79167 0.961141V2.875H1.92141C0.85965 2.875 0 3.73486 0 4.79555V21.0794C0 22.1417 0.860243 23 1.92141 23H21.0786C22.1403 23 23 22.1401 23 21.0794V4.79555C23 3.73331 22.1398 2.875 21.0786 2.875ZM21.0829 8.625L21.0833 4.79555C21.0833 4.79489 19.9384 4.79431 18.2083 4.79383V5.74719C18.2083 6.27802 17.783 6.70833 17.25 6.70833C16.7207 6.70833 16.2917 6.27849 16.2917 5.74719V4.79337C13.3646 4.79276 9.63457 4.79233 6.70833 4.79205V5.74719C6.70833 6.27802 6.28296 6.70833 5.75 6.70833C5.22073 6.70833 4.79167 6.27849 4.79167 5.74719V4.79188L1.92141 4.79167C1.92043 4.79167 1.9196 6.4093 1.91891 8.625H21.0829ZM21.0826 10.5417H1.91839C1.91725 15.2298 1.91667 21.0794 1.91667 21.0794C1.91667 21.0822 21.0786 21.0833 21.0786 21.0833C21.0805 21.0833 21.0818 15.2304 21.0826 10.5417Z" fill="#D3CFEA"/>
</g>
</g>
</g>
</svg>
