
<svg width="25" height="19" viewBox="0 0 25 19" fill="none" xmlns="http://www.w3.org/2000/svg">
<g id="Card">
<g id="Shape">
<path fill-rule="evenodd" clip-rule="evenodd" d="M24 4.2C24 1.8804 22.3618 0 20.3409 0H4.65909C2.63823 0 1 1.8804 1 4.2V13.8C1 16.1196 2.63823 18 4.65909 18H20.3409C22.3618 18 24 16.1196 24 13.8V4.2ZM4.65909 1.8H20.3409C21.4957 1.8 22.4318 2.87452 22.4318 4.2V6H2.56818V4.2C2.56818 2.87452 3.50431 1.8 4.65909 1.8ZM20.3409 16.2H4.65909C3.50431 16.2 2.56818 15.1255 2.56818 13.8V7.8H22.4318V13.8C22.4318 15.1255 21.4957 16.2 20.3409 16.2Z" fill="#D3CFEA"/>
<path d="M4.65909 0V0.25V0ZM20.3409 18V18.25V18ZM22.4318 6V6.25H22.6818V6H22.4318ZM2.56818 6H2.31818V6.25H2.56818V6ZM2.56818 7.8V7.55H2.31818V7.8H2.56818ZM22.4318 7.8H22.6818V7.55H22.4318V7.8ZM24.25 4.2C24.25 1.77581 22.5311 -0.25 20.3409 -0.25V0.25C22.1924 0.25 23.75 1.98499 23.75 4.2H24.25ZM20.3409 -0.25H4.65909V0.25H20.3409V-0.25ZM4.65909 -0.25C2.4689 -0.25 0.75 1.77581 0.75 4.2H1.25C1.25 1.98499 2.80756 0.25 4.65909 0.25V-0.25ZM0.75 4.2V13.8H1.25V4.2H0.75ZM0.75 13.8C0.75 16.2242 2.4689 18.25 4.65909 18.25V17.75C2.80756 17.75 1.25 16.015 1.25 13.8H0.75ZM4.65909 18.25H20.3409V17.75H4.65909V18.25ZM20.3409 18.25C22.5311 18.25 24.25 16.2242 24.25 13.8H23.75C23.75 16.015 22.1924 17.75 20.3409 17.75V18.25ZM24.25 13.8V4.2H23.75V13.8H24.25ZM4.65909 2.05H20.3409V1.55H4.65909V2.05ZM20.3409 2.05C21.3264 2.05 22.1818 2.97911 22.1818 4.2H22.6818C22.6818 2.76993 21.665 1.55 20.3409 1.55V2.05ZM22.1818 4.2V6H22.6818V4.2H22.1818ZM22.4318 5.75H2.56818V6.25H22.4318V5.75ZM2.81818 6V4.2H2.31818V6H2.81818ZM2.81818 4.2C2.81818 2.97911 3.67364 2.05 4.65909 2.05V1.55C3.33499 1.55 2.31818 2.76993 2.31818 4.2H2.81818ZM20.3409 15.95H4.65909V16.45H20.3409V15.95ZM4.65909 15.95C3.67364 15.95 2.81818 15.0209 2.81818 13.8H2.31818C2.31818 15.2301 3.33499 16.45 4.65909 16.45V15.95ZM2.81818 13.8V7.8H2.31818V13.8H2.81818ZM2.56818 8.05H22.4318V7.55H2.56818V8.05ZM22.1818 7.8V13.8H22.6818V7.8H22.1818ZM22.1818 13.8C22.1818 15.0209 21.3264 15.95 20.3409 15.95V16.45C21.665 16.45 22.6818 15.2301 22.6818 13.8H22.1818Z" fill="#D3CFEA"/>
</g>
<path id="Oval" fill-rule="evenodd" clip-rule="evenodd" d="M20 5C20.5523 5 21 4.55228 21 4C21 3.44772 20.5523 3 20 3C19.4477 3 19 3.44772 19 4C19 4.55228 19.4477 5 20 5Z" fill="#D3CFEA"/>
<path id="Oval_2" fill-rule="evenodd" clip-rule="evenodd" d="M17 5C17.5523 5 18 4.55228 18 4C18 3.44772 17.5523 3 17 3C16.4477 3 16 3.44772 16 4C16 4.55228 16.4477 5 17 5Z" fill="#D3CFEA"/>
<path id="Oval_3" fill-rule="evenodd" clip-rule="evenodd" d="M14 5C14.5523 5 15 4.55228 15 4C15 3.44772 14.5523 3 14 3C13.4477 3 13 3.44772 13 4C13 4.55228 13.4477 5 14 5Z" fill="#D3CFEA"/>
</g>
</svg>
