<svg width="36" height="36" viewBox="0 0 36 36" fill="none" xmlns="http://www.w3.org/2000/svg">
<path fill-rule="evenodd" clip-rule="evenodd" d="M18 36C27.9411 36 36 27.9411 36 18C36 8.05887 27.9411 0 18 0C8.05887 0 0 8.05887 0 18C0 27.9411 8.05887 36 18 36Z" fill="#F1F2F6"/>
<path fill-rule="evenodd" clip-rule="evenodd" d="M20.1855 30V19.65H23.4644L24 15.05H20.1855V12.8098C20.1855 11.6253 20.2171 10.45 21.9443 10.45H23.6936V7.161C23.6936 7.11155 22.191 7 20.6708 7C17.496 7 15.5081 8.90555 15.5081 12.405V15.05H12V19.65H15.5081V30H20.1855Z" fill="#7B7C98"/>
</svg>
