<svg width="63" height="68" viewBox="0 0 63 68" fill="none" xmlns="http://www.w3.org/2000/svg">
<path d="M13.86 61.9608C13.86 65.1594 10.7571 67.75 6.93 67.75C3.10288 67.75 0 65.1594 0 61.9608V37.2892C0 34.0906 3.10288 31.5 6.93 31.5C10.7571 31.5 13.86 34.0906 13.86 37.2892V61.9608Z" fill="#472FC8"/>
<path fill-rule="evenodd" clip-rule="evenodd" d="M6.93 30.25C10.7573 30.25 13.86 27.172 13.86 23.375C13.86 19.578 10.7573 16.5 6.93 16.5C3.10267 16.5 0 19.578 0 23.375C0 27.172 3.10267 30.25 6.93 30.25Z" fill="#00BEA1"/>
<path d="M62.0802 59.7813C62.0802 65.3038 58.8268 67.2813 53.2602 67.2813H27.6406C22.0739 67.2813 17.5606 62.8038 17.5606 57.2813V32.2813C17.5606 32.2813 17.0629 28.1238 21.7009 24.215C24.3243 22.0025 28.2202 17.785 30.943 12.6638C36.351 2.4925 39.5854 -0.468745 42.0525 0.325005C51.1723 3.25875 46.6111 16.6763 43.669 22.2813H51.9989C57.5656 22.2813 62.0789 26.7588 62.0789 32.2813V59.7813H62.0802Z" fill="#472FC8"/>
<mask id="mask0_0_1348" style="mask-type:luminance" maskUnits="userSpaceOnUse" x="17" y="0" width="46" height="68">
<path d="M62.0802 59.7813C62.0802 65.3038 58.8268 67.2813 53.2602 67.2813H27.6406C22.0739 67.2813 17.5606 62.8038 17.5606 57.2813V32.2813C17.5606 32.2813 17.0629 28.1238 21.7009 24.215C24.3243 22.0025 28.2202 17.785 30.943 12.6638C36.351 2.4925 39.5854 -0.468745 42.0525 0.325005C51.1723 3.25875 46.6111 16.6763 43.669 22.2813H51.9989C57.5656 22.2813 62.0789 26.7588 62.0789 32.2813V59.7813H62.0802Z" fill="white"/>
</mask>
<g mask="url(#mask0_0_1348)">
<path d="M54.052 15.748L105.338 45.123L75.7281 96.002L24.442 66.627L54.052 15.748Z" fill="#351DB6"/>
</g>
</svg>
