<svg width="19" height="22" viewBox="0 0 19 22" fill="none" xmlns="http://www.w3.org/2000/svg">
<g id="Share-3">
<path id="Shape" fill-rule="evenodd" clip-rule="evenodd" d="M1.84315 21.4039H17.9484C18.3408 21.4039 18.6589 21.0727 18.6589 20.6641V8.82787C18.6589 8.41931 18.3408 8.0881 17.9484 8.0881H14.3958C14.0034 8.0881 13.6853 8.41931 13.6853 8.82787C13.6853 9.23643 14.0034 9.56764 14.3958 9.56764H17.2379V19.9244H2.55367V9.56764H5.86946C6.26187 9.56764 6.57999 9.23643 6.57999 8.82787C6.57999 8.41931 6.26187 8.0881 5.86946 8.0881H1.84315C1.45073 8.0881 1.13262 8.41931 1.13262 8.82787V20.6641C1.13262 21.0727 1.45073 21.4039 1.84315 21.4039V21.4039Z" fill="#472FC8" stroke="#472FC8" stroke-width="0.64"/>
<path id="Shape_2" fill-rule="evenodd" clip-rule="evenodd" d="M9.89584 15.7323C10.2883 15.7323 10.6064 15.4011 10.6064 14.9926V3.26482L12.4253 5.59262C12.6725 5.90994 13.12 5.95851 13.4248 5.70112C13.7296 5.44372 13.7762 4.97783 13.529 4.66051L10.3837 0.641119C10.2314 0.56179 10.0729 0.495805 9.91005 0.443848V0.443848C9.71792 0.517197 9.53374 0.611421 9.36058 0.724959L6.28163 4.67038C6.16317 4.82195 6.10756 5.0164 6.12712 5.21075C6.14668 5.4051 6.23978 5.58333 6.38584 5.70605C6.53219 5.82967 6.71972 5.88768 6.90716 5.86733C7.0946 5.84699 7.2666 5.74994 7.38531 5.59755L9.20426 3.26975V14.9926C9.20412 15.3936 9.51085 15.7217 9.89584 15.7323Z" fill="#472FC8" stroke="#472FC8" stroke-width="0.64"/>
</g>
</svg>
