<svg width="18" height="19" viewBox="0 0 18 19" fill="none" xmlns="http://www.w3.org/2000/svg">
<path id="icon/device/signal_cellular_alt_24px" fill-rule="evenodd" clip-rule="evenodd" d="M1.8 0C0.804001 0 0 0.795625 0 1.78125V17.2188C0 18.2044 0.804001 19 1.8 19C2.796 19 3.6 18.2044 3.6 17.2188V1.78125C3.6 0.795625 2.796 0 1.8 0ZM16.2 11.875C15.204 11.875 14.4 12.6706 14.4 13.6562V17.2188C14.4 18.2044 15.204 19 16.2 19C17.196 19 18 18.2044 18 17.2188V13.6562C18 12.6706 17.196 11.875 16.2 11.875ZM7.2 7.71875C7.2 6.73312 8.004 5.9375 9 5.9375C9.996 5.9375 10.8 6.73312 10.8 7.71875V17.2188C10.8 18.2044 9.996 19 9 19C8.004 19 7.2 18.2044 7.2 17.2188V7.71875Z" fill="#D3CFEA"/>
</svg>
