<svg width="28" height="32" viewBox="0 0 28 32" fill="none" xmlns="http://www.w3.org/2000/svg">
<path fill-rule="evenodd" clip-rule="evenodd" d="M27.2174 4.45867C26.7938 2.79467 24.4749 0 13.641 0C8.53641 0 4.83179 0.554667 2.62769 1.64978C0.193846 2.85867 0 4.49422 0 4.97778V14.4356C0.0113926 20.332 3.22629 25.766 8.41436 28.6578L12.5856 30.9831C13.241 31.348 14.041 31.348 14.6964 30.9831L18.8677 28.6578C24.0558 25.766 27.2707 20.332 27.2821 14.4356V4.97778C27.2821 4.80277 27.2604 4.62842 27.2174 4.45867Z" fill="#351DB6"/>
<mask id="mask0_0_1968" style="mask-type:luminance" maskUnits="userSpaceOnUse" x="0" y="0" width="28" height="32">
<path fill-rule="evenodd" clip-rule="evenodd" d="M27.2174 4.45867C26.7938 2.79467 24.4749 0 13.641 0C8.53641 0 4.83179 0.554667 2.62769 1.64978C0.193846 2.85867 0 4.49422 0 4.97778V14.4356C0.0113926 20.332 3.22629 25.766 8.41436 28.6578L12.5856 30.9831C13.241 31.348 14.041 31.348 14.6964 30.9831L18.8677 28.6578C24.0558 25.766 27.2707 20.332 27.2821 14.4356V4.97778C27.2821 4.80277 27.2604 4.62842 27.2174 4.45867Z" fill="white"/>
</mask>
<g mask="url(#mask0_0_1968)">
<path fill-rule="evenodd" clip-rule="evenodd" d="M9.4342 -4.44922L41.3162 -22.1194L60.0614 9.06267L28.1794 26.7328L9.4342 -4.44922Z" fill="#472FC8"/>
<path fill-rule="evenodd" clip-rule="evenodd" d="M13.8958 24.4622C14.4905 24.4622 14.9727 23.9847 14.9727 23.3956C14.9727 22.8065 14.4905 22.3289 13.8958 22.3289C13.301 22.3289 12.8188 22.8065 12.8188 23.3956C12.8188 23.9847 13.301 24.4622 13.8958 24.4622Z" fill="white"/>
<path fill-rule="evenodd" clip-rule="evenodd" d="M13.8958 6.32889C13.301 6.32889 12.8188 6.80645 12.8188 7.39555V18.7733C12.8188 19.3624 13.301 19.84 13.8958 19.84C14.4905 19.84 14.9727 19.3624 14.9727 18.7733V7.39555C14.9727 6.80645 14.4905 6.32889 13.8958 6.32889Z" fill="white"/>
</g>
</svg>
