<svg width="36" height="36" viewBox="0 0 36 36" fill="none" xmlns="http://www.w3.org/2000/svg">
<path fill-rule="evenodd" clip-rule="evenodd" d="M18 36C27.9411 36 36 27.9411 36 18C36 8.05887 27.9411 0 18 0C8.05887 0 0 8.05887 0 18C0 27.9411 8.05887 36 18 36Z" fill="#F1F2F6"/>
<path fill-rule="evenodd" clip-rule="evenodd" d="M5.40625 18.1104L10.7059 19.9872L12.7572 26.2463C12.8885 26.6472 13.4051 26.7954 13.7481 26.5294L16.7022 24.2444C17.0118 24.005 17.4529 23.9931 17.7765 24.216L23.1047 27.8863C23.4715 28.1393 23.9913 27.9485 24.0833 27.5279L27.9865 9.71428C28.0869 9.25485 27.6111 8.87157 27.15 9.04077L5.40004 17.0016C4.86329 17.198 4.86797 17.919 5.40625 18.1104ZM12.7484 18.4107L22.8863 12.5889C23.0685 12.4846 23.2559 12.7143 23.0995 12.8496L14.7327 20.1011C14.4387 20.3563 14.249 20.6979 14.1952 21.0687L13.9102 23.038C13.8725 23.301 13.4763 23.3271 13.3985 23.0726L12.3024 19.4815C12.1768 19.0719 12.3598 18.6344 12.7484 18.4107Z" fill="#7B7C98"/>
</svg>
