<svg width="23" height="23" viewBox="0 0 23 23" fill="none" xmlns="http://www.w3.org/2000/svg">
<g id="Alert">
<g id="Shape">
<path fill-rule="evenodd" clip-rule="evenodd" d="M11.1126 1.20465C5.17874 1.20465 0.368408 6.01499 0.368408 11.9488C0.368408 17.8827 5.17874 22.693 11.1126 22.693C17.0464 22.693 21.8568 17.8827 21.8568 11.9488C21.8568 6.01499 17.0464 1.20465 11.1126 1.20465ZM11.1126 21.1581C6.02644 21.1581 1.90329 17.035 1.90329 11.9488C1.90329 6.86268 6.02644 2.73953 11.1126 2.73953C16.1988 2.73953 20.3219 6.86268 20.3219 11.9488C20.3219 17.035 16.1988 21.1581 11.1126 21.1581Z" fill="#D3CFEA"/>
<path d="M21.8568 11.9488H22.1068H21.8568ZM11.1126 0.954651C5.04067 0.954651 0.118408 5.87692 0.118408 11.9488H0.618408C0.618408 6.15306 5.31682 1.45465 11.1126 1.45465V0.954651ZM0.118408 11.9488C0.118408 18.0208 5.04067 22.943 11.1126 22.943V22.443C5.31682 22.443 0.618408 17.7446 0.618408 11.9488H0.118408ZM11.1126 22.943C17.1845 22.943 22.1068 18.0208 22.1068 11.9488H21.6068C21.6068 17.7446 16.9084 22.443 11.1126 22.443V22.943ZM22.1068 11.9488C22.1068 5.87692 17.1845 0.954651 11.1126 0.954651V1.45465C16.9084 1.45465 21.6068 6.15306 21.6068 11.9488H22.1068ZM11.1126 20.9081C6.16451 20.9081 2.15329 16.8969 2.15329 11.9488H1.65329C1.65329 17.1731 5.88837 21.4081 11.1126 21.4081V20.9081ZM2.15329 11.9488C2.15329 7.00075 6.16451 2.98953 11.1126 2.98953V2.48953C5.88837 2.48953 1.65329 6.72461 1.65329 11.9488H2.15329ZM11.1126 2.98953C16.0607 2.98953 20.0719 7.00075 20.0719 11.9488H20.5719C20.5719 6.72461 16.3368 2.48953 11.1126 2.48953V2.98953ZM20.0719 11.9488C20.0719 16.8969 16.0607 20.9081 11.1126 20.9081V21.4081C16.3368 21.4081 20.5719 17.1731 20.5719 11.9488H20.0719Z" fill="#D3CFEA"/>
</g>
<path id="Shape_2" fill-rule="evenodd" clip-rule="evenodd" d="M11.3683 5.55349C10.9444 5.55349 10.6008 5.89709 10.6008 6.32093V13.4837C10.6008 13.9076 10.9444 14.2512 11.3683 14.2512C11.7921 14.2512 12.1357 13.9076 12.1357 13.4837V6.32093C12.1357 5.89709 11.7921 5.55349 11.3683 5.55349Z" fill="#D3CFEA" stroke="#D3CFEA" stroke-width="0.5"/>
<path id="Oval" fill-rule="evenodd" clip-rule="evenodd" d="M11.3683 17.0651C11.7921 17.0651 12.1357 16.7215 12.1357 16.2977C12.1357 15.8738 11.7921 15.5302 11.3683 15.5302C10.9444 15.5302 10.6008 15.8738 10.6008 16.2977C10.6008 16.7215 10.9444 17.0651 11.3683 17.0651Z" fill="#D3CFEA" stroke="#D3CFEA" stroke-width="0.5"/>
</g>
</svg>
