<svg width="17" height="17" viewBox="0 0 17 17" fill="none" xmlns="http://www.w3.org/2000/svg">
<path fill-rule="evenodd" clip-rule="evenodd" d="M8.5 17C13.1944 17 17 13.1944 17 8.5C17 3.80558 13.1944 0 8.5 0C3.80558 0 0 3.80558 0 8.5C0 13.1944 3.80558 17 8.5 17Z" fill="#65B676"/>
<path fill-rule="evenodd" clip-rule="evenodd" d="M12.634 6.402C12.4583 6.22653 12.1737 6.22653 11.998 6.402L7.516 10.884L4.834 8.202C4.65669 8.03678 4.38039 8.04166 4.20903 8.21302C4.03766 8.38439 4.03278 8.66069 4.198 8.838L7.198 11.838C7.37369 12.0135 7.65831 12.0135 7.834 11.838L12.634 7.038C12.8095 6.86231 12.8095 6.57769 12.634 6.402Z" fill="white" stroke="white"/>
</svg>
