<svg width="36" height="36" viewBox="0 0 36 36" fill="none" xmlns="http://www.w3.org/2000/svg">
<path fill-rule="evenodd" clip-rule="evenodd" d="M18 36C27.9411 36 36 27.9411 36 18C36 8.05887 27.9411 0 18 0C8.05887 0 0 8.05887 0 18C0 27.9411 8.05887 36 18 36Z" fill="#F1F2F6"/>
<path d="M27.4702 24.7474C27.2429 25.3516 26.3592 26.4842 25.7417 26.968C25.1825 27.405 24.7871 27.5725 24.2646 27.598C23.8348 27.6197 23.6566 27.5819 23.1071 27.3478C18.7961 25.516 15.3541 22.7827 12.6208 19.0268C11.1936 17.0655 10.1067 15.0314 9.36406 12.9211C8.93089 11.6901 8.90957 11.1557 9.26536 10.5257C9.4192 10.2604 10.0735 9.60246 10.5484 9.23561C11.3414 8.62796 11.7063 8.4032 11.9981 8.34033C12.1977 8.29569 12.5449 8.33027 12.7661 8.41263C12.8736 8.45067 13.039 8.53963 13.1344 8.6025C13.718 9.00142 15.342 11.1434 15.8729 12.2122C16.1766 12.823 16.2784 13.2754 16.1833 13.6108C16.0855 13.9714 15.9226 14.1609 15.1948 14.7654C14.903 15.0087 14.6298 15.259 14.5868 15.3253C14.4759 15.4897 14.3867 15.8122 14.3867 16.0401C14.3906 16.5689 14.7224 17.527 15.158 18.2645C15.4955 18.8369 16.1008 19.5709 16.6997 20.1346C17.4027 20.7985 18.0229 21.2509 18.723 21.6086C19.6228 22.0704 20.1723 22.1873 20.5744 21.9943C20.6759 21.9471 20.7834 21.8837 20.8172 21.8554C20.8483 21.8268 21.0844 21.5294 21.3427 21.2002C21.8401 20.5549 21.9532 20.4505 22.294 20.3301C22.7269 20.1786 23.1686 20.2195 23.6143 20.4537C23.9524 20.6341 24.6893 21.1053 25.1651 21.447C25.7911 21.8994 27.1308 23.0257 27.3115 23.2501C27.6304 23.6557 27.6846 24.175 27.4702 24.7474Z" fill="#7B7C98"/>
<path d="M27.3108 23.2505C27.1302 23.026 25.7905 21.9 25.1645 21.4473C24.6887 21.1056 23.9521 20.6344 23.6137 20.454C23.168 20.2198 22.7263 20.1789 22.2934 20.3304C21.9526 20.4508 21.8395 20.5552 21.3421 21.2006C21.0838 21.5297 20.8477 21.8271 20.8166 21.8557C20.7828 21.884 20.6753 21.9475 20.5738 21.9946C20.1717 22.1876 19.6222 22.0707 18.7223 21.6089C18.0223 21.2512 17.4021 20.7988 16.699 20.1349C16.1002 19.5713 15.4952 18.8372 15.1574 18.2648C14.7214 17.5273 14.3897 16.5689 14.3861 16.0404C14.3861 15.8125 14.4753 15.4903 14.5862 15.3256C14.6036 15.2986 14.659 15.241 14.7382 15.1672C13.6544 15.838 12.353 16.2297 10.9527 16.2297C10.9167 16.2297 10.8811 16.2272 10.8448 16.2265C11.3633 17.1762 11.9533 18.1098 12.6205 19.0271C15.3538 22.783 18.7955 25.5163 23.1068 27.3481C23.6563 27.5823 23.8345 27.6203 24.2643 27.5983C24.7868 27.5725 25.1822 27.405 25.7414 26.9683C26.3586 26.4845 27.2426 25.3519 27.4699 24.7477C27.6846 24.175 27.6304 23.6557 27.3108 23.2505Z" fill="#7B7C98"/>
<path d="M18.1853 8.14354C18.33 8.00774 18.4311 7.98857 18.9316 8.00491C19.1921 8.01434 19.5762 8.04578 19.7855 8.07093C20.8413 8.20704 21.6948 8.46953 22.6312 8.94106C23.5527 9.40599 24.1422 9.84577 24.9223 10.6464C25.6531 11.4021 26.0579 11.9755 26.4881 12.8645C27.087 14.1043 27.4281 15.5786 27.486 17.202C27.507 17.7556 27.4924 17.8791 27.3693 18.0372C27.1357 18.344 26.6239 18.2931 26.4488 17.9486C26.393 17.8348 26.3778 17.7367 26.3595 17.2935C26.3281 16.6135 26.2824 16.1737 26.1908 15.6484C25.8286 13.5888 24.8702 11.9435 23.3413 10.7634C22.0668 9.7763 20.7496 9.29534 19.0242 9.19097C18.4409 9.15639 18.3388 9.13407 18.2072 9.02971C17.9611 8.83009 17.9489 8.36202 18.1853 8.14354Z" fill="#7B7C98"/>
<path d="M21.845 12.2188C21.2279 11.8391 20.3155 11.5571 19.4839 11.4876C19.1829 11.4625 19.0172 11.399 18.9036 11.2629C18.729 11.0573 18.7102 10.7788 18.8582 10.548C19.0172 10.2918 19.2627 10.2503 19.9969 10.3645C21.8603 10.6461 23.3039 11.5383 24.2497 12.9874C24.781 13.8035 25.1121 14.7623 25.2263 15.7905C25.2659 16.1671 25.2659 16.8537 25.223 16.9675C25.1825 17.075 25.0536 17.2208 24.943 17.2809C24.8236 17.3441 24.5686 17.3381 24.4279 17.2617C24.1915 17.1385 24.1209 16.9423 24.1209 16.4107C24.1209 15.5912 23.9149 14.7274 23.5588 14.0569C23.1531 13.2911 22.5645 12.6586 21.845 12.2188Z" fill="#7B7C98"/>
<path d="M22.8835 16.4359C22.7019 16.6069 22.3678 16.6132 22.1646 16.4516C22.018 16.3378 21.9711 16.2174 21.9376 15.8917C21.8971 15.4583 21.824 15.1546 21.6979 14.8732C21.4274 14.275 20.9522 13.9651 20.148 13.8635C19.7699 13.8164 19.6566 13.7721 19.5332 13.6234C19.3093 13.348 19.3956 12.9019 19.7054 12.7375C19.822 12.6778 19.8711 12.6709 20.1288 12.6869C20.2887 12.6963 20.5251 12.7249 20.6512 12.7532C21.2562 12.8862 21.7192 13.1232 22.1155 13.5064C22.6255 14.0034 22.9051 14.6045 23.0276 15.468C23.1101 16.031 23.076 16.2526 22.8835 16.4359Z" fill="#7B7C98"/>
<path d="M27.3108 23.2505C27.1302 23.026 25.7905 21.9 25.1645 21.4473C24.6887 21.1056 23.9521 20.6344 23.6137 20.454C23.168 20.2198 22.7263 20.1789 22.2934 20.3304C21.9526 20.4508 21.8395 20.5552 21.3421 21.2006C21.0838 21.5297 20.8477 21.8271 20.8166 21.8557C20.7846 21.8827 20.685 21.9409 20.5878 21.9874C19.8257 22.9348 18.928 23.7541 17.9233 24.4067C19.4933 25.5673 21.2166 26.5443 23.1074 27.3474C23.6569 27.5816 23.8351 27.6197 24.2649 27.5977C24.7874 27.5719 25.1828 27.4043 25.742 26.9677C26.3592 26.4839 27.2432 25.3513 27.4705 24.7471C27.6846 24.175 27.6304 23.6557 27.3108 23.2505Z" fill="#7B7C98"/>
</svg>
