<svg width="25" height="26" viewBox="0 0 25 26" fill="none" xmlns="http://www.w3.org/2000/svg">
<path fill-rule="evenodd" clip-rule="evenodd" d="M23.7624 23.6886L18.3096 18.2653C22.1303 14.421 22.2467 8.24992 18.5738 4.26424C14.9008 0.27856 8.74081 -0.108526 4.5978 3.38601C0.454798 6.88055 -0.202206 13.0176 3.10717 17.31C6.41655 21.6023 12.5189 22.528 16.9523 19.4101L22.5113 24.9692C22.8601 25.2941 23.4036 25.2846 23.7407 24.9475C24.0778 24.6104 24.0874 24.0669 23.7624 23.7181V23.6886ZM2.9249 11.1837C2.9249 6.62081 6.62385 2.92186 11.1867 2.92186C15.7496 2.92186 19.4486 6.62081 19.4486 11.1837C19.4486 15.7466 15.7496 19.4455 11.1867 19.4455C6.62385 19.4455 2.9249 15.7466 2.9249 11.1837Z" fill="#0D0E56"/>
<path d="M23.7624 23.6886H24.2624V23.4807L24.115 23.3341L23.7624 23.6886ZM18.3096 18.2653L17.955 17.9128L17.6026 18.2673L17.957 18.6198L18.3096 18.2653ZM16.9523 19.4101L17.3059 19.0566L17.0086 18.7593L16.6647 19.0011L16.9523 19.4101ZM22.5113 24.9692L22.1578 25.3227L22.164 25.3289L22.1705 25.335L22.5113 24.9692ZM23.7624 23.7181H23.2624V23.9149L23.3966 24.0589L23.7624 23.7181ZM24.115 23.3341L18.6622 17.9108L17.957 18.6198L23.4098 24.0431L24.115 23.3341ZM18.6643 18.6177C22.6736 14.5836 22.7957 8.10788 18.9414 3.92541L18.2061 4.60308C21.6977 8.39196 21.587 14.2583 17.955 17.9128L18.6643 18.6177ZM18.9414 3.92541C15.0871 -0.257066 8.62299 -0.663264 4.27543 3.00381L4.92018 3.76821C8.85862 0.446213 14.7145 0.814187 18.2061 4.60308L18.9414 3.92541ZM4.27543 3.00381C-0.072137 6.67089 -0.76158 13.111 2.7112 17.6153L3.50315 17.0047C0.357168 12.9243 0.981732 7.0902 4.92018 3.76821L4.27543 3.00381ZM2.7112 17.6153C6.18398 22.1195 12.5876 23.0909 17.2399 19.8191L16.6647 19.0011C12.4502 21.965 6.64913 21.0851 3.50315 17.0047L2.7112 17.6153ZM16.5988 19.7637L22.1578 25.3227L22.8649 24.6156L17.3059 19.0566L16.5988 19.7637ZM22.1705 25.335C22.7163 25.8435 23.5668 25.8285 24.0943 25.301L23.3872 24.5939C23.2405 24.7406 23.004 24.7448 22.8522 24.6033L22.1705 25.335ZM24.0943 25.301C24.6218 24.7735 24.6368 23.923 24.1282 23.3772L23.3966 24.0589C23.538 24.2107 23.5339 24.4472 23.3872 24.5939L24.0943 25.301ZM24.2624 23.7181V23.6886H23.2624V23.7181H24.2624ZM3.4249 11.1837C3.4249 6.89696 6.89999 3.42186 11.1867 3.42186V2.42186C6.34771 2.42186 2.4249 6.34467 2.4249 11.1837H3.4249ZM11.1867 3.42186C15.4735 3.42186 18.9486 6.89696 18.9486 11.1837H19.9486C19.9486 6.34467 16.0258 2.42186 11.1867 2.42186V3.42186ZM18.9486 11.1837C18.9486 15.4704 15.4735 18.9455 11.1867 18.9455V19.9455C16.0258 19.9455 19.9486 16.0227 19.9486 11.1837H18.9486ZM11.1867 18.9455C6.89999 18.9455 3.4249 15.4704 3.4249 11.1837H2.4249C2.4249 16.0227 6.34771 19.9455 11.1867 19.9455V18.9455Z" fill="#0D0E56"/>
</svg>
