<svg width="27" height="27" viewBox="0 0 27 27" fill="none" xmlns="http://www.w3.org/2000/svg">
<g id="ic_add_person">
<g id="User">
<path id="Shape" fill-rule="evenodd" clip-rule="evenodd" d="M18.5105 14.7273C18.0804 14.6751 17.6968 15.0555 17.6538 15.5769C17.6108 16.0983 17.9246 16.5632 18.3548 16.6154C20.7703 16.9594 22.6416 19.3388 22.8098 22.2797H4.70939C4.89345 19.3473 6.75672 16.9782 9.16439 16.6154C9.59454 16.5632 9.90837 16.0983 9.86536 15.5769C9.82234 15.0555 9.43877 14.6751 9.00863 14.7273C8.95151 14.7273 3.11536 15.5328 3.11536 23.2175C3.11536 23.7389 3.46406 24.1615 3.8942 24.1615H23.625C24.0551 24.1615 24.4038 23.7389 24.4038 23.2175C24.4038 15.5328 18.5677 14.7273 18.5105 14.7273Z" fill="#D3CFEA" stroke="#D3CFEA" stroke-width="0.5"/>
</g>
<path id="Oval" fill-rule="evenodd" clip-rule="evenodd" d="M13.905 13.5C16.4859 13.5 18.5781 11.0274 18.5781 7.97726C18.5781 4.92714 16.4859 2.45453 13.905 2.45453C11.3241 2.45453 9.23193 4.92714 9.23193 7.97726C9.23193 11.0274 11.3241 13.5 13.905 13.5Z" stroke="#D3CFEA" stroke-width="2"/>
</g>
</svg>
